<?xml version="1.0" encoding="utf-8" standalone="no"?>
<!DOCTYPE svg PUBLIC "-//W3C//DTD SVG 1.1//EN"
  "http://www.w3.org/Graphics/SVG/1.1/DTD/svg11.dtd">
<svg xmlns:xlink="http://www.w3.org/1999/xlink" width="710.4375pt" height="422.363518pt" viewBox="0 0 710.4375 422.363518" xmlns="http://www.w3.org/2000/svg" version="1.1">
 <metadata>
  <rdf:RDF xmlns:dc="http://purl.org/dc/elements/1.1/" xmlns:cc="http://creativecommons.org/ns#" xmlns:rdf="http://www.w3.org/1999/02/22-rdf-syntax-ns#">
   <cc:Work>
    <dc:type rdf:resource="http://purl.org/dc/dcmitype/StillImage"/>
    <dc:date>2026-04-22T22:28:03.381107</dc:date>
    <dc:format>image/svg+xml</dc:format>
    <dc:creator>
     <cc:Agent>
      <dc:title>Matplotlib v3.10.8, https://matplotlib.org/</dc:title>
     </cc:Agent>
    </dc:creator>
   </cc:Work>
  </rdf:RDF>
 </metadata>
 <defs>
  <style type="text/css">*{stroke-linejoin: round; stroke-linecap: butt}</style>
 </defs>
 <g id="figure_1">
  <g id="patch_1">
   <path d="M 0 422.363518 
L 710.4375 422.363518 
L 710.4375 0 
L 0 0 
z
" style="fill: #ffffff"/>
  </g>
  <g id="axes_1">
   <g id="patch_2">
    <path d="M 59.49125 369.463471 
L 703.2375 369.463471 
L 703.2375 23.757937 
L 59.49125 23.757937 
z
" style="fill: #ffffff"/>
   </g>
   <g id="matplotlib.axis_1">
    <g id="xtick_1">
     <g id="line2d_1">
      <defs>
       <path id="m6d8d350b74" d="M 0 0 
L 0 3.5 
" style="stroke: #000000; stroke-width: 0.8"/>
      </defs>
      <g>
       <use xlink:href="#m6d8d350b74" x="111.853385" y="369.463471" style="stroke: #000000; stroke-width: 0.8"/>
      </g>
     </g>
     <g id="text_1">
      <!-- Discapacidad -->
      <g transform="translate(47.395692 406.805458) rotate(-20) scale(0.1 -0.1)">
       <defs>
        <path id="DejaVuSerif-44" d="M 1581 331 
L 2163 331 
Q 3072 331 3558 850 
Q 4044 1369 4044 2338 
Q 4044 3306 3559 3818 
Q 3075 4331 2163 4331 
L 1581 4331 
L 1581 331 
z
M 353 0 
L 353 331 
L 947 331 
L 947 4331 
L 353 4331 
L 353 4666 
L 2209 4666 
Q 3416 4666 4089 4050 
Q 4763 3434 4763 2338 
Q 4763 1238 4088 619 
Q 3413 0 2209 0 
L 353 0 
z
" transform="scale(0.015625)"/>
        <path id="DejaVuSerif-69" d="M 622 4353 
Q 622 4497 726 4603 
Q 831 4709 978 4709 
Q 1122 4709 1226 4603 
Q 1331 4497 1331 4353 
Q 1331 4206 1228 4103 
Q 1125 4000 978 4000 
Q 831 4000 726 4103 
Q 622 4206 622 4353 
z
M 1356 331 
L 1900 331 
L 1900 0 
L 231 0 
L 231 331 
L 781 331 
L 781 2988 
L 231 2988 
L 231 3322 
L 1356 3322 
L 1356 331 
z
" transform="scale(0.015625)"/>
        <path id="DejaVuSerif-73" d="M 359 184 
L 359 959 
L 691 959 
Q 703 588 923 403 
Q 1144 219 1575 219 
Q 1963 219 2166 364 
Q 2369 509 2369 788 
Q 2369 1006 2220 1140 
Q 2072 1275 1594 1428 
L 1178 1569 
Q 750 1706 558 1912 
Q 366 2119 366 2438 
Q 366 2894 700 3153 
Q 1034 3413 1625 3413 
Q 1888 3413 2178 3344 
Q 2469 3275 2778 3144 
L 2778 2419 
L 2447 2419 
Q 2434 2741 2221 2922 
Q 2009 3103 1644 3103 
Q 1281 3103 1095 2975 
Q 909 2847 909 2591 
Q 909 2381 1050 2254 
Q 1191 2128 1613 1997 
L 2069 1856 
Q 2541 1709 2748 1489 
Q 2956 1269 2956 922 
Q 2956 450 2595 179 
Q 2234 -91 1600 -91 
Q 1278 -91 972 -22 
Q 666 47 359 184 
z
" transform="scale(0.015625)"/>
        <path id="DejaVuSerif-63" d="M 3291 997 
Q 3169 466 2822 187 
Q 2475 -91 1925 -91 
Q 1200 -91 759 389 
Q 319 869 319 1663 
Q 319 2459 759 2936 
Q 1200 3413 1925 3413 
Q 2241 3413 2553 3339 
Q 2866 3266 3181 3116 
L 3181 2266 
L 2847 2266 
Q 2781 2703 2561 2903 
Q 2341 3103 1931 3103 
Q 1466 3103 1228 2742 
Q 991 2381 991 1663 
Q 991 944 1227 581 
Q 1463 219 1931 219 
Q 2303 219 2525 412 
Q 2747 606 2828 997 
L 3291 997 
z
" transform="scale(0.015625)"/>
        <path id="DejaVuSerif-61" d="M 2547 1044 
L 2547 1747 
L 1806 1747 
Q 1378 1747 1168 1562 
Q 959 1378 959 997 
Q 959 650 1171 447 
Q 1384 244 1747 244 
Q 2106 244 2326 466 
Q 2547 688 2547 1044 
z
M 3122 2075 
L 3122 331 
L 3634 331 
L 3634 0 
L 2547 0 
L 2547 359 
Q 2356 128 2106 18 
Q 1856 -91 1522 -91 
Q 969 -91 644 203 
Q 319 497 319 997 
Q 319 1513 691 1797 
Q 1063 2081 1741 2081 
L 2547 2081 
L 2547 2309 
Q 2547 2688 2317 2895 
Q 2088 3103 1672 3103 
Q 1328 3103 1125 2947 
Q 922 2791 872 2484 
L 575 2484 
L 575 3156 
Q 875 3284 1158 3348 
Q 1441 3413 1709 3413 
Q 2400 3413 2761 3070 
Q 3122 2728 3122 2075 
z
" transform="scale(0.015625)"/>
        <path id="DejaVuSerif-70" d="M 1313 1825 
L 1313 1497 
Q 1313 897 1542 583 
Q 1772 269 2209 269 
Q 2650 269 2876 622 
Q 3103 975 3103 1663 
Q 3103 2353 2876 2703 
Q 2650 3053 2209 3053 
Q 1772 3053 1542 2737 
Q 1313 2422 1313 1825 
z
M 738 2988 
L 184 2988 
L 184 3322 
L 1313 3322 
L 1313 2803 
Q 1481 3116 1742 3264 
Q 2003 3413 2388 3413 
Q 3000 3413 3387 2928 
Q 3775 2444 3775 1663 
Q 3775 881 3387 395 
Q 3000 -91 2388 -91 
Q 2003 -91 1742 57 
Q 1481 206 1313 519 
L 1313 -997 
L 1856 -997 
L 1856 -1331 
L 184 -1331 
L 184 -997 
L 738 -997 
L 738 2988 
z
" transform="scale(0.015625)"/>
        <path id="DejaVuSerif-64" d="M 3359 331 
L 3909 331 
L 3909 0 
L 2784 0 
L 2784 519 
Q 2616 206 2355 57 
Q 2094 -91 1709 -91 
Q 1097 -91 708 395 
Q 319 881 319 1663 
Q 319 2444 706 2928 
Q 1094 3413 1709 3413 
Q 2094 3413 2355 3264 
Q 2616 3116 2784 2803 
L 2784 4531 
L 2241 4531 
L 2241 4863 
L 3359 4863 
L 3359 331 
z
M 2784 1497 
L 2784 1825 
Q 2784 2422 2554 2737 
Q 2325 3053 1888 3053 
Q 1444 3053 1217 2703 
Q 991 2353 991 1663 
Q 991 975 1217 622 
Q 1444 269 1888 269 
Q 2325 269 2554 583 
Q 2784 897 2784 1497 
z
" transform="scale(0.015625)"/>
       </defs>
       <use xlink:href="#DejaVuSerif-44"/>
       <use xlink:href="#DejaVuSerif-69" transform="translate(80.175781 0)"/>
       <use xlink:href="#DejaVuSerif-73" transform="translate(112.158203 0)"/>
       <use xlink:href="#DejaVuSerif-63" transform="translate(163.476562 0)"/>
       <use xlink:href="#DejaVuSerif-61" transform="translate(219.482422 0)"/>
       <use xlink:href="#DejaVuSerif-70" transform="translate(279.101562 0)"/>
       <use xlink:href="#DejaVuSerif-61" transform="translate(343.115234 0)"/>
       <use xlink:href="#DejaVuSerif-63" transform="translate(402.734375 0)"/>
       <use xlink:href="#DejaVuSerif-69" transform="translate(458.740234 0)"/>
       <use xlink:href="#DejaVuSerif-64" transform="translate(490.722656 0)"/>
       <use xlink:href="#DejaVuSerif-61" transform="translate(554.736328 0)"/>
       <use xlink:href="#DejaVuSerif-64" transform="translate(614.355469 0)"/>
      </g>
     </g>
    </g>
    <g id="xtick_2">
     <g id="line2d_2">
      <g>
       <use xlink:href="#m6d8d350b74" x="188.856525" y="369.463471" style="stroke: #000000; stroke-width: 0.8"/>
      </g>
     </g>
     <g id="text_2">
      <!-- Log ingreso -->
      <g transform="translate(131.591707 404.036153) rotate(-20) scale(0.1 -0.1)">
       <defs>
        <path id="DejaVuSerif-4c" d="M 353 0 
L 353 331 
L 947 331 
L 947 4331 
L 353 4331 
L 353 4666 
L 2175 4666 
L 2175 4331 
L 1581 4331 
L 1581 384 
L 3713 384 
L 3713 1166 
L 4097 1166 
L 4097 0 
L 353 0 
z
" transform="scale(0.015625)"/>
        <path id="DejaVuSerif-6f" d="M 1925 219 
Q 2388 219 2623 584 
Q 2859 950 2859 1663 
Q 2859 2375 2623 2739 
Q 2388 3103 1925 3103 
Q 1463 3103 1227 2739 
Q 991 2375 991 1663 
Q 991 950 1228 584 
Q 1466 219 1925 219 
z
M 1925 -91 
Q 1200 -91 759 389 
Q 319 869 319 1663 
Q 319 2456 758 2934 
Q 1197 3413 1925 3413 
Q 2653 3413 3092 2934 
Q 3531 2456 3531 1663 
Q 3531 869 3092 389 
Q 2653 -91 1925 -91 
z
" transform="scale(0.015625)"/>
        <path id="DejaVuSerif-67" d="M 3359 2988 
L 3359 72 
Q 3359 -644 2965 -1033 
Q 2572 -1422 1844 -1422 
Q 1516 -1422 1216 -1362 
Q 916 -1303 641 -1184 
L 641 -488 
L 941 -488 
Q 997 -813 1206 -963 
Q 1416 -1113 1806 -1113 
Q 2313 -1113 2548 -827 
Q 2784 -541 2784 72 
L 2784 519 
Q 2616 206 2355 57 
Q 2094 -91 1709 -91 
Q 1097 -91 708 395 
Q 319 881 319 1663 
Q 319 2444 706 2928 
Q 1094 3413 1709 3413 
Q 2094 3413 2355 3264 
Q 2616 3116 2784 2803 
L 2784 3322 
L 3909 3322 
L 3909 2988 
L 3359 2988 
z
M 2784 1825 
Q 2784 2422 2554 2737 
Q 2325 3053 1888 3053 
Q 1444 3053 1217 2703 
Q 991 2353 991 1663 
Q 991 975 1217 622 
Q 1444 269 1888 269 
Q 2325 269 2554 583 
Q 2784 897 2784 1497 
L 2784 1825 
z
" transform="scale(0.015625)"/>
        <path id="DejaVuSerif-20" transform="scale(0.015625)"/>
        <path id="DejaVuSerif-6e" d="M 263 0 
L 263 331 
L 781 331 
L 781 2988 
L 231 2988 
L 231 3322 
L 1356 3322 
L 1356 2731 
Q 1516 3069 1770 3241 
Q 2025 3413 2363 3413 
Q 2913 3413 3172 3097 
Q 3431 2781 3431 2113 
L 3431 331 
L 3944 331 
L 3944 0 
L 2356 0 
L 2356 331 
L 2853 331 
L 2853 1931 
Q 2853 2541 2703 2767 
Q 2553 2994 2175 2994 
Q 1775 2994 1565 2701 
Q 1356 2409 1356 1850 
L 1356 331 
L 1856 331 
L 1856 0 
L 263 0 
z
" transform="scale(0.015625)"/>
        <path id="DejaVuSerif-72" d="M 3059 3328 
L 3059 2497 
L 2728 2497 
Q 2713 2744 2591 2866 
Q 2469 2988 2234 2988 
Q 1809 2988 1582 2694 
Q 1356 2400 1356 1850 
L 1356 331 
L 2022 331 
L 2022 0 
L 263 0 
L 263 331 
L 781 331 
L 781 2994 
L 231 2994 
L 231 3322 
L 1356 3322 
L 1356 2731 
Q 1525 3078 1790 3245 
Q 2056 3413 2438 3413 
Q 2578 3413 2733 3391 
Q 2888 3369 3059 3328 
z
" transform="scale(0.015625)"/>
        <path id="DejaVuSerif-65" d="M 3469 1600 
L 991 1600 
L 991 1575 
Q 991 903 1244 561 
Q 1497 219 1991 219 
Q 2369 219 2611 417 
Q 2853 616 2950 1006 
L 3413 1006 
Q 3275 459 2904 184 
Q 2534 -91 1931 -91 
Q 1203 -91 761 389 
Q 319 869 319 1663 
Q 319 2450 753 2931 
Q 1188 3413 1894 3413 
Q 2647 3413 3050 2948 
Q 3453 2484 3469 1600 
z
M 2791 1931 
Q 2772 2513 2545 2808 
Q 2319 3103 1894 3103 
Q 1497 3103 1269 2806 
Q 1041 2509 991 1931 
L 2791 1931 
z
" transform="scale(0.015625)"/>
       </defs>
       <use xlink:href="#DejaVuSerif-4c"/>
       <use xlink:href="#DejaVuSerif-6f" transform="translate(66.40625 0)"/>
       <use xlink:href="#DejaVuSerif-67" transform="translate(126.611328 0)"/>
       <use xlink:href="#DejaVuSerif-20" transform="translate(190.625 0)"/>
       <use xlink:href="#DejaVuSerif-69" transform="translate(222.412109 0)"/>
       <use xlink:href="#DejaVuSerif-6e" transform="translate(254.394531 0)"/>
       <use xlink:href="#DejaVuSerif-67" transform="translate(318.798828 0)"/>
       <use xlink:href="#DejaVuSerif-72" transform="translate(382.8125 0)"/>
       <use xlink:href="#DejaVuSerif-65" transform="translate(430.615234 0)"/>
       <use xlink:href="#DejaVuSerif-73" transform="translate(489.794922 0)"/>
       <use xlink:href="#DejaVuSerif-6f" transform="translate(541.113281 0)"/>
      </g>
     </g>
    </g>
    <g id="xtick_3">
     <g id="line2d_3">
      <g>
       <use xlink:href="#m6d8d350b74" x="265.859665" y="369.463471" style="stroke: #000000; stroke-width: 0.8"/>
      </g>
     </g>
     <g id="text_3">
      <!-- Horas no estudio -->
      <g transform="translate(183.807696 413.209251) rotate(-20) scale(0.1 -0.1)">
       <defs>
        <path id="DejaVuSerif-48" d="M 353 0 
L 353 331 
L 947 331 
L 947 4331 
L 353 4331 
L 353 4666 
L 2175 4666 
L 2175 4331 
L 1581 4331 
L 1581 2719 
L 4000 2719 
L 4000 4331 
L 3406 4331 
L 3406 4666 
L 5228 4666 
L 5228 4331 
L 4634 4331 
L 4634 331 
L 5228 331 
L 5228 0 
L 3406 0 
L 3406 331 
L 4000 331 
L 4000 2338 
L 1581 2338 
L 1581 331 
L 2175 331 
L 2175 0 
L 353 0 
z
" transform="scale(0.015625)"/>
        <path id="DejaVuSerif-74" d="M 691 2988 
L 184 2988 
L 184 3322 
L 691 3322 
L 691 4353 
L 1269 4353 
L 1269 3322 
L 2350 3322 
L 2350 2988 
L 1269 2988 
L 1269 878 
Q 1269 456 1350 337 
Q 1431 219 1650 219 
Q 1875 219 1978 351 
Q 2081 484 2088 781 
L 2522 781 
Q 2497 328 2275 118 
Q 2053 -91 1600 -91 
Q 1103 -91 897 129 
Q 691 350 691 878 
L 691 2988 
z
" transform="scale(0.015625)"/>
        <path id="DejaVuSerif-75" d="M 2266 3322 
L 3341 3322 
L 3341 331 
L 3884 331 
L 3884 0 
L 2766 0 
L 2766 588 
Q 2606 256 2353 82 
Q 2100 -91 1766 -91 
Q 1213 -91 952 223 
Q 691 538 691 1209 
L 691 2988 
L 172 2988 
L 172 3322 
L 1269 3322 
L 1269 1388 
Q 1269 781 1417 556 
Q 1566 331 1947 331 
Q 2347 331 2556 625 
Q 2766 919 2766 1478 
L 2766 2988 
L 2266 2988 
L 2266 3322 
z
" transform="scale(0.015625)"/>
       </defs>
       <use xlink:href="#DejaVuSerif-48"/>
       <use xlink:href="#DejaVuSerif-6f" transform="translate(87.207031 0)"/>
       <use xlink:href="#DejaVuSerif-72" transform="translate(147.412109 0)"/>
       <use xlink:href="#DejaVuSerif-61" transform="translate(195.214844 0)"/>
       <use xlink:href="#DejaVuSerif-73" transform="translate(254.833984 0)"/>
       <use xlink:href="#DejaVuSerif-20" transform="translate(306.152344 0)"/>
       <use xlink:href="#DejaVuSerif-6e" transform="translate(337.939453 0)"/>
       <use xlink:href="#DejaVuSerif-6f" transform="translate(402.34375 0)"/>
       <use xlink:href="#DejaVuSerif-20" transform="translate(462.548828 0)"/>
       <use xlink:href="#DejaVuSerif-65" transform="translate(494.335938 0)"/>
       <use xlink:href="#DejaVuSerif-73" transform="translate(553.515625 0)"/>
       <use xlink:href="#DejaVuSerif-74" transform="translate(604.833984 0)"/>
       <use xlink:href="#DejaVuSerif-75" transform="translate(645.019531 0)"/>
       <use xlink:href="#DejaVuSerif-64" transform="translate(709.423828 0)"/>
       <use xlink:href="#DejaVuSerif-69" transform="translate(773.4375 0)"/>
       <use xlink:href="#DejaVuSerif-6f" transform="translate(805.419922 0)"/>
      </g>
     </g>
    </g>
    <g id="xtick_4">
     <g id="line2d_4">
      <g>
       <use xlink:href="#m6d8d350b74" x="342.862805" y="369.463471" style="stroke: #000000; stroke-width: 0.8"/>
      </g>
     </g>
     <g id="text_4">
      <!-- Internet -->
      <g transform="translate(303.167481 397.792693) rotate(-20) scale(0.1 -0.1)">
       <defs>
        <path id="DejaVuSerif-49" d="M 1581 331 
L 2175 331 
L 2175 0 
L 353 0 
L 353 331 
L 947 331 
L 947 4331 
L 353 4331 
L 353 4666 
L 2175 4666 
L 2175 4331 
L 1581 4331 
L 1581 331 
z
" transform="scale(0.015625)"/>
       </defs>
       <use xlink:href="#DejaVuSerif-49"/>
       <use xlink:href="#DejaVuSerif-6e" transform="translate(39.501953 0)"/>
       <use xlink:href="#DejaVuSerif-74" transform="translate(103.90625 0)"/>
       <use xlink:href="#DejaVuSerif-65" transform="translate(144.091797 0)"/>
       <use xlink:href="#DejaVuSerif-72" transform="translate(203.271484 0)"/>
       <use xlink:href="#DejaVuSerif-6e" transform="translate(251.074219 0)"/>
       <use xlink:href="#DejaVuSerif-65" transform="translate(315.478516 0)"/>
       <use xlink:href="#DejaVuSerif-74" transform="translate(374.658203 0)"/>
      </g>
     </g>
    </g>
    <g id="xtick_5">
     <g id="line2d_5">
      <g>
       <use xlink:href="#m6d8d350b74" x="419.865945" y="369.463471" style="stroke: #000000; stroke-width: 0.8"/>
      </g>
     </g>
     <g id="text_5">
      <!-- Hombre -->
      <g transform="translate(380.323321 397.737115) rotate(-20) scale(0.1 -0.1)">
       <defs>
        <path id="DejaVuSerif-6d" d="M 3316 2675 
Q 3481 3041 3739 3227 
Q 3997 3413 4341 3413 
Q 4863 3413 5119 3089 
Q 5375 2766 5375 2113 
L 5375 331 
L 5894 331 
L 5894 0 
L 4300 0 
L 4300 331 
L 4800 331 
L 4800 2047 
Q 4800 2556 4650 2772 
Q 4500 2988 4153 2988 
Q 3769 2988 3567 2697 
Q 3366 2406 3366 1850 
L 3366 331 
L 3866 331 
L 3866 0 
L 2291 0 
L 2291 331 
L 2791 331 
L 2791 2069 
Q 2791 2566 2641 2777 
Q 2491 2988 2144 2988 
Q 1759 2988 1557 2697 
Q 1356 2406 1356 1850 
L 1356 331 
L 1856 331 
L 1856 0 
L 263 0 
L 263 331 
L 781 331 
L 781 2994 
L 231 2994 
L 231 3322 
L 1356 3322 
L 1356 2731 
Q 1516 3063 1762 3238 
Q 2009 3413 2322 3413 
Q 2709 3413 2968 3220 
Q 3228 3028 3316 2675 
z
" transform="scale(0.015625)"/>
        <path id="DejaVuSerif-62" d="M 738 331 
L 738 4531 
L 184 4531 
L 184 4863 
L 1313 4863 
L 1313 2803 
Q 1481 3116 1742 3264 
Q 2003 3413 2388 3413 
Q 3000 3413 3387 2928 
Q 3775 2444 3775 1663 
Q 3775 881 3387 395 
Q 3000 -91 2388 -91 
Q 2003 -91 1742 57 
Q 1481 206 1313 519 
L 1313 0 
L 184 0 
L 184 331 
L 738 331 
z
M 1313 1497 
Q 1313 897 1542 583 
Q 1772 269 2209 269 
Q 2650 269 2876 622 
Q 3103 975 3103 1663 
Q 3103 2353 2876 2703 
Q 2650 3053 2209 3053 
Q 1772 3053 1542 2737 
Q 1313 2422 1313 1825 
L 1313 1497 
z
" transform="scale(0.015625)"/>
       </defs>
       <use xlink:href="#DejaVuSerif-48"/>
       <use xlink:href="#DejaVuSerif-6f" transform="translate(87.207031 0)"/>
       <use xlink:href="#DejaVuSerif-6d" transform="translate(147.412109 0)"/>
       <use xlink:href="#DejaVuSerif-62" transform="translate(242.236328 0)"/>
       <use xlink:href="#DejaVuSerif-72" transform="translate(306.25 0)"/>
       <use xlink:href="#DejaVuSerif-65" transform="translate(354.052734 0)"/>
      </g>
     </g>
    </g>
    <g id="xtick_6">
     <g id="line2d_6">
      <g>
       <use xlink:href="#m6d8d350b74" x="496.869085" y="369.463471" style="stroke: #000000; stroke-width: 0.8"/>
      </g>
     </g>
     <g id="text_6">
      <!-- Edad -->
      <g transform="translate(471.664114 392.518636) rotate(-20) scale(0.1 -0.1)">
       <defs>
        <path id="DejaVuSerif-45" d="M 353 0 
L 353 331 
L 947 331 
L 947 4331 
L 353 4331 
L 353 4666 
L 4109 4666 
L 4109 3628 
L 3725 3628 
L 3725 4281 
L 1581 4281 
L 1581 2719 
L 3109 2719 
L 3109 3303 
L 3494 3303 
L 3494 1753 
L 3109 1753 
L 3109 2338 
L 1581 2338 
L 1581 384 
L 3775 384 
L 3775 1038 
L 4159 1038 
L 4159 0 
L 353 0 
z
" transform="scale(0.015625)"/>
       </defs>
       <use xlink:href="#DejaVuSerif-45"/>
       <use xlink:href="#DejaVuSerif-64" transform="translate(72.998047 0)"/>
       <use xlink:href="#DejaVuSerif-61" transform="translate(137.011719 0)"/>
       <use xlink:href="#DejaVuSerif-64" transform="translate(196.630859 0)"/>
      </g>
     </g>
    </g>
    <g id="xtick_7">
     <g id="line2d_7">
      <g>
       <use xlink:href="#m6d8d350b74" x="573.872225" y="369.463471" style="stroke: #000000; stroke-width: 0.8"/>
      </g>
     </g>
     <g id="text_7">
      <!-- Tamaño hogar -->
      <g transform="translate(504.940536 408.576201) rotate(-20) scale(0.1 -0.1)">
       <defs>
        <path id="DejaVuSerif-54" d="M 1222 0 
L 1222 331 
L 1819 331 
L 1819 4294 
L 447 4294 
L 447 3566 
L 63 3566 
L 63 4666 
L 4206 4666 
L 4206 3566 
L 3822 3566 
L 3822 4294 
L 2450 4294 
L 2450 331 
L 3047 331 
L 3047 0 
L 1222 0 
z
" transform="scale(0.015625)"/>
        <path id="DejaVuSerif-f1" d="M 263 0 
L 263 331 
L 781 331 
L 781 2988 
L 231 2988 
L 231 3322 
L 1356 3322 
L 1356 2731 
Q 1516 3069 1770 3241 
Q 2025 3413 2363 3413 
Q 2913 3413 3172 3097 
Q 3431 2781 3431 2113 
L 3431 331 
L 3944 331 
L 3944 0 
L 2356 0 
L 2356 331 
L 2853 331 
L 2853 1931 
Q 2853 2541 2703 2767 
Q 2553 2994 2175 2994 
Q 1775 2994 1565 2701 
Q 1356 2409 1356 1850 
L 1356 331 
L 1856 331 
L 1856 0 
L 263 0 
z
M 2044 4281 
L 1865 4453 
Q 1784 4528 1732 4551 
Q 1681 4575 1622 4575 
Q 1490 4575 1415 4451 
Q 1340 4328 1325 4091 
L 1025 4091 
Q 1031 4513 1190 4742 
Q 1350 4972 1634 4972 
Q 1753 4972 1853 4928 
Q 1953 4884 2069 4781 
L 2247 4609 
Q 2319 4538 2372 4513 
Q 2425 4488 2490 4488 
Q 2625 4488 2700 4613 
Q 2775 4738 2787 4972 
L 3087 4972 
Q 3081 4550 2921 4320 
Q 2762 4091 2478 4091 
Q 2359 4091 2259 4134 
Q 2159 4178 2044 4281 
z
" transform="scale(0.015625)"/>
        <path id="DejaVuSerif-68" d="M 263 0 
L 263 331 
L 781 331 
L 781 4531 
L 231 4531 
L 231 4863 
L 1356 4863 
L 1356 2731 
Q 1516 3069 1770 3241 
Q 2025 3413 2363 3413 
Q 2913 3413 3172 3097 
Q 3431 2781 3431 2113 
L 3431 331 
L 3944 331 
L 3944 0 
L 2356 0 
L 2356 331 
L 2853 331 
L 2853 1931 
Q 2853 2541 2704 2764 
Q 2556 2988 2175 2988 
Q 1775 2988 1565 2697 
Q 1356 2406 1356 1850 
L 1356 331 
L 1856 331 
L 1856 0 
L 263 0 
z
" transform="scale(0.015625)"/>
       </defs>
       <use xlink:href="#DejaVuSerif-54"/>
       <use xlink:href="#DejaVuSerif-61" transform="translate(58.949219 0)"/>
       <use xlink:href="#DejaVuSerif-6d" transform="translate(118.568359 0)"/>
       <use xlink:href="#DejaVuSerif-61" transform="translate(213.392578 0)"/>
       <use xlink:href="#DejaVuSerif-f1" transform="translate(273.011719 0)"/>
       <use xlink:href="#DejaVuSerif-6f" transform="translate(337.416016 0)"/>
       <use xlink:href="#DejaVuSerif-20" transform="translate(397.621094 0)"/>
       <use xlink:href="#DejaVuSerif-68" transform="translate(429.408203 0)"/>
       <use xlink:href="#DejaVuSerif-6f" transform="translate(493.8125 0)"/>
       <use xlink:href="#DejaVuSerif-67" transform="translate(554.017578 0)"/>
       <use xlink:href="#DejaVuSerif-61" transform="translate(618.03125 0)"/>
       <use xlink:href="#DejaVuSerif-72" transform="translate(677.650391 0)"/>
      </g>
     </g>
    </g>
    <g id="xtick_8">
     <g id="line2d_8">
      <g>
       <use xlink:href="#m6d8d350b74" x="650.875365" y="369.463471" style="stroke: #000000; stroke-width: 0.8"/>
      </g>
     </g>
     <g id="text_8">
      <!-- Razón escuelas -->
      <g transform="translate(576.937054 410.256121) rotate(-20) scale(0.1 -0.1)">
       <defs>
        <path id="DejaVuSerif-52" d="M 3066 2316 
Q 3284 2256 3442 2114 
Q 3600 1972 3725 1716 
L 4403 331 
L 4972 331 
L 4972 0 
L 3872 0 
L 3144 1484 
Q 2934 1916 2759 2042 
Q 2584 2169 2278 2169 
L 1581 2169 
L 1581 331 
L 2241 331 
L 2241 0 
L 353 0 
L 353 331 
L 947 331 
L 947 4331 
L 353 4331 
L 353 4666 
L 2719 4666 
Q 3400 4666 3770 4341 
Q 4141 4016 4141 3419 
Q 4141 2938 3870 2661 
Q 3600 2384 3066 2316 
z
M 1581 2503 
L 2503 2503 
Q 2975 2503 3200 2726 
Q 3425 2950 3425 3419 
Q 3425 3888 3200 4109 
Q 2975 4331 2503 4331 
L 1581 4331 
L 1581 2503 
z
" transform="scale(0.015625)"/>
        <path id="DejaVuSerif-7a" d="M 256 0 
L 256 269 
L 2338 2988 
L 691 2988 
L 691 2413 
L 359 2413 
L 359 3322 
L 3078 3322 
L 3078 3053 
L 997 331 
L 2803 331 
L 2803 934 
L 3138 934 
L 3138 0 
L 256 0 
z
" transform="scale(0.015625)"/>
        <path id="DejaVuSerif-f3" d="M 1925 219 
Q 2388 219 2623 584 
Q 2859 950 2859 1663 
Q 2859 2375 2623 2739 
Q 2388 3103 1925 3103 
Q 1463 3103 1227 2739 
Q 991 2375 991 1663 
Q 991 950 1228 584 
Q 1466 219 1925 219 
z
M 1925 -91 
Q 1200 -91 759 389 
Q 319 869 319 1663 
Q 319 2456 758 2934 
Q 1197 3413 1925 3413 
Q 2653 3413 3092 2934 
Q 3531 2456 3531 1663 
Q 3531 869 3092 389 
Q 2653 -91 1925 -91 
z
M 2362 5119 
L 2984 5119 
L 1922 3944 
L 1556 3944 
L 2362 5119 
z
" transform="scale(0.015625)"/>
        <path id="DejaVuSerif-6c" d="M 1313 331 
L 1856 331 
L 1856 0 
L 184 0 
L 184 331 
L 738 331 
L 738 4531 
L 184 4531 
L 184 4863 
L 1313 4863 
L 1313 331 
z
" transform="scale(0.015625)"/>
       </defs>
       <use xlink:href="#DejaVuSerif-52"/>
       <use xlink:href="#DejaVuSerif-61" transform="translate(77.542969 0)"/>
       <use xlink:href="#DejaVuSerif-7a" transform="translate(137.162109 0)"/>
       <use xlink:href="#DejaVuSerif-f3" transform="translate(189.847656 0)"/>
       <use xlink:href="#DejaVuSerif-6e" transform="translate(250.052734 0)"/>
       <use xlink:href="#DejaVuSerif-20" transform="translate(314.457031 0)"/>
       <use xlink:href="#DejaVuSerif-65" transform="translate(346.244141 0)"/>
       <use xlink:href="#DejaVuSerif-73" transform="translate(405.423828 0)"/>
       <use xlink:href="#DejaVuSerif-63" transform="translate(456.742188 0)"/>
       <use xlink:href="#DejaVuSerif-75" transform="translate(512.748047 0)"/>
       <use xlink:href="#DejaVuSerif-65" transform="translate(577.152344 0)"/>
       <use xlink:href="#DejaVuSerif-6c" transform="translate(636.332031 0)"/>
       <use xlink:href="#DejaVuSerif-61" transform="translate(668.314453 0)"/>
       <use xlink:href="#DejaVuSerif-73" transform="translate(727.933594 0)"/>
      </g>
     </g>
    </g>
   </g>
   <g id="matplotlib.axis_2">
    <g id="ytick_1">
     <g id="line2d_9">
      <path d="M 59.49125 365.900739 
L 703.2375 365.900739 
" clip-path="url(#p0866f386e2)" style="fill: none; stroke-dasharray: 0.8,1.32; stroke-dashoffset: 0; stroke: #b0b0b0; stroke-opacity: 0.5; stroke-width: 0.8"/>
     </g>
     <g id="line2d_10">
      <defs>
       <path id="mcd2ffd2f92" d="M 0 0 
L -3.5 0 
" style="stroke: #000000; stroke-width: 0.8"/>
      </defs>
      <g>
       <use xlink:href="#mcd2ffd2f92" x="59.49125" y="365.900739" style="stroke: #000000; stroke-width: 0.8"/>
      </g>
     </g>
     <g id="text_9">
      <!-- −1.25 -->
      <g transform="translate(21.845938 369.699957) scale(0.1 -0.1)">
       <defs>
        <path id="DejaVuSerif-2212" d="M 678 2259 
L 4684 2259 
L 4684 1753 
L 678 1753 
L 678 2259 
z
" transform="scale(0.015625)"/>
        <path id="DejaVuSerif-31" d="M 909 0 
L 909 331 
L 1722 331 
L 1722 4213 
L 781 3603 
L 781 4013 
L 1919 4750 
L 2350 4750 
L 2350 331 
L 3163 331 
L 3163 0 
L 909 0 
z
" transform="scale(0.015625)"/>
        <path id="DejaVuSerif-2e" d="M 603 325 
Q 603 500 722 622 
Q 841 744 1019 744 
Q 1191 744 1312 622 
Q 1434 500 1434 325 
Q 1434 153 1312 31 
Q 1191 -91 1019 -91 
Q 841 -91 722 29 
Q 603 150 603 325 
z
" transform="scale(0.015625)"/>
        <path id="DejaVuSerif-32" d="M 819 3553 
L 469 3553 
L 469 4384 
Q 803 4563 1142 4656 
Q 1481 4750 1806 4750 
Q 2534 4750 2956 4397 
Q 3378 4044 3378 3438 
Q 3378 2753 2422 1800 
Q 2347 1728 2309 1691 
L 1131 513 
L 3078 513 
L 3078 1088 
L 3444 1088 
L 3444 0 
L 434 0 
L 434 341 
L 1850 1753 
Q 2319 2222 2519 2614 
Q 2719 3006 2719 3438 
Q 2719 3909 2473 4175 
Q 2228 4441 1797 4441 
Q 1350 4441 1106 4219 
Q 863 3997 819 3553 
z
" transform="scale(0.015625)"/>
        <path id="DejaVuSerif-35" d="M 3219 4666 
L 3219 4153 
L 1081 4153 
L 1081 2816 
Q 1244 2928 1461 2984 
Q 1678 3041 1947 3041 
Q 2703 3041 3140 2622 
Q 3578 2203 3578 1478 
Q 3578 738 3136 323 
Q 2694 -91 1894 -91 
Q 1572 -91 1234 -12 
Q 897 66 544 225 
L 544 1131 
L 897 1131 
Q 925 688 1179 453 
Q 1434 219 1894 219 
Q 2388 219 2653 544 
Q 2919 869 2919 1478 
Q 2919 2084 2655 2407 
Q 2391 2731 1894 2731 
Q 1613 2731 1398 2631 
Q 1184 2531 1019 2322 
L 750 2322 
L 750 4666 
L 3219 4666 
z
" transform="scale(0.015625)"/>
       </defs>
       <use xlink:href="#DejaVuSerif-2212"/>
       <use xlink:href="#DejaVuSerif-31" transform="translate(83.789062 0)"/>
       <use xlink:href="#DejaVuSerif-2e" transform="translate(147.412109 0)"/>
       <use xlink:href="#DejaVuSerif-32" transform="translate(179.199219 0)"/>
       <use xlink:href="#DejaVuSerif-35" transform="translate(242.822266 0)"/>
      </g>
     </g>
    </g>
    <g id="ytick_2">
     <g id="line2d_11">
      <path d="M 59.49125 321.710863 
L 703.2375 321.710863 
" clip-path="url(#p0866f386e2)" style="fill: none; stroke-dasharray: 0.8,1.32; stroke-dashoffset: 0; stroke: #b0b0b0; stroke-opacity: 0.5; stroke-width: 0.8"/>
     </g>
     <g id="line2d_12">
      <g>
       <use xlink:href="#mcd2ffd2f92" x="59.49125" y="321.710863" style="stroke: #000000; stroke-width: 0.8"/>
      </g>
     </g>
     <g id="text_10">
      <!-- −1.00 -->
      <g transform="translate(21.845938 325.510082) scale(0.1 -0.1)">
       <defs>
        <path id="DejaVuSerif-30" d="M 2034 219 
Q 2513 219 2750 744 
Q 2988 1269 2988 2328 
Q 2988 3391 2750 3916 
Q 2513 4441 2034 4441 
Q 1556 4441 1318 3916 
Q 1081 3391 1081 2328 
Q 1081 1269 1318 744 
Q 1556 219 2034 219 
z
M 2034 -91 
Q 1275 -91 848 546 
Q 422 1184 422 2328 
Q 422 3475 848 4112 
Q 1275 4750 2034 4750 
Q 2797 4750 3222 4112 
Q 3647 3475 3647 2328 
Q 3647 1184 3222 546 
Q 2797 -91 2034 -91 
z
" transform="scale(0.015625)"/>
       </defs>
       <use xlink:href="#DejaVuSerif-2212"/>
       <use xlink:href="#DejaVuSerif-31" transform="translate(83.789062 0)"/>
       <use xlink:href="#DejaVuSerif-2e" transform="translate(147.412109 0)"/>
       <use xlink:href="#DejaVuSerif-30" transform="translate(179.199219 0)"/>
       <use xlink:href="#DejaVuSerif-30" transform="translate(242.822266 0)"/>
      </g>
     </g>
    </g>
    <g id="ytick_3">
     <g id="line2d_13">
      <path d="M 59.49125 277.520988 
L 703.2375 277.520988 
" clip-path="url(#p0866f386e2)" style="fill: none; stroke-dasharray: 0.8,1.32; stroke-dashoffset: 0; stroke: #b0b0b0; stroke-opacity: 0.5; stroke-width: 0.8"/>
     </g>
     <g id="line2d_14">
      <g>
       <use xlink:href="#mcd2ffd2f92" x="59.49125" y="277.520988" style="stroke: #000000; stroke-width: 0.8"/>
      </g>
     </g>
     <g id="text_11">
      <!-- −0.75 -->
      <g transform="translate(21.845938 281.320206) scale(0.1 -0.1)">
       <defs>
        <path id="DejaVuSerif-37" d="M 3609 4347 
L 1784 0 
L 1319 0 
L 3059 4153 
L 903 4153 
L 903 3578 
L 538 3578 
L 538 4666 
L 3609 4666 
L 3609 4347 
z
" transform="scale(0.015625)"/>
       </defs>
       <use xlink:href="#DejaVuSerif-2212"/>
       <use xlink:href="#DejaVuSerif-30" transform="translate(83.789062 0)"/>
       <use xlink:href="#DejaVuSerif-2e" transform="translate(147.412109 0)"/>
       <use xlink:href="#DejaVuSerif-37" transform="translate(179.199219 0)"/>
       <use xlink:href="#DejaVuSerif-35" transform="translate(242.822266 0)"/>
      </g>
     </g>
    </g>
    <g id="ytick_4">
     <g id="line2d_15">
      <path d="M 59.49125 233.331112 
L 703.2375 233.331112 
" clip-path="url(#p0866f386e2)" style="fill: none; stroke-dasharray: 0.8,1.32; stroke-dashoffset: 0; stroke: #b0b0b0; stroke-opacity: 0.5; stroke-width: 0.8"/>
     </g>
     <g id="line2d_16">
      <g>
       <use xlink:href="#mcd2ffd2f92" x="59.49125" y="233.331112" style="stroke: #000000; stroke-width: 0.8"/>
      </g>
     </g>
     <g id="text_12">
      <!-- −0.50 -->
      <g transform="translate(21.845938 237.130331) scale(0.1 -0.1)">
       <use xlink:href="#DejaVuSerif-2212"/>
       <use xlink:href="#DejaVuSerif-30" transform="translate(83.789062 0)"/>
       <use xlink:href="#DejaVuSerif-2e" transform="translate(147.412109 0)"/>
       <use xlink:href="#DejaVuSerif-35" transform="translate(179.199219 0)"/>
       <use xlink:href="#DejaVuSerif-30" transform="translate(242.822266 0)"/>
      </g>
     </g>
    </g>
    <g id="ytick_5">
     <g id="line2d_17">
      <path d="M 59.49125 189.141237 
L 703.2375 189.141237 
" clip-path="url(#p0866f386e2)" style="fill: none; stroke-dasharray: 0.8,1.32; stroke-dashoffset: 0; stroke: #b0b0b0; stroke-opacity: 0.5; stroke-width: 0.8"/>
     </g>
     <g id="line2d_18">
      <g>
       <use xlink:href="#mcd2ffd2f92" x="59.49125" y="189.141237" style="stroke: #000000; stroke-width: 0.8"/>
      </g>
     </g>
     <g id="text_13">
      <!-- −0.25 -->
      <g transform="translate(21.845938 192.940455) scale(0.1 -0.1)">
       <use xlink:href="#DejaVuSerif-2212"/>
       <use xlink:href="#DejaVuSerif-30" transform="translate(83.789062 0)"/>
       <use xlink:href="#DejaVuSerif-2e" transform="translate(147.412109 0)"/>
       <use xlink:href="#DejaVuSerif-32" transform="translate(179.199219 0)"/>
       <use xlink:href="#DejaVuSerif-35" transform="translate(242.822266 0)"/>
      </g>
     </g>
    </g>
    <g id="ytick_6">
     <g id="line2d_19">
      <path d="M 59.49125 144.951361 
L 703.2375 144.951361 
" clip-path="url(#p0866f386e2)" style="fill: none; stroke-dasharray: 0.8,1.32; stroke-dashoffset: 0; stroke: #b0b0b0; stroke-opacity: 0.5; stroke-width: 0.8"/>
     </g>
     <g id="line2d_20">
      <g>
       <use xlink:href="#mcd2ffd2f92" x="59.49125" y="144.951361" style="stroke: #000000; stroke-width: 0.8"/>
      </g>
     </g>
     <g id="text_14">
      <!-- 0.00 -->
      <g transform="translate(30.225625 148.75058) scale(0.1 -0.1)">
       <use xlink:href="#DejaVuSerif-30"/>
       <use xlink:href="#DejaVuSerif-2e" transform="translate(63.623047 0)"/>
       <use xlink:href="#DejaVuSerif-30" transform="translate(95.410156 0)"/>
       <use xlink:href="#DejaVuSerif-30" transform="translate(159.033203 0)"/>
      </g>
     </g>
    </g>
    <g id="ytick_7">
     <g id="line2d_21">
      <path d="M 59.49125 100.761486 
L 703.2375 100.761486 
" clip-path="url(#p0866f386e2)" style="fill: none; stroke-dasharray: 0.8,1.32; stroke-dashoffset: 0; stroke: #b0b0b0; stroke-opacity: 0.5; stroke-width: 0.8"/>
     </g>
     <g id="line2d_22">
      <g>
       <use xlink:href="#mcd2ffd2f92" x="59.49125" y="100.761486" style="stroke: #000000; stroke-width: 0.8"/>
      </g>
     </g>
     <g id="text_15">
      <!-- 0.25 -->
      <g transform="translate(30.225625 104.560705) scale(0.1 -0.1)">
       <use xlink:href="#DejaVuSerif-30"/>
       <use xlink:href="#DejaVuSerif-2e" transform="translate(63.623047 0)"/>
       <use xlink:href="#DejaVuSerif-32" transform="translate(95.410156 0)"/>
       <use xlink:href="#DejaVuSerif-35" transform="translate(159.033203 0)"/>
      </g>
     </g>
    </g>
    <g id="ytick_8">
     <g id="line2d_23">
      <path d="M 59.49125 56.57161 
L 703.2375 56.57161 
" clip-path="url(#p0866f386e2)" style="fill: none; stroke-dasharray: 0.8,1.32; stroke-dashoffset: 0; stroke: #b0b0b0; stroke-opacity: 0.5; stroke-width: 0.8"/>
     </g>
     <g id="line2d_24">
      <g>
       <use xlink:href="#mcd2ffd2f92" x="59.49125" y="56.57161" style="stroke: #000000; stroke-width: 0.8"/>
      </g>
     </g>
     <g id="text_16">
      <!-- 0.50 -->
      <g transform="translate(30.225625 60.370829) scale(0.1 -0.1)">
       <use xlink:href="#DejaVuSerif-30"/>
       <use xlink:href="#DejaVuSerif-2e" transform="translate(63.623047 0)"/>
       <use xlink:href="#DejaVuSerif-35" transform="translate(95.410156 0)"/>
       <use xlink:href="#DejaVuSerif-30" transform="translate(159.033203 0)"/>
      </g>
     </g>
    </g>
    <g id="text_17">
     <!-- Coeficiente (efecto en el índice lineal) -->
     <g transform="translate(15.558281 302.545861) rotate(-90) scale(0.11 -0.11)">
      <defs>
       <path id="DejaVuSerif-43" d="M 4513 1234 
Q 4306 581 3820 245 
Q 3334 -91 2591 -91 
Q 2134 -91 1743 65 
Q 1353 222 1050 525 
Q 700 875 529 1320 
Q 359 1766 359 2328 
Q 359 3416 987 4083 
Q 1616 4750 2644 4750 
Q 3025 4750 3456 4650 
Q 3888 4550 4384 4347 
L 4384 3272 
L 4031 3272 
Q 3916 3859 3567 4137 
Q 3219 4416 2591 4416 
Q 1844 4416 1459 3886 
Q 1075 3356 1075 2328 
Q 1075 1303 1459 773 
Q 1844 244 2591 244 
Q 3113 244 3450 492 
Q 3788 741 3938 1234 
L 4513 1234 
z
" transform="scale(0.015625)"/>
       <path id="DejaVuSerif-66" d="M 2753 4078 
L 2450 4078 
Q 2447 4313 2317 4434 
Q 2188 4556 1941 4556 
Q 1619 4556 1487 4379 
Q 1356 4203 1356 3750 
L 1356 3322 
L 2284 3322 
L 2284 2988 
L 1356 2988 
L 1356 331 
L 2094 331 
L 2094 0 
L 231 0 
L 231 331 
L 781 331 
L 781 2988 
L 231 2988 
L 231 3322 
L 781 3322 
L 781 3738 
Q 781 4294 1070 4578 
Q 1359 4863 1919 4863 
Q 2128 4863 2337 4825 
Q 2547 4788 2753 4709 
L 2753 4078 
z
" transform="scale(0.015625)"/>
       <path id="DejaVuSerif-28" d="M 2041 -997 
Q 1281 -656 893 83 
Q 506 822 506 1931 
Q 506 3044 893 3783 
Q 1281 4522 2041 4863 
L 2041 4556 
Q 1559 4225 1350 3623 
Q 1141 3022 1141 1931 
Q 1141 844 1350 242 
Q 1559 -359 2041 -691 
L 2041 -997 
z
" transform="scale(0.015625)"/>
       <path id="DejaVuSerif-ed" d="M 1356 331 
L 1900 331 
L 1900 0 
L 231 0 
L 231 331 
L 781 331 
L 781 2988 
L 231 2988 
L 231 3322 
L 1356 3322 
L 1356 331 
z
M 1458 5119 
L 2080 5119 
L 1018 3944 
L 652 3944 
L 1458 5119 
z
" transform="scale(0.015625)"/>
       <path id="DejaVuSerif-29" d="M 453 -997 
L 453 -691 
Q 934 -359 1145 242 
Q 1356 844 1356 1931 
Q 1356 3022 1145 3623 
Q 934 4225 453 4556 
L 453 4863 
Q 1216 4522 1603 3783 
Q 1991 3044 1991 1931 
Q 1991 822 1603 83 
Q 1216 -656 453 -997 
z
" transform="scale(0.015625)"/>
      </defs>
      <use xlink:href="#DejaVuSerif-43"/>
      <use xlink:href="#DejaVuSerif-6f" transform="translate(76.513672 0)"/>
      <use xlink:href="#DejaVuSerif-65" transform="translate(136.71875 0)"/>
      <use xlink:href="#DejaVuSerif-66" transform="translate(195.898438 0)"/>
      <use xlink:href="#DejaVuSerif-69" transform="translate(232.910156 0)"/>
      <use xlink:href="#DejaVuSerif-63" transform="translate(264.892578 0)"/>
      <use xlink:href="#DejaVuSerif-69" transform="translate(320.898438 0)"/>
      <use xlink:href="#DejaVuSerif-65" transform="translate(352.880859 0)"/>
      <use xlink:href="#DejaVuSerif-6e" transform="translate(412.060547 0)"/>
      <use xlink:href="#DejaVuSerif-74" transform="translate(476.464844 0)"/>
      <use xlink:href="#DejaVuSerif-65" transform="translate(516.650391 0)"/>
      <use xlink:href="#DejaVuSerif-20" transform="translate(575.830078 0)"/>
      <use xlink:href="#DejaVuSerif-28" transform="translate(607.617188 0)"/>
      <use xlink:href="#DejaVuSerif-65" transform="translate(646.630859 0)"/>
      <use xlink:href="#DejaVuSerif-66" transform="translate(705.810547 0)"/>
      <use xlink:href="#DejaVuSerif-65" transform="translate(742.822266 0)"/>
      <use xlink:href="#DejaVuSerif-63" transform="translate(802.001953 0)"/>
      <use xlink:href="#DejaVuSerif-74" transform="translate(858.007812 0)"/>
      <use xlink:href="#DejaVuSerif-6f" transform="translate(898.193359 0)"/>
      <use xlink:href="#DejaVuSerif-20" transform="translate(958.398438 0)"/>
      <use xlink:href="#DejaVuSerif-65" transform="translate(990.185547 0)"/>
      <use xlink:href="#DejaVuSerif-6e" transform="translate(1049.365234 0)"/>
      <use xlink:href="#DejaVuSerif-20" transform="translate(1113.769531 0)"/>
      <use xlink:href="#DejaVuSerif-65" transform="translate(1145.556641 0)"/>
      <use xlink:href="#DejaVuSerif-6c" transform="translate(1204.736328 0)"/>
      <use xlink:href="#DejaVuSerif-20" transform="translate(1236.71875 0)"/>
      <use xlink:href="#DejaVuSerif-ed" transform="translate(1268.505859 0)"/>
      <use xlink:href="#DejaVuSerif-6e" transform="translate(1300.488281 0)"/>
      <use xlink:href="#DejaVuSerif-64" transform="translate(1364.892578 0)"/>
      <use xlink:href="#DejaVuSerif-69" transform="translate(1428.90625 0)"/>
      <use xlink:href="#DejaVuSerif-63" transform="translate(1460.888672 0)"/>
      <use xlink:href="#DejaVuSerif-65" transform="translate(1516.894531 0)"/>
      <use xlink:href="#DejaVuSerif-20" transform="translate(1576.074219 0)"/>
      <use xlink:href="#DejaVuSerif-6c" transform="translate(1607.861328 0)"/>
      <use xlink:href="#DejaVuSerif-69" transform="translate(1639.84375 0)"/>
      <use xlink:href="#DejaVuSerif-6e" transform="translate(1671.826172 0)"/>
      <use xlink:href="#DejaVuSerif-65" transform="translate(1736.230469 0)"/>
      <use xlink:href="#DejaVuSerif-61" transform="translate(1795.410156 0)"/>
      <use xlink:href="#DejaVuSerif-6c" transform="translate(1855.029297 0)"/>
      <use xlink:href="#DejaVuSerif-29" transform="translate(1887.011719 0)"/>
     </g>
    </g>
   </g>
   <g id="LineCollection_1">
    <path d="M 88.752443 336.250393 
L 88.752443 240.214834 
" clip-path="url(#p0866f386e2)" style="fill: none; stroke: #6c757d"/>
    <path d="M 165.755583 116.563927 
L 165.755583 98.216008 
" clip-path="url(#p0866f386e2)" style="fill: none; stroke: #6c757d"/>
    <path d="M 242.758723 149.201897 
L 242.758723 148.457032 
" clip-path="url(#p0866f386e2)" style="fill: none; stroke: #6c757d"/>
    <path d="M 319.761863 88.973819 
L 319.761863 51.425717 
" clip-path="url(#p0866f386e2)" style="fill: none; stroke: #6c757d"/>
    <path d="M 396.765003 194.412134 
L 396.765003 163.224829 
" clip-path="url(#p0866f386e2)" style="fill: none; stroke: #6c757d"/>
    <path d="M 473.768143 180.466022 
L 473.768143 164.196794 
" clip-path="url(#p0866f386e2)" style="fill: none; stroke: #6c757d"/>
    <path d="M 550.771283 160.620384 
L 550.771283 150.850533 
" clip-path="url(#p0866f386e2)" style="fill: none; stroke: #6c757d"/>
    <path d="M 627.774423 144.142368 
L 627.774423 134.15079 
" clip-path="url(#p0866f386e2)" style="fill: none; stroke: #6c757d"/>
   </g>
   <g id="line2d_25">
    <defs>
     <path id="mdcde433bda" d="M 3 0 
L -3 -0 
" style="stroke: #6c757d; stroke-width: 0.8"/>
    </defs>
    <g clip-path="url(#p0866f386e2)">
     <use xlink:href="#mdcde433bda" x="88.752443" y="336.250393" style="fill: #6c757d; stroke: #6c757d; stroke-width: 0.8"/>
     <use xlink:href="#mdcde433bda" x="165.755583" y="116.563927" style="fill: #6c757d; stroke: #6c757d; stroke-width: 0.8"/>
     <use xlink:href="#mdcde433bda" x="242.758723" y="149.201897" style="fill: #6c757d; stroke: #6c757d; stroke-width: 0.8"/>
     <use xlink:href="#mdcde433bda" x="319.761863" y="88.973819" style="fill: #6c757d; stroke: #6c757d; stroke-width: 0.8"/>
     <use xlink:href="#mdcde433bda" x="396.765003" y="194.412134" style="fill: #6c757d; stroke: #6c757d; stroke-width: 0.8"/>
     <use xlink:href="#mdcde433bda" x="473.768143" y="180.466022" style="fill: #6c757d; stroke: #6c757d; stroke-width: 0.8"/>
     <use xlink:href="#mdcde433bda" x="550.771283" y="160.620384" style="fill: #6c757d; stroke: #6c757d; stroke-width: 0.8"/>
     <use xlink:href="#mdcde433bda" x="627.774423" y="144.142368" style="fill: #6c757d; stroke: #6c757d; stroke-width: 0.8"/>
    </g>
   </g>
   <g id="line2d_26">
    <g clip-path="url(#p0866f386e2)">
     <use xlink:href="#mdcde433bda" x="88.752443" y="240.214834" style="fill: #6c757d; stroke: #6c757d; stroke-width: 0.8"/>
     <use xlink:href="#mdcde433bda" x="165.755583" y="98.216008" style="fill: #6c757d; stroke: #6c757d; stroke-width: 0.8"/>
     <use xlink:href="#mdcde433bda" x="242.758723" y="148.457032" style="fill: #6c757d; stroke: #6c757d; stroke-width: 0.8"/>
     <use xlink:href="#mdcde433bda" x="319.761863" y="51.425717" style="fill: #6c757d; stroke: #6c757d; stroke-width: 0.8"/>
     <use xlink:href="#mdcde433bda" x="396.765003" y="163.224829" style="fill: #6c757d; stroke: #6c757d; stroke-width: 0.8"/>
     <use xlink:href="#mdcde433bda" x="473.768143" y="164.196794" style="fill: #6c757d; stroke: #6c757d; stroke-width: 0.8"/>
     <use xlink:href="#mdcde433bda" x="550.771283" y="150.850533" style="fill: #6c757d; stroke: #6c757d; stroke-width: 0.8"/>
     <use xlink:href="#mdcde433bda" x="627.774423" y="134.15079" style="fill: #6c757d; stroke: #6c757d; stroke-width: 0.8"/>
    </g>
   </g>
   <g id="LineCollection_2">
    <path d="M 104.153071 321.545699 
L 104.153071 253.045877 
" clip-path="url(#p0866f386e2)" style="fill: none; stroke: #2f5d8c"/>
    <path d="M 181.156211 105.49157 
L 181.156211 87.476242 
" clip-path="url(#p0866f386e2)" style="fill: none; stroke: #2f5d8c"/>
    <path d="M 258.159351 148.416371 
L 258.159351 147.740103 
" clip-path="url(#p0866f386e2)" style="fill: none; stroke: #2f5d8c"/>
    <path d="M 335.162491 81.860239 
L 335.162491 53.590031 
" clip-path="url(#p0866f386e2)" style="fill: none; stroke: #2f5d8c"/>
    <path d="M 412.165631 191.024503 
L 412.165631 168.061888 
" clip-path="url(#p0866f386e2)" style="fill: none; stroke: #2f5d8c"/>
    <path d="M 489.168771 180.412457 
L 489.168771 173.583261 
" clip-path="url(#p0866f386e2)" style="fill: none; stroke: #2f5d8c"/>
    <path d="M 566.171911 158.346126 
L 566.171911 150.717327 
" clip-path="url(#p0866f386e2)" style="fill: none; stroke: #2f5d8c"/>
    <path d="M 643.175051 140.859591 
L 643.175051 102.944254 
" clip-path="url(#p0866f386e2)" style="fill: none; stroke: #2f5d8c"/>
   </g>
   <g id="line2d_27">
    <defs>
     <path id="m439b6bd128" d="M 3 0 
L -3 -0 
" style="stroke: #2f5d8c; stroke-width: 0.8"/>
    </defs>
    <g clip-path="url(#p0866f386e2)">
     <use xlink:href="#m439b6bd128" x="104.153071" y="321.545699" style="fill: #2f5d8c; stroke: #2f5d8c; stroke-width: 0.8"/>
     <use xlink:href="#m439b6bd128" x="181.156211" y="105.49157" style="fill: #2f5d8c; stroke: #2f5d8c; stroke-width: 0.8"/>
     <use xlink:href="#m439b6bd128" x="258.159351" y="148.416371" style="fill: #2f5d8c; stroke: #2f5d8c; stroke-width: 0.8"/>
     <use xlink:href="#m439b6bd128" x="335.162491" y="81.860239" style="fill: #2f5d8c; stroke: #2f5d8c; stroke-width: 0.8"/>
     <use xlink:href="#m439b6bd128" x="412.165631" y="191.024503" style="fill: #2f5d8c; stroke: #2f5d8c; stroke-width: 0.8"/>
     <use xlink:href="#m439b6bd128" x="489.168771" y="180.412457" style="fill: #2f5d8c; stroke: #2f5d8c; stroke-width: 0.8"/>
     <use xlink:href="#m439b6bd128" x="566.171911" y="158.346126" style="fill: #2f5d8c; stroke: #2f5d8c; stroke-width: 0.8"/>
     <use xlink:href="#m439b6bd128" x="643.175051" y="140.859591" style="fill: #2f5d8c; stroke: #2f5d8c; stroke-width: 0.8"/>
    </g>
   </g>
   <g id="line2d_28">
    <g clip-path="url(#p0866f386e2)">
     <use xlink:href="#m439b6bd128" x="104.153071" y="253.045877" style="fill: #2f5d8c; stroke: #2f5d8c; stroke-width: 0.8"/>
     <use xlink:href="#m439b6bd128" x="181.156211" y="87.476242" style="fill: #2f5d8c; stroke: #2f5d8c; stroke-width: 0.8"/>
     <use xlink:href="#m439b6bd128" x="258.159351" y="147.740103" style="fill: #2f5d8c; stroke: #2f5d8c; stroke-width: 0.8"/>
     <use xlink:href="#m439b6bd128" x="335.162491" y="53.590031" style="fill: #2f5d8c; stroke: #2f5d8c; stroke-width: 0.8"/>
     <use xlink:href="#m439b6bd128" x="412.165631" y="168.061888" style="fill: #2f5d8c; stroke: #2f5d8c; stroke-width: 0.8"/>
     <use xlink:href="#m439b6bd128" x="489.168771" y="173.583261" style="fill: #2f5d8c; stroke: #2f5d8c; stroke-width: 0.8"/>
     <use xlink:href="#m439b6bd128" x="566.171911" y="150.717327" style="fill: #2f5d8c; stroke: #2f5d8c; stroke-width: 0.8"/>
     <use xlink:href="#m439b6bd128" x="643.175051" y="102.944254" style="fill: #2f5d8c; stroke: #2f5d8c; stroke-width: 0.8"/>
    </g>
   </g>
   <g id="LineCollection_3">
    <path d="M 119.553699 353.749583 
L 119.553699 261.178511 
" clip-path="url(#p0866f386e2)" style="fill: none; stroke: #2c6e49"/>
    <path d="M 196.556839 105.274085 
L 196.556839 77.724491 
" clip-path="url(#p0866f386e2)" style="fill: none; stroke: #2c6e49"/>
    <path d="M 273.559979 151.40886 
L 273.559979 149.965555 
" clip-path="url(#p0866f386e2)" style="fill: none; stroke: #2c6e49"/>
    <path d="M 350.563119 121.595775 
L 350.563119 70.806407 
" clip-path="url(#p0866f386e2)" style="fill: none; stroke: #2c6e49"/>
    <path d="M 427.566259 217.295844 
L 427.566259 178.874691 
" clip-path="url(#p0866f386e2)" style="fill: none; stroke: #2c6e49"/>
    <path d="M 504.569399 183.188189 
L 504.569399 162.07561 
" clip-path="url(#p0866f386e2)" style="fill: none; stroke: #2c6e49"/>
    <path d="M 581.572539 162.195735 
L 581.572539 147.790402 
" clip-path="url(#p0866f386e2)" style="fill: none; stroke: #2c6e49"/>
    <path d="M 658.575679 137.828731 
L 658.575679 126.298921 
" clip-path="url(#p0866f386e2)" style="fill: none; stroke: #2c6e49"/>
   </g>
   <g id="line2d_29">
    <defs>
     <path id="m9b578f0d47" d="M 3 0 
L -3 -0 
" style="stroke: #2c6e49; stroke-width: 0.8"/>
    </defs>
    <g clip-path="url(#p0866f386e2)">
     <use xlink:href="#m9b578f0d47" x="119.553699" y="353.749583" style="fill: #2c6e49; stroke: #2c6e49; stroke-width: 0.8"/>
     <use xlink:href="#m9b578f0d47" x="196.556839" y="105.274085" style="fill: #2c6e49; stroke: #2c6e49; stroke-width: 0.8"/>
     <use xlink:href="#m9b578f0d47" x="273.559979" y="151.40886" style="fill: #2c6e49; stroke: #2c6e49; stroke-width: 0.8"/>
     <use xlink:href="#m9b578f0d47" x="350.563119" y="121.595775" style="fill: #2c6e49; stroke: #2c6e49; stroke-width: 0.8"/>
     <use xlink:href="#m9b578f0d47" x="427.566259" y="217.295844" style="fill: #2c6e49; stroke: #2c6e49; stroke-width: 0.8"/>
     <use xlink:href="#m9b578f0d47" x="504.569399" y="183.188189" style="fill: #2c6e49; stroke: #2c6e49; stroke-width: 0.8"/>
     <use xlink:href="#m9b578f0d47" x="581.572539" y="162.195735" style="fill: #2c6e49; stroke: #2c6e49; stroke-width: 0.8"/>
     <use xlink:href="#m9b578f0d47" x="658.575679" y="137.828731" style="fill: #2c6e49; stroke: #2c6e49; stroke-width: 0.8"/>
    </g>
   </g>
   <g id="line2d_30">
    <g clip-path="url(#p0866f386e2)">
     <use xlink:href="#m9b578f0d47" x="119.553699" y="261.178511" style="fill: #2c6e49; stroke: #2c6e49; stroke-width: 0.8"/>
     <use xlink:href="#m9b578f0d47" x="196.556839" y="77.724491" style="fill: #2c6e49; stroke: #2c6e49; stroke-width: 0.8"/>
     <use xlink:href="#m9b578f0d47" x="273.559979" y="149.965555" style="fill: #2c6e49; stroke: #2c6e49; stroke-width: 0.8"/>
     <use xlink:href="#m9b578f0d47" x="350.563119" y="70.806407" style="fill: #2c6e49; stroke: #2c6e49; stroke-width: 0.8"/>
     <use xlink:href="#m9b578f0d47" x="427.566259" y="178.874691" style="fill: #2c6e49; stroke: #2c6e49; stroke-width: 0.8"/>
     <use xlink:href="#m9b578f0d47" x="504.569399" y="162.07561" style="fill: #2c6e49; stroke: #2c6e49; stroke-width: 0.8"/>
     <use xlink:href="#m9b578f0d47" x="581.572539" y="147.790402" style="fill: #2c6e49; stroke: #2c6e49; stroke-width: 0.8"/>
     <use xlink:href="#m9b578f0d47" x="658.575679" y="126.298921" style="fill: #2c6e49; stroke: #2c6e49; stroke-width: 0.8"/>
    </g>
   </g>
   <g id="LineCollection_4">
    <path d="M 134.954327 329.08032 
L 134.954327 242.329585 
" clip-path="url(#p0866f386e2)" style="fill: none; stroke: #9b2c2c"/>
    <path d="M 211.957467 99.611983 
L 211.957467 77.730288 
" clip-path="url(#p0866f386e2)" style="fill: none; stroke: #9b2c2c"/>
    <path d="M 288.960607 152.12359 
L 288.960607 150.845195 
" clip-path="url(#p0866f386e2)" style="fill: none; stroke: #9b2c2c"/>
    <path d="M 365.963747 78.267142 
L 365.963747 39.471825 
" clip-path="url(#p0866f386e2)" style="fill: none; stroke: #9b2c2c"/>
    <path d="M 442.966887 196.695655 
L 442.966887 168.259152 
" clip-path="url(#p0866f386e2)" style="fill: none; stroke: #9b2c2c"/>
    <path d="M 519.970027 174.869957 
L 519.970027 166.929355 
" clip-path="url(#p0866f386e2)" style="fill: none; stroke: #9b2c2c"/>
    <path d="M 596.973167 164.08282 
L 596.973167 153.419131 
" clip-path="url(#p0866f386e2)" style="fill: none; stroke: #9b2c2c"/>
    <path d="M 673.976307 143.56995 
L 673.976307 102.425712 
" clip-path="url(#p0866f386e2)" style="fill: none; stroke: #9b2c2c"/>
   </g>
   <g id="line2d_31">
    <defs>
     <path id="m59ba6a18de" d="M 3 0 
L -3 -0 
" style="stroke: #9b2c2c; stroke-width: 0.8"/>
    </defs>
    <g clip-path="url(#p0866f386e2)">
     <use xlink:href="#m59ba6a18de" x="134.954327" y="329.08032" style="fill: #9b2c2c; stroke: #9b2c2c; stroke-width: 0.8"/>
     <use xlink:href="#m59ba6a18de" x="211.957467" y="99.611983" style="fill: #9b2c2c; stroke: #9b2c2c; stroke-width: 0.8"/>
     <use xlink:href="#m59ba6a18de" x="288.960607" y="152.12359" style="fill: #9b2c2c; stroke: #9b2c2c; stroke-width: 0.8"/>
     <use xlink:href="#m59ba6a18de" x="365.963747" y="78.267142" style="fill: #9b2c2c; stroke: #9b2c2c; stroke-width: 0.8"/>
     <use xlink:href="#m59ba6a18de" x="442.966887" y="196.695655" style="fill: #9b2c2c; stroke: #9b2c2c; stroke-width: 0.8"/>
     <use xlink:href="#m59ba6a18de" x="519.970027" y="174.869957" style="fill: #9b2c2c; stroke: #9b2c2c; stroke-width: 0.8"/>
     <use xlink:href="#m59ba6a18de" x="596.973167" y="164.08282" style="fill: #9b2c2c; stroke: #9b2c2c; stroke-width: 0.8"/>
     <use xlink:href="#m59ba6a18de" x="673.976307" y="143.56995" style="fill: #9b2c2c; stroke: #9b2c2c; stroke-width: 0.8"/>
    </g>
   </g>
   <g id="line2d_32">
    <g clip-path="url(#p0866f386e2)">
     <use xlink:href="#m59ba6a18de" x="134.954327" y="242.329585" style="fill: #9b2c2c; stroke: #9b2c2c; stroke-width: 0.8"/>
     <use xlink:href="#m59ba6a18de" x="211.957467" y="77.730288" style="fill: #9b2c2c; stroke: #9b2c2c; stroke-width: 0.8"/>
     <use xlink:href="#m59ba6a18de" x="288.960607" y="150.845195" style="fill: #9b2c2c; stroke: #9b2c2c; stroke-width: 0.8"/>
     <use xlink:href="#m59ba6a18de" x="365.963747" y="39.471825" style="fill: #9b2c2c; stroke: #9b2c2c; stroke-width: 0.8"/>
     <use xlink:href="#m59ba6a18de" x="442.966887" y="168.259152" style="fill: #9b2c2c; stroke: #9b2c2c; stroke-width: 0.8"/>
     <use xlink:href="#m59ba6a18de" x="519.970027" y="166.929355" style="fill: #9b2c2c; stroke: #9b2c2c; stroke-width: 0.8"/>
     <use xlink:href="#m59ba6a18de" x="596.973167" y="153.419131" style="fill: #9b2c2c; stroke: #9b2c2c; stroke-width: 0.8"/>
     <use xlink:href="#m59ba6a18de" x="673.976307" y="102.425712" style="fill: #9b2c2c; stroke: #9b2c2c; stroke-width: 0.8"/>
    </g>
   </g>
   <g id="line2d_33">
    <path d="M 59.49125 144.951361 
L 703.2375 144.951361 
" clip-path="url(#p0866f386e2)" style="fill: none; stroke: #000000; stroke-linecap: square"/>
   </g>
   <g id="line2d_34">
    <defs>
     <path id="m1bc24c64e7" d="M 0 3 
C 0.795609 3 1.55874 2.683901 2.12132 2.12132 
C 2.683901 1.55874 3 0.795609 3 0 
C 3 -0.795609 2.683901 -1.55874 2.12132 -2.12132 
C 1.55874 -2.683901 0.795609 -3 0 -3 
C -0.795609 -3 -1.55874 -2.683901 -2.12132 -2.12132 
C -2.683901 -1.55874 -3 -0.795609 -3 0 
C -3 0.795609 -2.683901 1.55874 -2.12132 2.12132 
C -1.55874 2.683901 -0.795609 3 0 3 
z
" style="stroke: #000000; stroke-width: 0.8"/>
    </defs>
    <g clip-path="url(#p0866f386e2)">
     <use xlink:href="#m1bc24c64e7" x="88.752443" y="288.232613" style="fill: #6c757d; stroke: #000000; stroke-width: 0.8"/>
     <use xlink:href="#m1bc24c64e7" x="165.755583" y="107.389967" style="fill: #6c757d; stroke: #000000; stroke-width: 0.8"/>
     <use xlink:href="#m1bc24c64e7" x="242.758723" y="148.829465" style="fill: #6c757d; stroke: #000000; stroke-width: 0.8"/>
     <use xlink:href="#m1bc24c64e7" x="319.761863" y="70.199768" style="fill: #6c757d; stroke: #000000; stroke-width: 0.8"/>
     <use xlink:href="#m1bc24c64e7" x="396.765003" y="178.818482" style="fill: #6c757d; stroke: #000000; stroke-width: 0.8"/>
     <use xlink:href="#m1bc24c64e7" x="473.768143" y="172.331408" style="fill: #6c757d; stroke: #000000; stroke-width: 0.8"/>
     <use xlink:href="#m1bc24c64e7" x="550.771283" y="155.735458" style="fill: #6c757d; stroke: #000000; stroke-width: 0.8"/>
     <use xlink:href="#m1bc24c64e7" x="627.774423" y="139.146579" style="fill: #6c757d; stroke: #000000; stroke-width: 0.8"/>
    </g>
   </g>
   <g id="line2d_35">
    <defs>
     <path id="me6f55a5aca" d="M -3 3 
L 3 3 
L 3 -3 
L -3 -3 
z
" style="stroke: #000000; stroke-width: 0.8; stroke-linejoin: miter"/>
    </defs>
    <g clip-path="url(#p0866f386e2)">
     <use xlink:href="#me6f55a5aca" x="104.153071" y="287.295788" style="fill: #2f5d8c; stroke: #000000; stroke-width: 0.8; stroke-linejoin: miter"/>
     <use xlink:href="#me6f55a5aca" x="181.156211" y="96.483906" style="fill: #2f5d8c; stroke: #000000; stroke-width: 0.8; stroke-linejoin: miter"/>
     <use xlink:href="#me6f55a5aca" x="258.159351" y="148.078237" style="fill: #2f5d8c; stroke: #000000; stroke-width: 0.8; stroke-linejoin: miter"/>
     <use xlink:href="#me6f55a5aca" x="335.162491" y="67.725135" style="fill: #2f5d8c; stroke: #000000; stroke-width: 0.8; stroke-linejoin: miter"/>
     <use xlink:href="#me6f55a5aca" x="412.165631" y="179.543196" style="fill: #2f5d8c; stroke: #000000; stroke-width: 0.8; stroke-linejoin: miter"/>
     <use xlink:href="#me6f55a5aca" x="489.168771" y="176.997859" style="fill: #2f5d8c; stroke: #000000; stroke-width: 0.8; stroke-linejoin: miter"/>
     <use xlink:href="#me6f55a5aca" x="566.171911" y="154.531726" style="fill: #2f5d8c; stroke: #000000; stroke-width: 0.8; stroke-linejoin: miter"/>
     <use xlink:href="#me6f55a5aca" x="643.175051" y="121.901922" style="fill: #2f5d8c; stroke: #000000; stroke-width: 0.8; stroke-linejoin: miter"/>
    </g>
   </g>
   <g id="line2d_36">
    <defs>
     <path id="md643f36b01" d="M 0 -3 
L -3 3 
L 3 3 
z
" style="stroke: #000000; stroke-width: 0.8; stroke-linejoin: miter"/>
    </defs>
    <g clip-path="url(#p0866f386e2)">
     <use xlink:href="#md643f36b01" x="119.553699" y="307.464047" style="fill: #2c6e49; stroke: #000000; stroke-width: 0.8; stroke-linejoin: miter"/>
     <use xlink:href="#md643f36b01" x="196.556839" y="91.499288" style="fill: #2c6e49; stroke: #000000; stroke-width: 0.8; stroke-linejoin: miter"/>
     <use xlink:href="#md643f36b01" x="273.559979" y="150.687207" style="fill: #2c6e49; stroke: #000000; stroke-width: 0.8; stroke-linejoin: miter"/>
     <use xlink:href="#md643f36b01" x="350.563119" y="96.201091" style="fill: #2c6e49; stroke: #000000; stroke-width: 0.8; stroke-linejoin: miter"/>
     <use xlink:href="#md643f36b01" x="427.566259" y="198.085268" style="fill: #2c6e49; stroke: #000000; stroke-width: 0.8; stroke-linejoin: miter"/>
     <use xlink:href="#md643f36b01" x="504.569399" y="172.631899" style="fill: #2c6e49; stroke: #000000; stroke-width: 0.8; stroke-linejoin: miter"/>
     <use xlink:href="#md643f36b01" x="581.572539" y="154.993069" style="fill: #2c6e49; stroke: #000000; stroke-width: 0.8; stroke-linejoin: miter"/>
     <use xlink:href="#md643f36b01" x="658.575679" y="132.063826" style="fill: #2c6e49; stroke: #000000; stroke-width: 0.8; stroke-linejoin: miter"/>
    </g>
   </g>
   <g id="line2d_37">
    <defs>
     <path id="m704a5ff972" d="M -0 4.242641 
L 4.242641 0 
L 0 -4.242641 
L -4.242641 -0 
z
" style="stroke: #000000; stroke-width: 0.8; stroke-linejoin: miter"/>
    </defs>
    <g clip-path="url(#p0866f386e2)">
     <use xlink:href="#m704a5ff972" x="134.954327" y="285.704953" style="fill: #9b2c2c; stroke: #000000; stroke-width: 0.8; stroke-linejoin: miter"/>
     <use xlink:href="#m704a5ff972" x="211.957467" y="88.671136" style="fill: #9b2c2c; stroke: #000000; stroke-width: 0.8; stroke-linejoin: miter"/>
     <use xlink:href="#m704a5ff972" x="288.960607" y="151.484392" style="fill: #9b2c2c; stroke: #000000; stroke-width: 0.8; stroke-linejoin: miter"/>
     <use xlink:href="#m704a5ff972" x="365.963747" y="58.869484" style="fill: #9b2c2c; stroke: #000000; stroke-width: 0.8; stroke-linejoin: miter"/>
     <use xlink:href="#m704a5ff972" x="442.966887" y="182.477403" style="fill: #9b2c2c; stroke: #000000; stroke-width: 0.8; stroke-linejoin: miter"/>
     <use xlink:href="#m704a5ff972" x="519.970027" y="170.899656" style="fill: #9b2c2c; stroke: #000000; stroke-width: 0.8; stroke-linejoin: miter"/>
     <use xlink:href="#m704a5ff972" x="596.973167" y="158.750976" style="fill: #9b2c2c; stroke: #000000; stroke-width: 0.8; stroke-linejoin: miter"/>
     <use xlink:href="#m704a5ff972" x="673.976307" y="122.997831" style="fill: #9b2c2c; stroke: #000000; stroke-width: 0.8; stroke-linejoin: miter"/>
    </g>
   </g>
   <g id="patch_3">
    <path d="M 59.49125 369.463471 
L 59.49125 23.757937 
" style="fill: none; stroke: #000000; stroke-width: 0.8; stroke-linejoin: miter; stroke-linecap: square"/>
   </g>
   <g id="patch_4">
    <path d="M 703.2375 369.463471 
L 703.2375 23.757937 
" style="fill: none; stroke: #000000; stroke-width: 0.8; stroke-linejoin: miter; stroke-linecap: square"/>
   </g>
   <g id="patch_5">
    <path d="M 59.49125 369.463471 
L 703.2375 369.463471 
" style="fill: none; stroke: #000000; stroke-width: 0.8; stroke-linejoin: miter; stroke-linecap: square"/>
   </g>
   <g id="patch_6">
    <path d="M 59.49125 23.757937 
L 703.2375 23.757937 
" style="fill: none; stroke: #000000; stroke-width: 0.8; stroke-linejoin: miter; stroke-linecap: square"/>
   </g>
   <g id="text_18">
    <!-- Comparación de coeficientes entre modelos -->
    <g transform="translate(234.535 17.757937) scale(0.132 -0.132)">
     <use xlink:href="#DejaVuSerif-43"/>
     <use xlink:href="#DejaVuSerif-6f" transform="translate(76.513672 0)"/>
     <use xlink:href="#DejaVuSerif-6d" transform="translate(136.71875 0)"/>
     <use xlink:href="#DejaVuSerif-70" transform="translate(231.542969 0)"/>
     <use xlink:href="#DejaVuSerif-61" transform="translate(295.556641 0)"/>
     <use xlink:href="#DejaVuSerif-72" transform="translate(355.175781 0)"/>
     <use xlink:href="#DejaVuSerif-61" transform="translate(402.978516 0)"/>
     <use xlink:href="#DejaVuSerif-63" transform="translate(462.597656 0)"/>
     <use xlink:href="#DejaVuSerif-69" transform="translate(518.603516 0)"/>
     <use xlink:href="#DejaVuSerif-f3" transform="translate(550.585938 0)"/>
     <use xlink:href="#DejaVuSerif-6e" transform="translate(610.791016 0)"/>
     <use xlink:href="#DejaVuSerif-20" transform="translate(675.195312 0)"/>
     <use xlink:href="#DejaVuSerif-64" transform="translate(706.982422 0)"/>
     <use xlink:href="#DejaVuSerif-65" transform="translate(770.996094 0)"/>
     <use xlink:href="#DejaVuSerif-20" transform="translate(830.175781 0)"/>
     <use xlink:href="#DejaVuSerif-63" transform="translate(861.962891 0)"/>
     <use xlink:href="#DejaVuSerif-6f" transform="translate(917.96875 0)"/>
     <use xlink:href="#DejaVuSerif-65" transform="translate(978.173828 0)"/>
     <use xlink:href="#DejaVuSerif-66" transform="translate(1037.353516 0)"/>
     <use xlink:href="#DejaVuSerif-69" transform="translate(1074.365234 0)"/>
     <use xlink:href="#DejaVuSerif-63" transform="translate(1106.347656 0)"/>
     <use xlink:href="#DejaVuSerif-69" transform="translate(1162.353516 0)"/>
     <use xlink:href="#DejaVuSerif-65" transform="translate(1194.335938 0)"/>
     <use xlink:href="#DejaVuSerif-6e" transform="translate(1253.515625 0)"/>
     <use xlink:href="#DejaVuSerif-74" transform="translate(1317.919922 0)"/>
     <use xlink:href="#DejaVuSerif-65" transform="translate(1358.105469 0)"/>
     <use xlink:href="#DejaVuSerif-73" transform="translate(1417.285156 0)"/>
     <use xlink:href="#DejaVuSerif-20" transform="translate(1468.603516 0)"/>
     <use xlink:href="#DejaVuSerif-65" transform="translate(1500.390625 0)"/>
     <use xlink:href="#DejaVuSerif-6e" transform="translate(1559.570312 0)"/>
     <use xlink:href="#DejaVuSerif-74" transform="translate(1623.974609 0)"/>
     <use xlink:href="#DejaVuSerif-72" transform="translate(1664.160156 0)"/>
     <use xlink:href="#DejaVuSerif-65" transform="translate(1711.962891 0)"/>
     <use xlink:href="#DejaVuSerif-20" transform="translate(1771.142578 0)"/>
     <use xlink:href="#DejaVuSerif-6d" transform="translate(1802.929688 0)"/>
     <use xlink:href="#DejaVuSerif-6f" transform="translate(1897.753906 0)"/>
     <use xlink:href="#DejaVuSerif-64" transform="translate(1957.958984 0)"/>
     <use xlink:href="#DejaVuSerif-65" transform="translate(2021.972656 0)"/>
     <use xlink:href="#DejaVuSerif-6c" transform="translate(2081.152344 0)"/>
     <use xlink:href="#DejaVuSerif-6f" transform="translate(2113.134766 0)"/>
     <use xlink:href="#DejaVuSerif-73" transform="translate(2173.339844 0)"/>
    </g>
   </g>
   <g id="legend_1">
    <g id="patch_7">
     <path d="M 622.566562 83.799187 
L 696.9375 83.799187 
Q 698.7375 83.799187 698.7375 81.999187 
L 698.7375 30.057937 
Q 698.7375 28.257937 696.9375 28.257937 
L 622.566562 28.257937 
Q 620.766562 28.257937 620.766562 30.057937 
L 620.766562 81.999187 
Q 620.766562 83.799187 622.566562 83.799187 
z
" style="fill: #ffffff; opacity: 0.8; stroke: #cccccc; stroke-linejoin: miter"/>
    </g>
    <g id="LineCollection_5">
     <path d="M 633.366562 40.046531 
L 633.366562 31.046531 
" style="fill: none; stroke: #6c757d"/>
    </g>
    <g id="line2d_38">
     <g>
      <use xlink:href="#mdcde433bda" x="633.366562" y="40.046531" style="fill: #6c757d; stroke: #6c757d; stroke-width: 0.8"/>
     </g>
    </g>
    <g id="line2d_39">
     <g>
      <use xlink:href="#mdcde433bda" x="633.366562" y="31.046531" style="fill: #6c757d; stroke: #6c757d; stroke-width: 0.8"/>
     </g>
    </g>
    <g id="line2d_40"/>
    <g id="line2d_41">
     <g>
      <use xlink:href="#m1bc24c64e7" x="633.366562" y="35.546531" style="fill: #6c757d; stroke: #000000; stroke-width: 0.8"/>
     </g>
    </g>
    <g id="text_19">
     <!-- MS 2018 -->
     <g transform="translate(649.566563 38.696531) scale(0.09 -0.09)">
      <defs>
       <path id="DejaVuSerif-4d" d="M 353 0 
L 353 331 
L 947 331 
L 947 4331 
L 319 4331 
L 319 4666 
L 1678 4666 
L 3316 1344 
L 4953 4666 
L 6228 4666 
L 6228 4331 
L 5606 4331 
L 5606 331 
L 6203 331 
L 6203 0 
L 4378 0 
L 4378 331 
L 4972 331 
L 4972 3938 
L 3372 684 
L 2931 684 
L 1331 3938 
L 1331 331 
L 1925 331 
L 1925 0 
L 353 0 
z
" transform="scale(0.015625)"/>
       <path id="DejaVuSerif-53" d="M 594 225 
L 594 1288 
L 953 1284 
Q 969 753 1261 498 
Q 1553 244 2150 244 
Q 2706 244 2998 464 
Q 3291 684 3291 1106 
Q 3291 1444 3114 1625 
Q 2938 1806 2369 1978 
L 1753 2163 
Q 1084 2366 811 2669 
Q 538 2972 538 3500 
Q 538 4094 959 4422 
Q 1381 4750 2144 4750 
Q 2469 4750 2856 4679 
Q 3244 4609 3681 4475 
L 3681 3481 
L 3328 3481 
Q 3275 3975 2998 4195 
Q 2722 4416 2156 4416 
Q 1663 4416 1405 4214 
Q 1147 4013 1147 3628 
Q 1147 3294 1340 3103 
Q 1534 2913 2163 2725 
L 2741 2553 
Q 3375 2363 3645 2067 
Q 3916 1772 3916 1275 
Q 3916 597 3481 253 
Q 3047 -91 2188 -91 
Q 1803 -91 1404 -12 
Q 1006 66 594 225 
z
" transform="scale(0.015625)"/>
       <path id="DejaVuSerif-38" d="M 2981 1275 
Q 2981 1775 2732 2051 
Q 2484 2328 2034 2328 
Q 1584 2328 1336 2051 
Q 1088 1775 1088 1275 
Q 1088 772 1336 495 
Q 1584 219 2034 219 
Q 2484 219 2732 495 
Q 2981 772 2981 1275 
z
M 2853 3541 
Q 2853 3966 2637 4203 
Q 2422 4441 2034 4441 
Q 1650 4441 1433 4203 
Q 1216 3966 1216 3541 
Q 1216 3113 1433 2875 
Q 1650 2638 2034 2638 
Q 2422 2638 2637 2875 
Q 2853 3113 2853 3541 
z
M 2516 2484 
Q 3047 2413 3344 2092 
Q 3641 1772 3641 1275 
Q 3641 619 3225 264 
Q 2809 -91 2034 -91 
Q 1263 -91 845 264 
Q 428 619 428 1275 
Q 428 1772 725 2092 
Q 1022 2413 1556 2484 
Q 1084 2569 832 2842 
Q 581 3116 581 3541 
Q 581 4103 968 4426 
Q 1356 4750 2034 4750 
Q 2713 4750 3100 4426 
Q 3488 4103 3488 3541 
Q 3488 3116 3236 2842 
Q 2984 2569 2516 2484 
z
" transform="scale(0.015625)"/>
      </defs>
      <use xlink:href="#DejaVuSerif-4d"/>
      <use xlink:href="#DejaVuSerif-53" transform="translate(102.392578 0)"/>
      <use xlink:href="#DejaVuSerif-20" transform="translate(170.898438 0)"/>
      <use xlink:href="#DejaVuSerif-32" transform="translate(202.685547 0)"/>
      <use xlink:href="#DejaVuSerif-30" transform="translate(266.308594 0)"/>
      <use xlink:href="#DejaVuSerif-31" transform="translate(329.931641 0)"/>
      <use xlink:href="#DejaVuSerif-38" transform="translate(393.554688 0)"/>
     </g>
    </g>
    <g id="LineCollection_6">
     <path d="M 633.366562 53.256844 
L 633.366562 44.256844 
" style="fill: none; stroke: #2f5d8c"/>
    </g>
    <g id="line2d_42">
     <g>
      <use xlink:href="#m439b6bd128" x="633.366562" y="53.256844" style="fill: #2f5d8c; stroke: #2f5d8c; stroke-width: 0.8"/>
     </g>
    </g>
    <g id="line2d_43">
     <g>
      <use xlink:href="#m439b6bd128" x="633.366562" y="44.256844" style="fill: #2f5d8c; stroke: #2f5d8c; stroke-width: 0.8"/>
     </g>
    </g>
    <g id="line2d_44"/>
    <g id="line2d_45">
     <g>
      <use xlink:href="#me6f55a5aca" x="633.366562" y="48.756844" style="fill: #2f5d8c; stroke: #000000; stroke-width: 0.8; stroke-linejoin: miter"/>
     </g>
    </g>
    <g id="text_20">
     <!-- SUP 2018 -->
     <g transform="translate(649.566563 51.906844) scale(0.09 -0.09)">
      <defs>
       <path id="DejaVuSerif-55" d="M 897 4331 
L 300 4331 
L 300 4666 
L 2125 4666 
L 2125 4331 
L 1528 4331 
L 1528 1919 
Q 1528 1025 1820 672 
Q 2113 319 2828 319 
Q 3544 319 3836 672 
Q 4128 1025 4128 1919 
L 4128 4331 
L 3531 4331 
L 3531 4666 
L 5106 4666 
L 5106 4331 
L 4513 4331 
L 4513 1856 
Q 4513 791 4103 350 
Q 3694 -91 2713 -91 
Q 1731 -91 1314 353 
Q 897 797 897 1856 
L 897 4331 
z
" transform="scale(0.015625)"/>
       <path id="DejaVuSerif-50" d="M 1581 2375 
L 2406 2375 
Q 2872 2375 3115 2626 
Q 3359 2878 3359 3353 
Q 3359 3831 3115 4081 
Q 2872 4331 2406 4331 
L 1581 4331 
L 1581 2375 
z
M 353 0 
L 353 331 
L 947 331 
L 947 4331 
L 353 4331 
L 353 4666 
L 2559 4666 
Q 3259 4666 3668 4311 
Q 4078 3956 4078 3353 
Q 4078 2753 3668 2397 
Q 3259 2041 2559 2041 
L 1581 2041 
L 1581 331 
L 2303 331 
L 2303 0 
L 353 0 
z
" transform="scale(0.015625)"/>
      </defs>
      <use xlink:href="#DejaVuSerif-53"/>
      <use xlink:href="#DejaVuSerif-55" transform="translate(68.505859 0)"/>
      <use xlink:href="#DejaVuSerif-50" transform="translate(152.783203 0)"/>
      <use xlink:href="#DejaVuSerif-20" transform="translate(220.068359 0)"/>
      <use xlink:href="#DejaVuSerif-32" transform="translate(251.855469 0)"/>
      <use xlink:href="#DejaVuSerif-30" transform="translate(315.478516 0)"/>
      <use xlink:href="#DejaVuSerif-31" transform="translate(379.101562 0)"/>
      <use xlink:href="#DejaVuSerif-38" transform="translate(442.724609 0)"/>
     </g>
    </g>
    <g id="LineCollection_7">
     <path d="M 633.366562 66.467156 
L 633.366562 57.467156 
" style="fill: none; stroke: #2c6e49"/>
    </g>
    <g id="line2d_46">
     <g>
      <use xlink:href="#m9b578f0d47" x="633.366562" y="66.467156" style="fill: #2c6e49; stroke: #2c6e49; stroke-width: 0.8"/>
     </g>
    </g>
    <g id="line2d_47">
     <g>
      <use xlink:href="#m9b578f0d47" x="633.366562" y="57.467156" style="fill: #2c6e49; stroke: #2c6e49; stroke-width: 0.8"/>
     </g>
    </g>
    <g id="line2d_48"/>
    <g id="line2d_49">
     <g>
      <use xlink:href="#md643f36b01" x="633.366562" y="61.967156" style="fill: #2c6e49; stroke: #000000; stroke-width: 0.8; stroke-linejoin: miter"/>
     </g>
    </g>
    <g id="text_21">
     <!-- MS 2024 -->
     <g transform="translate(649.566563 65.117156) scale(0.09 -0.09)">
      <defs>
       <path id="DejaVuSerif-34" d="M 2234 1581 
L 2234 4063 
L 641 1581 
L 2234 1581 
z
M 3609 0 
L 1484 0 
L 1484 331 
L 2234 331 
L 2234 1247 
L 197 1247 
L 197 1588 
L 2241 4750 
L 2859 4750 
L 2859 1581 
L 3750 1581 
L 3750 1247 
L 2859 1247 
L 2859 331 
L 3609 331 
L 3609 0 
z
" transform="scale(0.015625)"/>
      </defs>
      <use xlink:href="#DejaVuSerif-4d"/>
      <use xlink:href="#DejaVuSerif-53" transform="translate(102.392578 0)"/>
      <use xlink:href="#DejaVuSerif-20" transform="translate(170.898438 0)"/>
      <use xlink:href="#DejaVuSerif-32" transform="translate(202.685547 0)"/>
      <use xlink:href="#DejaVuSerif-30" transform="translate(266.308594 0)"/>
      <use xlink:href="#DejaVuSerif-32" transform="translate(329.931641 0)"/>
      <use xlink:href="#DejaVuSerif-34" transform="translate(393.554688 0)"/>
     </g>
    </g>
    <g id="LineCollection_8">
     <path d="M 633.366562 79.677469 
L 633.366562 70.677469 
" style="fill: none; stroke: #9b2c2c"/>
    </g>
    <g id="line2d_50">
     <g>
      <use xlink:href="#m59ba6a18de" x="633.366562" y="79.677469" style="fill: #9b2c2c; stroke: #9b2c2c; stroke-width: 0.8"/>
     </g>
    </g>
    <g id="line2d_51">
     <g>
      <use xlink:href="#m59ba6a18de" x="633.366562" y="70.677469" style="fill: #9b2c2c; stroke: #9b2c2c; stroke-width: 0.8"/>
     </g>
    </g>
    <g id="line2d_52"/>
    <g id="line2d_53">
     <g>
      <use xlink:href="#m704a5ff972" x="633.366562" y="75.177469" style="fill: #9b2c2c; stroke: #000000; stroke-width: 0.8; stroke-linejoin: miter"/>
     </g>
    </g>
    <g id="text_22">
     <!-- SUP 2024 -->
     <g transform="translate(649.566563 78.327469) scale(0.09 -0.09)">
      <use xlink:href="#DejaVuSerif-53"/>
      <use xlink:href="#DejaVuSerif-55" transform="translate(68.505859 0)"/>
      <use xlink:href="#DejaVuSerif-50" transform="translate(152.783203 0)"/>
      <use xlink:href="#DejaVuSerif-20" transform="translate(220.068359 0)"/>
      <use xlink:href="#DejaVuSerif-32" transform="translate(251.855469 0)"/>
      <use xlink:href="#DejaVuSerif-30" transform="translate(315.478516 0)"/>
      <use xlink:href="#DejaVuSerif-32" transform="translate(379.101562 0)"/>
      <use xlink:href="#DejaVuSerif-34" transform="translate(442.724609 0)"/>
     </g>
    </g>
   </g>
  </g>
 </g>
 <defs>
  <clipPath id="p0866f386e2">
   <rect x="59.49125" y="23.757937" width="643.74625" height="345.705534"/>
  </clipPath>
 </defs>
</svg>
