<?xml version="1.0" encoding="UTF-8" standalone="no"?>
<!DOCTYPE svg PUBLIC "-//W3C//DTD SVG 1.1//EN"
 "http://www.w3.org/Graphics/SVG/1.1/DTD/svg11.dtd">
<!-- Generated by graphviz version 14.1.4 (20260321.0153)
 -->
<!-- Pages: 1 -->
<svg width="1209pt" height="862pt"
 viewBox="0.00 0.00 1209.00 862.00" xmlns="http://www.w3.org/2000/svg" xmlns:xlink="http://www.w3.org/1999/xlink">
<g id="graph0" class="graph" transform="scale(1 1) rotate(0) translate(4 858)">
<polygon fill="white" stroke="none" points="-4,4 -4,-858 1204.97,-858 1204.97,4 -4,4"/>
<g id="clust1" class="cluster">
<title>cluster_sources</title>
<path fill="none" stroke="black" d="M32.38,-8C32.38,-8 180.62,-8 180.62,-8 186.62,-8 192.62,-14 192.62,-20 192.62,-20 192.62,-246 192.62,-246 192.62,-252 186.62,-258 180.62,-258 180.62,-258 32.38,-258 32.38,-258 26.37,-258 20.38,-252 20.38,-246 20.38,-246 20.38,-20 20.38,-20 20.38,-14 26.38,-8 32.38,-8"/>
<text xml:space="preserve" text-anchor="middle" x="106.5" y="-243.55" font-family="Times New Roman" font-size="11.00">Data Sources</text>
</g>
<g id="clust2" class="cluster">
<title>cluster_determinants</title>
<path fill="none" stroke="black" d="M20,-272C20,-272 487.47,-272 487.47,-272 493.47,-272 499.47,-278 499.47,-284 499.47,-284 499.47,-834 499.47,-834 499.47,-840 493.47,-846 487.47,-846 487.47,-846 20,-846 20,-846 14,-846 8,-840 8,-834 8,-834 8,-284 8,-284 8,-278 14,-272 20,-272"/>
<text xml:space="preserve" text-anchor="middle" x="253.73" y="-831.55" font-family="Times New Roman" font-size="11.00">Determinants of School Attendance</text>
</g>
<g id="clust3" class="cluster">
<title>cluster_models</title>
<path fill="none" stroke="black" d="M567.47,-110C567.47,-110 699.97,-110 699.97,-110 705.97,-110 711.97,-116 711.97,-122 711.97,-122 711.97,-428 711.97,-428 711.97,-434 705.97,-440 699.97,-440 699.97,-440 567.47,-440 567.47,-440 561.47,-440 555.47,-434 555.47,-428 555.47,-428 555.47,-122 555.47,-122 555.47,-116 561.47,-110 567.47,-110"/>
<text xml:space="preserve" text-anchor="middle" x="633.72" y="-425.55" font-family="Times New Roman" font-size="11.00">Econometric Models</text>
</g>
<!-- ENIGH -->
<g id="node1" class="node">
<title>ENIGH</title>
<polygon fill="#e9ecef" stroke="black" points="177.88,-57.5 35.12,-57.5 35.12,-16.5 177.88,-16.5 177.88,-57.5"/>
<text xml:space="preserve" text-anchor="middle" x="106.5" y="-40.2" font-family="Times,serif" font-size="14.00">ENIGH 2018 and 2024</text>
<text xml:space="preserve" text-anchor="middle" x="106.5" y="-23.7" font-family="Times,serif" font-size="14.00">(INEGI)</text>
</g>
<!-- CONAPO 2018 and 2024 -->
<g id="node2" class="node">
<title>CONAPO 2018 and 2024</title>
<polygon fill="#e9ecef" stroke="black" points="184.62,-144 28.38,-144 28.38,-108 184.62,-108 184.62,-144"/>
<text xml:space="preserve" text-anchor="middle" x="106.5" y="-120.95" font-family="Times,serif" font-size="14.00">CONAPO 2018 and 2024</text>
</g>
<!-- SIGED 2018 and 2024 -->
<g id="node3" class="node">
<title>SIGED 2018 and 2024</title>
<polygon fill="#e9ecef" stroke="black" points="176.75,-230 36.25,-230 36.25,-194 176.75,-194 176.75,-230"/>
<text xml:space="preserve" text-anchor="middle" x="106.5" y="-206.95" font-family="Times,serif" font-size="14.00">SIGED 2018 and 2024</text>
</g>
<!-- socio -->
<g id="node4" class="node">
<title>socio</title>
<polygon fill="#e9ecef" stroke="black" points="176.75,-817.75 36.25,-817.75 36.25,-760.25 176.75,-760.25 176.75,-817.75"/>
<text xml:space="preserve" text-anchor="middle" x="106.5" y="-800.45" font-family="Times,serif" font-size="14.00">Socioeconomic factors</text>
<text xml:space="preserve" text-anchor="middle" x="106.5" y="-783.95" font-family="Times,serif" font-size="14.00">• Log Income</text>
<text xml:space="preserve" text-anchor="middle" x="106.5" y="-767.45" font-family="Times,serif" font-size="14.00">• Non&#45;study hours</text>
</g>
<!-- X -->
<g id="node9" class="node">
<title>X</title>
<ellipse fill="#6c757d" stroke="black" cx="380.23" cy="-394" rx="111.23" ry="18"/>
<text xml:space="preserve" text-anchor="middle" x="380.23" y="-388.95" font-family="Times,serif" font-size="14.00" fill="white">Vector of determinants (X)</text>
</g>
<!-- socio&#45;&gt;X -->
<g id="edge1" class="edge">
<title>socio&#45;&gt;X</title>
<path fill="none" stroke="black" d="M176.95,-789C268.55,-789 416.97,-789 416.97,-789 416.97,-789 416.97,-422.74 416.97,-422.74"/>
<polygon fill="black" stroke="black" points="420.47,-422.74 416.97,-412.74 413.47,-422.74 420.47,-422.74"/>
</g>
<!-- demo -->
<g id="node5" class="node">
<title>demo</title>
<polygon fill="#e9ecef" stroke="black" points="171.88,-387.5 41.12,-387.5 41.12,-280.5 171.88,-280.5 171.88,-387.5"/>
<text xml:space="preserve" text-anchor="middle" x="106.5" y="-370.2" font-family="Times,serif" font-size="14.00">Demographic factors</text>
<text xml:space="preserve" text-anchor="middle" x="106.5" y="-353.7" font-family="Times,serif" font-size="14.00">• Age</text>
<text xml:space="preserve" text-anchor="middle" x="106.5" y="-337.2" font-family="Times,serif" font-size="14.00">• Sex</text>
<text xml:space="preserve" text-anchor="middle" x="106.5" y="-320.7" font-family="Times,serif" font-size="14.00">• Disability</text>
<text xml:space="preserve" text-anchor="middle" x="106.5" y="-304.2" font-family="Times,serif" font-size="14.00">• Indigenous status</text>
<text xml:space="preserve" text-anchor="middle" x="106.5" y="-287.7" font-family="Times,serif" font-size="14.00">• Household size</text>
</g>
<!-- demo&#45;&gt;X -->
<g id="edge2" class="edge">
<title>demo&#45;&gt;X</title>
<path fill="none" stroke="black" d="M172.07,-381.75C172.07,-381.75 285,-381.75 285,-381.75"/>
<polygon fill="black" stroke="black" points="285,-385.25 295,-381.75 285,-378.25 285,-385.25"/>
</g>
<!-- inst -->
<g id="node6" class="node">
<title>inst</title>
<polygon fill="#e9ecef" stroke="black" points="171.12,-528.25 41.88,-528.25 41.88,-437.75 171.12,-437.75 171.12,-528.25"/>
<text xml:space="preserve" text-anchor="middle" x="106.5" y="-510.95" font-family="Times,serif" font-size="14.00">Institutional factors</text>
<text xml:space="preserve" text-anchor="middle" x="106.5" y="-494.45" font-family="Times,serif" font-size="14.00">• Internet access</text>
<text xml:space="preserve" text-anchor="middle" x="106.5" y="-477.95" font-family="Times,serif" font-size="14.00">• Region</text>
<text xml:space="preserve" text-anchor="middle" x="106.5" y="-461.45" font-family="Times,serif" font-size="14.00">• School Availability</text>
<text xml:space="preserve" text-anchor="middle" x="106.5" y="-444.95" font-family="Times,serif" font-size="14.00">• Urban / rural</text>
</g>
<!-- inst&#45;&gt;X -->
<g id="edge3" class="edge">
<title>inst&#45;&gt;X</title>
<path fill="none" stroke="black" d="M106.97,-437.29C106.97,-416.16 106.97,-395.67 106.97,-395.67 106.97,-395.67 257.57,-395.67 257.57,-395.67"/>
<polygon fill="black" stroke="black" points="257.57,-399.17 267.57,-395.67 257.57,-392.17 257.57,-399.17"/>
</g>
<!-- labor -->
<g id="node7" class="node">
<title>labor</title>
<polygon fill="#e9ecef" stroke="black" points="171.88,-619.5 41.12,-619.5 41.12,-578.5 171.88,-578.5 171.88,-619.5"/>
<text xml:space="preserve" text-anchor="middle" x="106.5" y="-602.2" font-family="Times,serif" font-size="14.00">Labor market factors</text>
<text xml:space="preserve" text-anchor="middle" x="106.5" y="-585.7" font-family="Times,serif" font-size="14.00">• Opportunity cost</text>
</g>
<!-- labor&#45;&gt;X -->
<g id="edge4" class="edge">
<title>labor&#45;&gt;X</title>
<path fill="none" stroke="black" d="M172.37,-599C242.34,-599 342.97,-599 342.97,-599 342.97,-599 342.97,-422.64 342.97,-422.64"/>
<polygon fill="black" stroke="black" points="346.47,-422.64 342.97,-412.64 339.47,-422.64 346.47,-422.64"/>
</g>
<!-- intergen -->
<g id="node8" class="node">
<title>intergen</title>
<polygon fill="#e9ecef" stroke="black" points="197,-710.5 16,-710.5 16,-669.5 197,-669.5 197,-710.5"/>
<text xml:space="preserve" text-anchor="middle" x="106.5" y="-693.2" font-family="Times,serif" font-size="14.00">Intergenerational transmission</text>
<text xml:space="preserve" text-anchor="middle" x="106.5" y="-676.7" font-family="Times,serif" font-size="14.00">• Parental education</text>
</g>
<!-- intergen&#45;&gt;X -->
<g id="edge5" class="edge">
<title>intergen&#45;&gt;X</title>
<path fill="none" stroke="black" d="M190.97,-669.42C190.97,-603.8 190.97,-403.83 190.97,-403.83 190.97,-403.83 274.09,-403.83 274.09,-403.83"/>
<polygon fill="black" stroke="black" points="274.09,-407.33 284.09,-403.83 274.09,-400.33 274.09,-407.33"/>
</g>
<!-- m1 -->
<g id="node12" class="node">
<title>m1</title>
<polygon fill="#6c757d" stroke="black" points="703.22,-154 564.22,-154 564.22,-118 703.22,-118 703.22,-154"/>
<text xml:space="preserve" text-anchor="middle" x="633.72" y="-130.95" font-family="Times,serif" font-size="14.00" fill="white">Upper secondary 2018</text>
</g>
<!-- X&#45;&gt;m1 -->
<g id="edge6" class="edge">
<title>X&#45;&gt;m1</title>
<path fill="none" stroke="black" d="M466.97,-382.36C466.97,-332.39 466.97,-138.57 466.97,-138.57 466.97,-138.57 552.45,-138.57 552.45,-138.57"/>
<polygon fill="black" stroke="black" points="552.45,-142.07 562.45,-138.57 552.45,-135.07 552.45,-142.07"/>
</g>
<!-- m2 -->
<g id="node13" class="node">
<title>m2</title>
<polygon fill="#2f5d8c" stroke="black" points="703.97,-240 563.47,-240 563.47,-204 703.97,-204 703.97,-240"/>
<text xml:space="preserve" text-anchor="middle" x="633.72" y="-216.95" font-family="Times,serif" font-size="14.00" fill="white">Higher education 2018</text>
</g>
<!-- X&#45;&gt;m2 -->
<g id="edge9" class="edge">
<title>X&#45;&gt;m2</title>
<path fill="none" stroke="black" d="M476.97,-384.8C476.97,-350.42 476.97,-231.5 476.97,-231.5 476.97,-231.5 551.62,-231.5 551.62,-231.5"/>
<polygon fill="black" stroke="black" points="551.62,-235 561.62,-231.5 551.62,-228 551.62,-235"/>
</g>
<!-- m3 -->
<g id="node14" class="node">
<title>m3</title>
<polygon fill="#6c757d" stroke="black" points="703.22,-326 564.22,-326 564.22,-290 703.22,-290 703.22,-326"/>
<text xml:space="preserve" text-anchor="middle" x="633.72" y="-302.95" font-family="Times,serif" font-size="14.00" fill="white">Upper secondary 2024</text>
</g>
<!-- X&#45;&gt;m3 -->
<g id="edge12" class="edge">
<title>X&#45;&gt;m3</title>
<path fill="none" stroke="black" d="M486.97,-388.75C486.97,-370.95 486.97,-314 486.97,-314 486.97,-314 552.27,-314 552.27,-314"/>
<polygon fill="black" stroke="black" points="552.27,-317.5 562.27,-314 552.27,-310.5 552.27,-317.5"/>
</g>
<!-- m4 -->
<g id="node15" class="node">
<title>m4</title>
<polygon fill="#2f5d8c" stroke="black" points="703.97,-412 563.47,-412 563.47,-376 703.97,-376 703.97,-412"/>
<text xml:space="preserve" text-anchor="middle" x="633.72" y="-388.95" font-family="Times,serif" font-size="14.00" fill="white">Higher education 2024</text>
</g>
<!-- X&#45;&gt;m4 -->
<g id="edge15" class="edge">
<title>X&#45;&gt;m4</title>
<path fill="none" stroke="black" d="M477.51,-403C477.51,-403 551.55,-403 551.55,-403"/>
<polygon fill="black" stroke="black" points="551.55,-406.5 561.55,-403 551.55,-399.5 551.55,-406.5"/>
</g>
<!-- Y -->
<g id="node10" class="node">
<title>Y</title>
<ellipse fill="#6c757d" stroke="black" cx="380.23" cy="-235" rx="81.32" ry="28.99"/>
<text xml:space="preserve" text-anchor="middle" x="380.23" y="-238.2" font-family="Times,serif" font-size="14.00" fill="white">School attendance</text>
<text xml:space="preserve" text-anchor="middle" x="380.23" y="-221.7" font-family="Times,serif" font-size="14.00" fill="white">(binary)</text>
</g>
<!-- Y&#45;&gt;m1 -->
<g id="edge7" class="edge">
<title>Y&#45;&gt;m1</title>
<path fill="none" stroke="black" d="M454.97,-223.35C454.97,-196.67 454.97,-133.43 454.97,-133.43 454.97,-133.43 552.32,-133.43 552.32,-133.43"/>
<polygon fill="black" stroke="black" points="552.33,-136.93 562.32,-133.43 552.32,-129.93 552.33,-136.93"/>
</g>
<!-- Y&#45;&gt;m2 -->
<g id="edge10" class="edge">
<title>Y&#45;&gt;m2</title>
<path fill="none" stroke="black" d="M454.92,-223C454.92,-223 551.53,-223 551.53,-223"/>
<polygon fill="black" stroke="black" points="551.53,-226.5 561.53,-223 551.53,-219.5 551.53,-226.5"/>
</g>
<!-- Y&#45;&gt;m3 -->
<g id="edge13" class="edge">
<title>Y&#45;&gt;m3</title>
<path fill="none" stroke="black" d="M442.04,-254.25C506.72,-254.25 598.97,-254.25 598.97,-254.25 598.97,-254.25 598.97,-277.99 598.97,-277.99"/>
<polygon fill="black" stroke="black" points="595.47,-277.99 598.97,-287.99 602.47,-277.99 595.47,-277.99"/>
</g>
<!-- Y&#45;&gt;m4 -->
<g id="edge16" class="edge">
<title>Y&#45;&gt;m4</title>
<path fill="none" stroke="black" d="M426.98,-259.12C465.89,-259.12 514.97,-259.12 514.97,-259.12 514.97,-259.12 514.97,-394 514.97,-394 514.97,-394 551.75,-394 551.75,-394"/>
<polygon fill="black" stroke="black" points="551.75,-397.5 561.75,-394 551.75,-390.5 551.75,-397.5"/>
</g>
<!-- survey -->
<g id="node11" class="node">
<title>survey</title>
<polygon fill="#e9ecef" stroke="black" points="448.23,-156.5 312.23,-156.5 312.23,-115.5 448.23,-115.5 448.23,-156.5"/>
<text xml:space="preserve" text-anchor="middle" x="380.23" y="-139.2" font-family="Times,serif" font-size="14.00">Survey design</text>
<text xml:space="preserve" text-anchor="middle" x="380.23" y="-122.7" font-family="Times,serif" font-size="14.00">(weights, strata, PSU)</text>
</g>
<!-- survey&#45;&gt;m1 -->
<g id="edge8" class="edge">
<title>survey&#45;&gt;m1</title>
<path fill="none" stroke="black" stroke-dasharray="5,2" d="M448.5,-123.14C448.5,-123.14 552.49,-123.14 552.49,-123.14"/>
<polygon fill="black" stroke="black" points="552.49,-126.64 562.49,-123.14 552.49,-119.64 552.49,-126.64"/>
</g>
<!-- survey&#45;&gt;m2 -->
<g id="edge11" class="edge">
<title>survey&#45;&gt;m2</title>
<path fill="none" stroke="black" stroke-dasharray="5,2" d="M448.65,-143.71C467.06,-143.71 481.97,-143.71 481.97,-143.71 481.97,-143.71 481.97,-214.51 481.97,-214.51 481.97,-214.51 551.66,-214.51 551.66,-214.51"/>
<polygon fill="black" stroke="black" points="551.66,-218.01 561.66,-214.51 551.66,-211.01 551.66,-218.01"/>
</g>
<!-- survey&#45;&gt;m3 -->
<g id="edge14" class="edge">
<title>survey&#45;&gt;m3</title>
<path fill="none" stroke="black" stroke-dasharray="5,2" d="M448.34,-148.86C461.85,-148.86 471.97,-148.86 471.97,-148.86 471.97,-148.86 471.97,-302 471.97,-302 471.97,-302 552.67,-302 552.67,-302"/>
<polygon fill="black" stroke="black" points="552.67,-305.5 562.67,-302 552.67,-298.5 552.67,-305.5"/>
</g>
<!-- survey&#45;&gt;m4 -->
<g id="edge17" class="edge">
<title>survey&#45;&gt;m4</title>
<path fill="none" stroke="black" stroke-dasharray="5,2" d="M448.47,-128.29C491.49,-128.29 538.97,-128.29 538.97,-128.29 538.97,-128.29 538.97,-385 538.97,-385 538.97,-385 551.85,-385 551.85,-385"/>
<polygon fill="black" stroke="black" points="551.85,-388.5 561.85,-385 551.85,-381.5 551.85,-388.5"/>
</g>
<!-- estimation -->
<g id="node16" class="node">
<title>estimation</title>
<polygon fill="#e9ecef" stroke="black" points="974.97,-285.5 775.97,-285.5 775.97,-244.5 974.97,-244.5 974.97,-285.5"/>
<text xml:space="preserve" text-anchor="middle" x="875.47" y="-268.2" font-family="Times,serif" font-size="14.00">Probit and Heteroskedastic Probit</text>
<text xml:space="preserve" text-anchor="middle" x="875.47" y="-251.7" font-family="Times,serif" font-size="14.00">(survey&#45;weighted)</text>
</g>
<!-- m1&#45;&gt;estimation -->
<g id="edge18" class="edge">
<title>m1&#45;&gt;estimation</title>
<path fill="none" stroke="black" d="M703.5,-136C774.75,-136 874.97,-136 874.97,-136 874.97,-136 874.97,-232.76 874.97,-232.76"/>
<polygon fill="black" stroke="black" points="871.47,-232.76 874.97,-242.76 878.47,-232.76 871.47,-232.76"/>
</g>
<!-- m2&#45;&gt;estimation -->
<g id="edge19" class="edge">
<title>m2&#45;&gt;estimation</title>
<path fill="none" stroke="black" d="M633.97,-240.41C633.97,-245.36 633.97,-249.37 633.97,-249.37 633.97,-249.37 763.98,-249.37 763.98,-249.37"/>
<polygon fill="black" stroke="black" points="763.98,-252.87 773.98,-249.37 763.98,-245.87 763.98,-252.87"/>
</g>
<!-- m3&#45;&gt;estimation -->
<g id="edge20" class="edge">
<title>m3&#45;&gt;estimation</title>
<path fill="none" stroke="black" d="M667.97,-289.7C667.97,-280.91 667.97,-272.25 667.97,-272.25 667.97,-272.25 764.15,-272.25 764.15,-272.25"/>
<polygon fill="black" stroke="black" points="764.15,-275.75 774.15,-272.25 764.15,-268.75 764.15,-275.75"/>
</g>
<!-- m4&#45;&gt;estimation -->
<g id="edge21" class="edge">
<title>m4&#45;&gt;estimation</title>
<path fill="none" stroke="black" d="M704.14,-394C775.35,-394 874.97,-394 874.97,-394 874.97,-394 874.97,-297.24 874.97,-297.24"/>
<polygon fill="black" stroke="black" points="878.47,-297.24 874.97,-287.24 871.47,-297.24 878.47,-297.24"/>
</g>
<!-- results -->
<g id="node17" class="node">
<title>results</title>
<polygon fill="#e9ecef" stroke="black" points="1200.97,-293.75 1046.97,-293.75 1046.97,-236.25 1200.97,-236.25 1200.97,-293.75"/>
<text xml:space="preserve" text-anchor="middle" x="1123.97" y="-276.45" font-family="Times,serif" font-size="14.00">Average marginal effects</text>
<text xml:space="preserve" text-anchor="middle" x="1123.97" y="-259.95" font-family="Times,serif" font-size="14.00">Model performance</text>
<text xml:space="preserve" text-anchor="middle" x="1123.97" y="-243.45" font-family="Times,serif" font-size="14.00">Diagnostics</text>
</g>
<!-- estimation&#45;&gt;results -->
<g id="edge22" class="edge">
<title>estimation&#45;&gt;results</title>
<path fill="none" stroke="black" d="M975.11,-265C975.11,-265 1034.98,-265 1034.98,-265"/>
<polygon fill="black" stroke="black" points="1034.98,-268.5 1044.98,-265 1034.98,-261.5 1034.98,-268.5"/>
</g>
</g>
</svg>
