<?xml version="1.0" encoding="utf-8" standalone="no"?>
<!DOCTYPE svg PUBLIC "-//W3C//DTD SVG 1.1//EN"
  "http://www.w3.org/Graphics/SVG/1.1/DTD/svg11.dtd">
<svg xmlns:xlink="http://www.w3.org/1999/xlink" width="414.649062pt" height="322.924062pt" viewBox="0 0 414.649062 322.924062" xmlns="http://www.w3.org/2000/svg" version="1.1">
 <metadata>
  <rdf:RDF xmlns:dc="http://purl.org/dc/elements/1.1/" xmlns:cc="http://creativecommons.org/ns#" xmlns:rdf="http://www.w3.org/1999/02/22-rdf-syntax-ns#">
   <cc:Work>
    <dc:type rdf:resource="http://purl.org/dc/dcmitype/StillImage"/>
    <dc:date>2026-04-10T20:25:17.691772</dc:date>
    <dc:format>image/svg+xml</dc:format>
    <dc:creator>
     <cc:Agent>
      <dc:title>Matplotlib v3.10.8, https://matplotlib.org/</dc:title>
     </cc:Agent>
    </dc:creator>
   </cc:Work>
  </rdf:RDF>
 </metadata>
 <defs>
  <style type="text/css">*{stroke-linejoin: round; stroke-linecap: butt}</style>
 </defs>
 <g id="figure_1">
  <g id="patch_1">
   <path d="M 0 322.924062 
L 414.649062 322.924062 
L 414.649062 0 
L 0 0 
z
" style="fill: #ffffff"/>
  </g>
  <g id="axes_1">
   <g id="patch_2">
    <path d="M 44.749063 284.4 
L 407.449062 284.4 
L 407.449062 7.2 
L 44.749063 7.2 
z
" style="fill: #ffffff"/>
   </g>
   <g id="FillBetweenPolyCollection_1">
    <defs>
     <path id="m6f779636c1" d="M 61.235426 -56.164062 
L 61.235426 -51.124063 
L 64.566005 -142.258187 
L 67.896583 -157.298905 
L 71.227162 -167.165208 
L 74.55774 -174.691848 
L 77.888319 -180.850695 
L 81.218897 -186.101148 
L 84.549476 -190.699614 
L 87.880054 -194.804882 
L 91.210633 -198.522611 
L 94.541211 -201.926914 
L 97.87179 -205.071928 
L 101.202368 -207.998488 
L 104.532947 -210.73821 
L 107.863525 -213.31611 
L 111.194104 -215.752342 
L 114.524682 -218.063403 
L 117.855261 -220.262977 
L 121.185839 -222.362549 
L 124.516418 -224.371862 
L 127.846996 -226.299253 
L 131.177575 -228.151919 
L 134.508153 -229.936117 
L 137.838732 -231.657324 
L 141.16931 -233.320363 
L 144.499889 -234.929506 
L 147.830467 -236.488552 
L 151.161046 -238.000903 
L 154.491624 -239.469611 
L 157.822203 -240.897429 
L 161.152782 -242.286847 
L 164.48336 -243.640129 
L 167.813939 -244.959336 
L 171.144517 -246.246352 
L 174.475096 -247.502902 
L 177.805674 -248.730574 
L 181.136253 -249.930828 
L 184.466831 -251.105013 
L 187.79741 -252.254377 
L 191.127988 -253.380079 
L 194.458567 -254.483194 
L 197.789145 -255.564723 
L 201.119724 -256.625599 
L 204.450302 -257.666696 
L 207.780881 -258.688829 
L 211.111459 -259.692763 
L 214.442038 -260.679217 
L 217.772616 -261.648864 
L 221.103195 -262.602339 
L 224.433773 -263.540242 
L 227.764352 -264.463136 
L 231.09493 -265.371555 
L 234.425509 -266.266003 
L 237.756087 -267.146958 
L 241.086666 -268.014871 
L 244.417244 -268.870173 
L 247.747823 -269.713271 
L 251.078401 -270.544552 
L 254.40898 -271.364385 
L 257.739558 -272.173122 
L 261.070137 -272.971096 
L 264.400715 -273.758626 
L 267.731294 -274.536018 
L 271.061872 -275.303562 
L 274.392451 -276.061537 
L 277.723029 -276.810207 
L 281.053608 -277.549829 
L 284.384186 -278.280646 
L 287.714765 -279.002892 
L 291.045343 -279.716792 
L 294.375922 -280.42256 
L 297.706501 -281.120404 
L 301.037079 -281.810522 
L 304.367658 -282.493106 
L 307.698236 -283.168339 
L 311.028815 -283.836398 
L 314.359393 -284.497453 
L 317.689972 -285.151669 
L 321.02055 -285.799204 
L 324.351129 -286.44021 
L 327.681707 -287.074835 
L 331.012286 -287.703221 
L 334.342864 -288.325505 
L 337.673443 -288.941819 
L 341.004021 -289.552292 
L 344.3346 -290.157048 
L 347.665178 -290.756207 
L 350.995757 -291.349884 
L 354.326335 -291.938192 
L 357.656914 -292.521239 
L 360.987492 -293.099132 
L 364.318071 -293.671971 
L 367.648649 -294.239857 
L 370.979228 -294.802885 
L 374.309806 -295.361147 
L 377.640385 -295.914736 
L 380.970963 -296.463738 
L 384.301542 -297.008238 
L 387.63212 -297.548319 
L 390.962699 -298.084062 
L 390.962699 -303.124062 
L 390.962699 -303.124062 
L 387.63212 -303.124062 
L 384.301542 -303.124062 
L 380.970963 -303.124062 
L 377.640385 -303.124062 
L 374.309806 -303.124062 
L 370.979228 -303.124062 
L 367.648649 -303.124062 
L 364.318071 -303.124062 
L 360.987492 -303.124062 
L 357.656914 -302.601239 
L 354.326335 -302.018192 
L 350.995757 -301.429884 
L 347.665178 -300.836207 
L 344.3346 -300.237048 
L 341.004021 -299.632292 
L 337.673443 -299.021819 
L 334.342864 -298.405505 
L 331.012286 -297.783221 
L 327.681707 -297.154835 
L 324.351129 -296.52021 
L 321.02055 -295.879204 
L 317.689972 -295.231669 
L 314.359393 -294.577453 
L 311.028815 -293.916398 
L 307.698236 -293.248339 
L 304.367658 -292.573106 
L 301.037079 -291.890522 
L 297.706501 -291.200404 
L 294.375922 -290.50256 
L 291.045343 -289.796792 
L 287.714765 -289.082892 
L 284.384186 -288.360646 
L 281.053608 -287.629829 
L 277.723029 -286.890207 
L 274.392451 -286.141537 
L 271.061872 -285.383562 
L 267.731294 -284.616018 
L 264.400715 -283.838626 
L 261.070137 -283.051096 
L 257.739558 -282.253122 
L 254.40898 -281.444385 
L 251.078401 -280.624552 
L 247.747823 -279.793271 
L 244.417244 -278.950173 
L 241.086666 -278.094871 
L 237.756087 -277.226958 
L 234.425509 -276.346003 
L 231.09493 -275.451555 
L 227.764352 -274.543136 
L 224.433773 -273.620242 
L 221.103195 -272.682339 
L 217.772616 -271.728864 
L 214.442038 -270.759217 
L 211.111459 -269.772763 
L 207.780881 -268.768829 
L 204.450302 -267.746696 
L 201.119724 -266.705599 
L 197.789145 -265.644723 
L 194.458567 -264.563194 
L 191.127988 -263.460079 
L 187.79741 -262.334377 
L 184.466831 -261.185013 
L 181.136253 -260.010828 
L 177.805674 -258.810574 
L 174.475096 -257.582902 
L 171.144517 -256.326352 
L 167.813939 -255.039336 
L 164.48336 -253.720129 
L 161.152782 -252.366847 
L 157.822203 -250.977429 
L 154.491624 -249.549611 
L 151.161046 -248.080903 
L 147.830467 -246.568552 
L 144.499889 -245.009506 
L 141.16931 -243.400363 
L 137.838732 -241.737324 
L 134.508153 -240.016117 
L 131.177575 -238.231919 
L 127.846996 -236.379253 
L 124.516418 -234.451862 
L 121.185839 -232.442549 
L 117.855261 -230.342977 
L 114.524682 -228.143403 
L 111.194104 -225.832342 
L 107.863525 -223.39611 
L 104.532947 -220.81821 
L 101.202368 -218.078488 
L 97.87179 -215.151928 
L 94.541211 -212.006914 
L 91.210633 -208.602611 
L 87.880054 -204.884882 
L 84.549476 -200.779614 
L 81.218897 -196.181148 
L 77.888319 -190.930695 
L 74.55774 -184.771848 
L 71.227162 -177.245208 
L 67.896583 -167.378905 
L 64.566005 -152.338187 
L 61.235426 -56.164062 
z
" style="stroke: #6c757d; stroke-opacity: 0.15"/>
    </defs>
    <g clip-path="url(#p699ae15c4b)">
     <use xlink:href="#m6f779636c1" x="0" y="322.924062" style="fill: #6c757d; fill-opacity: 0.15; stroke: #6c757d; stroke-opacity: 0.15"/>
    </g>
   </g>
   <g id="FillBetweenPolyCollection_2">
    <defs>
     <path id="mce13214d01" d="M 61.235426 -56.164062 
L 61.235426 -51.124063 
L 64.566005 -139.693877 
L 67.896583 -154.77575 
L 71.227162 -164.700737 
L 74.55774 -172.287528 
L 77.888319 -178.504905 
L 81.218897 -183.811571 
L 84.549476 -188.463865 
L 87.880054 -192.620701 
L 91.210633 -196.387911 
L 94.541211 -199.839787 
L 97.87179 -203.030632 
L 101.202368 -206.001432 
L 104.532947 -208.783936 
L 107.863525 -211.403277 
L 111.194104 -213.879715 
L 114.524682 -216.229838 
L 117.855261 -218.467413 
L 121.185839 -220.603999 
L 124.516418 -222.649403 
L 127.846996 -224.612021 
L 131.177575 -226.499104 
L 134.508153 -228.316957 
L 137.838732 -230.071099 
L 141.16931 -231.766395 
L 144.499889 -233.40715 
L 147.830467 -234.9972 
L 151.161046 -236.539974 
L 154.491624 -238.038554 
L 157.822203 -239.495718 
L 161.152782 -240.913982 
L 164.48336 -242.295629 
L 167.813939 -243.642743 
L 171.144517 -244.957227 
L 174.475096 -246.240824 
L 177.805674 -247.495137 
L 181.136253 -248.721644 
L 184.466831 -249.921708 
L 187.79741 -251.096591 
L 191.127988 -252.247464 
L 194.458567 -253.375415 
L 197.789145 -254.481457 
L 201.119724 -255.566534 
L 204.450302 -256.631529 
L 207.780881 -257.677269 
L 211.111459 -258.704526 
L 214.442038 -259.714029 
L 217.772616 -260.706459 
L 221.103195 -261.68246 
L 224.433773 -262.642638 
L 227.764352 -263.587564 
L 231.09493 -264.517779 
L 234.425509 -265.433794 
L 237.756087 -266.336092 
L 241.086666 -267.225131 
L 244.417244 -268.101347 
L 247.747823 -268.965153 
L 251.078401 -269.816942 
L 254.40898 -270.657087 
L 257.739558 -271.485945 
L 261.070137 -272.303853 
L 264.400715 -273.111137 
L 267.731294 -273.908104 
L 271.061872 -274.69505 
L 274.392451 -275.472257 
L 277.723029 -276.239995 
L 281.053608 -276.998523 
L 284.384186 -277.748087 
L 287.714765 -278.488925 
L 291.045343 -279.221266 
L 294.375922 -279.945327 
L 297.706501 -280.661318 
L 301.037079 -281.369441 
L 304.367658 -282.06989 
L 307.698236 -282.762852 
L 311.028815 -283.448506 
L 314.359393 -284.127026 
L 317.689972 -284.798577 
L 321.02055 -285.463321 
L 324.351129 -286.121413 
L 327.681707 -286.773001 
L 331.012286 -287.418231 
L 334.342864 -288.057242 
L 337.673443 -288.690168 
L 341.004021 -289.31714 
L 344.3346 -289.938284 
L 347.665178 -290.553722 
L 350.995757 -291.16357 
L 354.326335 -291.767944 
L 357.656914 -292.366954 
L 360.987492 -292.960708 
L 364.318071 -293.549308 
L 367.648649 -294.132855 
L 370.979228 -294.711448 
L 374.309806 -295.28518 
L 377.640385 -295.854144 
L 380.970963 -296.418429 
L 384.301542 -296.978121 
L 387.63212 -297.533305 
L 390.962699 -298.084062 
L 390.962699 -303.124062 
L 390.962699 -303.124062 
L 387.63212 -303.124062 
L 384.301542 -303.124062 
L 380.970963 -303.124062 
L 377.640385 -303.124062 
L 374.309806 -303.124062 
L 370.979228 -303.124062 
L 367.648649 -303.124062 
L 364.318071 -303.124062 
L 360.987492 -303.040708 
L 357.656914 -302.446954 
L 354.326335 -301.847944 
L 350.995757 -301.24357 
L 347.665178 -300.633722 
L 344.3346 -300.018284 
L 341.004021 -299.39714 
L 337.673443 -298.770168 
L 334.342864 -298.137242 
L 331.012286 -297.498231 
L 327.681707 -296.853001 
L 324.351129 -296.201413 
L 321.02055 -295.543321 
L 317.689972 -294.878577 
L 314.359393 -294.207026 
L 311.028815 -293.528506 
L 307.698236 -292.842852 
L 304.367658 -292.14989 
L 301.037079 -291.449441 
L 297.706501 -290.741318 
L 294.375922 -290.025327 
L 291.045343 -289.301266 
L 287.714765 -288.568925 
L 284.384186 -287.828087 
L 281.053608 -287.078523 
L 277.723029 -286.319995 
L 274.392451 -285.552257 
L 271.061872 -284.77505 
L 267.731294 -283.988104 
L 264.400715 -283.191137 
L 261.070137 -282.383853 
L 257.739558 -281.565945 
L 254.40898 -280.737087 
L 251.078401 -279.896942 
L 247.747823 -279.045153 
L 244.417244 -278.181347 
L 241.086666 -277.305131 
L 237.756087 -276.416092 
L 234.425509 -275.513794 
L 231.09493 -274.597779 
L 227.764352 -273.667564 
L 224.433773 -272.722638 
L 221.103195 -271.76246 
L 217.772616 -270.786459 
L 214.442038 -269.794029 
L 211.111459 -268.784526 
L 207.780881 -267.757269 
L 204.450302 -266.711529 
L 201.119724 -265.646534 
L 197.789145 -264.561457 
L 194.458567 -263.455415 
L 191.127988 -262.327464 
L 187.79741 -261.176591 
L 184.466831 -260.001708 
L 181.136253 -258.801644 
L 177.805674 -257.575137 
L 174.475096 -256.320824 
L 171.144517 -255.037227 
L 167.813939 -253.722743 
L 164.48336 -252.375629 
L 161.152782 -250.993982 
L 157.822203 -249.575718 
L 154.491624 -248.118554 
L 151.161046 -246.619974 
L 147.830467 -245.0772 
L 144.499889 -243.48715 
L 141.16931 -241.846395 
L 137.838732 -240.151099 
L 134.508153 -238.396957 
L 131.177575 -236.579104 
L 127.846996 -234.692021 
L 124.516418 -232.729403 
L 121.185839 -230.683999 
L 117.855261 -228.547413 
L 114.524682 -226.309838 
L 111.194104 -223.959715 
L 107.863525 -221.483277 
L 104.532947 -218.863936 
L 101.202368 -216.081432 
L 97.87179 -213.110632 
L 94.541211 -209.919787 
L 91.210633 -206.467911 
L 87.880054 -202.700701 
L 84.549476 -198.543865 
L 81.218897 -193.891571 
L 77.888319 -188.584905 
L 74.55774 -182.367528 
L 71.227162 -174.780737 
L 67.896583 -164.85575 
L 64.566005 -149.773877 
L 61.235426 -56.164062 
z
" style="stroke: #2f5d8c; stroke-opacity: 0.15"/>
    </defs>
    <g clip-path="url(#p699ae15c4b)">
     <use xlink:href="#mce13214d01" x="0" y="322.924062" style="fill: #2f5d8c; fill-opacity: 0.15; stroke: #2f5d8c; stroke-opacity: 0.15"/>
    </g>
   </g>
   <g id="FillBetweenPolyCollection_3">
    <defs>
     <path id="m50b4b1ef88" d="M 61.235426 -56.164062 
L 61.235426 -51.124063 
L 64.566005 -160.236938 
L 67.896583 -174.72057 
L 71.227162 -184.030524 
L 74.55774 -191.041875 
L 77.888319 -196.724793 
L 81.218897 -201.533069 
L 84.549476 -205.717949 
L 87.880054 -209.434014 
L 91.210633 -212.783554 
L 94.541211 -215.837977 
L 97.87179 -218.649224 
L 101.202368 -221.256323 
L 104.532947 -223.689391 
L 107.863525 -225.972178 
L 111.194104 -228.123767 
L 114.524682 -230.159735 
L 117.855261 -232.092969 
L 121.185839 -233.934262 
L 124.516418 -235.692748 
L 127.846996 -237.376228 
L 131.177575 -238.991422 
L 134.508153 -240.544163 
L 137.838732 -242.039546 
L 141.16931 -243.48205 
L 144.499889 -244.875636 
L 147.830467 -246.223823 
L 151.161046 -247.529755 
L 154.491624 -248.796249 
L 157.822203 -250.025843 
L 161.152782 -251.22083 
L 164.48336 -252.383291 
L 167.813939 -253.515119 
L 171.144517 -254.618042 
L 174.475096 -255.693641 
L 177.805674 -256.743367 
L 181.136253 -257.768556 
L 184.466831 -258.770439 
L 187.79741 -259.750157 
L 191.127988 -260.708762 
L 194.458567 -261.647236 
L 197.789145 -262.566487 
L 201.119724 -263.467365 
L 204.450302 -264.350661 
L 207.780881 -265.217116 
L 211.111459 -266.067423 
L 214.442038 -266.902232 
L 217.772616 -267.722153 
L 221.103195 -268.52776 
L 224.433773 -269.319593 
L 227.764352 -270.098163 
L 231.09493 -270.863949 
L 234.425509 -271.617407 
L 237.756087 -272.358967 
L 241.086666 -273.089035 
L 244.417244 -273.807997 
L 247.747823 -274.51622 
L 251.078401 -275.214052 
L 254.40898 -275.901824 
L 257.739558 -276.57985 
L 261.070137 -277.248431 
L 264.400715 -277.907851 
L 267.731294 -278.558384 
L 271.061872 -279.20029 
L 274.392451 -279.833818 
L 277.723029 -280.459205 
L 281.053608 -281.076678 
L 284.384186 -281.686457 
L 287.714765 -282.288748 
L 291.045343 -282.883753 
L 294.375922 -283.471663 
L 297.706501 -284.052662 
L 301.037079 -284.626927 
L 304.367658 -285.194628 
L 307.698236 -285.755929 
L 311.028815 -286.310987 
L 314.359393 -286.859952 
L 317.689972 -287.402971 
L 321.02055 -287.940185 
L 324.351129 -288.471728 
L 327.681707 -288.997731 
L 331.012286 -289.51832 
L 334.342864 -290.033616 
L 337.673443 -290.543738 
L 341.004021 -291.048797 
L 344.3346 -291.548904 
L 347.665178 -292.044165 
L 350.995757 -292.534683 
L 354.326335 -293.020556 
L 357.656914 -293.50188 
L 360.987492 -293.978749 
L 364.318071 -294.451252 
L 367.648649 -294.919477 
L 370.979228 -295.383509 
L 374.309806 -295.843429 
L 377.640385 -296.299317 
L 380.970963 -296.751251 
L 384.301542 -297.199305 
L 387.63212 -297.643552 
L 390.962699 -298.084062 
L 390.962699 -303.124062 
L 390.962699 -303.124062 
L 387.63212 -303.124062 
L 384.301542 -303.124062 
L 380.970963 -303.124062 
L 377.640385 -303.124062 
L 374.309806 -303.124062 
L 370.979228 -303.124062 
L 367.648649 -303.124062 
L 364.318071 -303.124062 
L 360.987492 -303.124062 
L 357.656914 -303.124062 
L 354.326335 -303.100556 
L 350.995757 -302.614683 
L 347.665178 -302.124165 
L 344.3346 -301.628904 
L 341.004021 -301.128797 
L 337.673443 -300.623738 
L 334.342864 -300.113616 
L 331.012286 -299.59832 
L 327.681707 -299.077731 
L 324.351129 -298.551728 
L 321.02055 -298.020185 
L 317.689972 -297.482971 
L 314.359393 -296.939952 
L 311.028815 -296.390987 
L 307.698236 -295.835929 
L 304.367658 -295.274628 
L 301.037079 -294.706927 
L 297.706501 -294.132662 
L 294.375922 -293.551663 
L 291.045343 -292.963753 
L 287.714765 -292.368748 
L 284.384186 -291.766457 
L 281.053608 -291.156678 
L 277.723029 -290.539205 
L 274.392451 -289.913818 
L 271.061872 -289.28029 
L 267.731294 -288.638384 
L 264.400715 -287.987851 
L 261.070137 -287.328431 
L 257.739558 -286.65985 
L 254.40898 -285.981824 
L 251.078401 -285.294052 
L 247.747823 -284.59622 
L 244.417244 -283.887997 
L 241.086666 -283.169035 
L 237.756087 -282.438967 
L 234.425509 -281.697407 
L 231.09493 -280.943949 
L 227.764352 -280.178163 
L 224.433773 -279.399593 
L 221.103195 -278.60776 
L 217.772616 -277.802153 
L 214.442038 -276.982232 
L 211.111459 -276.147423 
L 207.780881 -275.297116 
L 204.450302 -274.430661 
L 201.119724 -273.547365 
L 197.789145 -272.646487 
L 194.458567 -271.727236 
L 191.127988 -270.788762 
L 187.79741 -269.830157 
L 184.466831 -268.850439 
L 181.136253 -267.848556 
L 177.805674 -266.823367 
L 174.475096 -265.773641 
L 171.144517 -264.698042 
L 167.813939 -263.595119 
L 164.48336 -262.463291 
L 161.152782 -261.30083 
L 157.822203 -260.105843 
L 154.491624 -258.876249 
L 151.161046 -257.609755 
L 147.830467 -256.303823 
L 144.499889 -254.955636 
L 141.16931 -253.56205 
L 137.838732 -252.119546 
L 134.508153 -250.624163 
L 131.177575 -249.071422 
L 127.846996 -247.456228 
L 124.516418 -245.772748 
L 121.185839 -244.014262 
L 117.855261 -242.172969 
L 114.524682 -240.239735 
L 111.194104 -238.203767 
L 107.863525 -236.052178 
L 104.532947 -233.769391 
L 101.202368 -231.336323 
L 97.87179 -228.729224 
L 94.541211 -225.917977 
L 91.210633 -222.863554 
L 87.880054 -219.514014 
L 84.549476 -215.797949 
L 81.218897 -211.613069 
L 77.888319 -206.804793 
L 74.55774 -201.121875 
L 71.227162 -194.110524 
L 67.896583 -184.80057 
L 64.566005 -170.316938 
L 61.235426 -56.164062 
z
" style="stroke: #6c757d; stroke-opacity: 0.15"/>
    </defs>
    <g clip-path="url(#p699ae15c4b)">
     <use xlink:href="#m50b4b1ef88" x="0" y="322.924062" style="fill: #6c757d; fill-opacity: 0.15; stroke: #6c757d; stroke-opacity: 0.15"/>
    </g>
   </g>
   <g id="FillBetweenPolyCollection_4">
    <defs>
     <path id="mccd8c31eb5" d="M 61.235426 -56.164062 
L 61.235426 -51.124063 
L 64.566005 -160.092812 
L 67.896583 -174.582643 
L 71.227162 -183.897977 
L 74.55774 -190.914045 
L 77.888319 -196.601186 
L 81.218897 -201.413303 
L 84.549476 -205.601719 
L 87.880054 -209.321072 
L 91.210633 -212.67369 
L 94.541211 -215.731014 
L 97.87179 -218.545009 
L 101.202368 -221.154722 
L 104.532947 -223.590285 
L 107.863525 -225.875461 
L 111.194104 -228.029345 
L 114.524682 -230.067521 
L 117.855261 -232.002885 
L 121.185839 -233.846237 
L 124.516418 -235.606716 
L 127.846996 -237.292129 
L 131.177575 -238.9092 
L 134.508153 -240.463765 
L 137.838732 -241.960923 
L 141.16931 -243.405158 
L 144.499889 -244.800431 
L 147.830467 -246.150266 
L 151.161046 -247.457807 
L 154.491624 -248.725875 
L 157.822203 -249.957009 
L 161.152782 -251.153504 
L 164.48336 -252.317443 
L 167.813939 -253.45072 
L 171.144517 -254.555064 
L 174.475096 -255.632057 
L 177.805674 -256.683154 
L 181.136253 -257.709689 
L 184.466831 -258.712896 
L 187.79741 -259.693914 
L 191.127988 -260.6538 
L 194.458567 -261.593533 
L 197.789145 -262.514024 
L 201.119724 -263.416124 
L 204.450302 -264.300624 
L 207.780881 -265.168265 
L 211.111459 -266.019741 
L 214.442038 -266.855703 
L 217.772616 -267.676761 
L 221.103195 -268.483491 
L 224.433773 -269.276432 
L 227.764352 -270.056095 
L 231.09493 -270.822961 
L 234.425509 -271.577486 
L 237.756087 -272.320099 
L 241.086666 -273.051208 
L 244.417244 -273.771199 
L 247.747823 -274.480439 
L 251.078401 -275.179277 
L 254.40898 -275.868043 
L 257.739558 -276.547053 
L 261.070137 -277.216606 
L 264.400715 -277.876989 
L 267.731294 -278.528475 
L 271.061872 -279.171323 
L 274.392451 -279.805784 
L 277.723029 -280.432095 
L 281.053608 -281.050484 
L 284.384186 -281.661168 
L 287.714765 -282.264357 
L 291.045343 -282.86025 
L 294.375922 -283.449041 
L 297.706501 -284.030912 
L 301.037079 -284.606042 
L 304.367658 -285.1746 
L 307.698236 -285.736751 
L 311.028815 -286.29265 
L 314.359393 -286.842451 
L 317.689972 -287.386298 
L 321.02055 -287.924332 
L 324.351129 -288.456689 
L 327.681707 -288.9835 
L 331.012286 -289.50489 
L 334.342864 -290.02098 
L 337.673443 -290.53189 
L 341.004021 -291.037731 
L 344.3346 -291.538615 
L 347.665178 -292.034646 
L 350.995757 -292.525928 
L 354.326335 -293.012559 
L 357.656914 -293.494637 
L 360.987492 -293.972253 
L 364.318071 -294.445498 
L 367.648649 -294.914461 
L 370.979228 -295.379224 
L 374.309806 -295.83987 
L 377.640385 -296.29648 
L 380.970963 -296.74913 
L 384.301542 -297.197896 
L 387.63212 -297.64285 
L 390.962699 -298.084062 
L 390.962699 -303.124062 
L 390.962699 -303.124062 
L 387.63212 -303.124062 
L 384.301542 -303.124062 
L 380.970963 -303.124062 
L 377.640385 -303.124062 
L 374.309806 -303.124062 
L 370.979228 -303.124062 
L 367.648649 -303.124062 
L 364.318071 -303.124062 
L 360.987492 -303.124062 
L 357.656914 -303.124062 
L 354.326335 -303.092559 
L 350.995757 -302.605928 
L 347.665178 -302.114646 
L 344.3346 -301.618615 
L 341.004021 -301.117731 
L 337.673443 -300.61189 
L 334.342864 -300.10098 
L 331.012286 -299.58489 
L 327.681707 -299.0635 
L 324.351129 -298.536689 
L 321.02055 -298.004332 
L 317.689972 -297.466298 
L 314.359393 -296.922451 
L 311.028815 -296.37265 
L 307.698236 -295.816751 
L 304.367658 -295.2546 
L 301.037079 -294.686042 
L 297.706501 -294.110912 
L 294.375922 -293.529041 
L 291.045343 -292.94025 
L 287.714765 -292.344357 
L 284.384186 -291.741168 
L 281.053608 -291.130484 
L 277.723029 -290.512095 
L 274.392451 -289.885784 
L 271.061872 -289.251323 
L 267.731294 -288.608475 
L 264.400715 -287.956989 
L 261.070137 -287.296606 
L 257.739558 -286.627053 
L 254.40898 -285.948043 
L 251.078401 -285.259277 
L 247.747823 -284.560439 
L 244.417244 -283.851199 
L 241.086666 -283.131208 
L 237.756087 -282.400099 
L 234.425509 -281.657486 
L 231.09493 -280.902961 
L 227.764352 -280.136095 
L 224.433773 -279.356432 
L 221.103195 -278.563491 
L 217.772616 -277.756761 
L 214.442038 -276.935703 
L 211.111459 -276.099741 
L 207.780881 -275.248265 
L 204.450302 -274.380624 
L 201.119724 -273.496124 
L 197.789145 -272.594024 
L 194.458567 -271.673533 
L 191.127988 -270.7338 
L 187.79741 -269.773914 
L 184.466831 -268.792896 
L 181.136253 -267.789689 
L 177.805674 -266.763154 
L 174.475096 -265.712057 
L 171.144517 -264.635064 
L 167.813939 -263.53072 
L 164.48336 -262.397443 
L 161.152782 -261.233504 
L 157.822203 -260.037009 
L 154.491624 -258.805875 
L 151.161046 -257.537807 
L 147.830467 -256.230266 
L 144.499889 -254.880431 
L 141.16931 -253.485158 
L 137.838732 -252.040923 
L 134.508153 -250.543765 
L 131.177575 -248.9892 
L 127.846996 -247.372129 
L 124.516418 -245.686716 
L 121.185839 -243.926237 
L 117.855261 -242.082885 
L 114.524682 -240.147521 
L 111.194104 -238.109345 
L 107.863525 -235.955461 
L 104.532947 -233.670285 
L 101.202368 -231.234722 
L 97.87179 -228.625009 
L 94.541211 -225.811014 
L 91.210633 -222.75369 
L 87.880054 -219.401072 
L 84.549476 -215.681719 
L 81.218897 -211.493303 
L 77.888319 -206.681186 
L 74.55774 -200.994045 
L 71.227162 -193.977977 
L 67.896583 -184.662643 
L 64.566005 -170.172812 
L 61.235426 -56.164062 
z
" style="stroke: #2f5d8c; stroke-opacity: 0.15"/>
    </defs>
    <g clip-path="url(#p699ae15c4b)">
     <use xlink:href="#mccd8c31eb5" x="0" y="322.924062" style="fill: #2f5d8c; fill-opacity: 0.15; stroke: #2f5d8c; stroke-opacity: 0.15"/>
    </g>
   </g>
   <g id="matplotlib.axis_1">
    <g id="xtick_1">
     <g id="line2d_1">
      <path d="M 61.235426 284.4 
L 61.235426 7.2 
" clip-path="url(#p699ae15c4b)" style="fill: none; stroke-dasharray: 0.8,1.32; stroke-dashoffset: 0; stroke: #b0b0b0; stroke-opacity: 0.4; stroke-width: 0.8"/>
     </g>
     <g id="line2d_2">
      <defs>
       <path id="mf8f7e0cac8" d="M 0 0 
L 0 3.5 
" style="stroke: #000000; stroke-width: 0.8"/>
      </defs>
      <g>
       <use xlink:href="#mf8f7e0cac8" x="61.235426" y="284.4" style="stroke: #000000; stroke-width: 0.8"/>
      </g>
     </g>
     <g id="text_1">
      <!-- 0.0 -->
      <g transform="translate(53.283864 298.998438) scale(0.1 -0.1)">
       <defs>
        <path id="DejaVuSerif-30" d="M 2034 219 
Q 2513 219 2750 744 
Q 2988 1269 2988 2328 
Q 2988 3391 2750 3916 
Q 2513 4441 2034 4441 
Q 1556 4441 1318 3916 
Q 1081 3391 1081 2328 
Q 1081 1269 1318 744 
Q 1556 219 2034 219 
z
M 2034 -91 
Q 1275 -91 848 546 
Q 422 1184 422 2328 
Q 422 3475 848 4112 
Q 1275 4750 2034 4750 
Q 2797 4750 3222 4112 
Q 3647 3475 3647 2328 
Q 3647 1184 3222 546 
Q 2797 -91 2034 -91 
z
" transform="scale(0.015625)"/>
        <path id="DejaVuSerif-2e" d="M 603 325 
Q 603 500 722 622 
Q 841 744 1019 744 
Q 1191 744 1312 622 
Q 1434 500 1434 325 
Q 1434 153 1312 31 
Q 1191 -91 1019 -91 
Q 841 -91 722 29 
Q 603 150 603 325 
z
" transform="scale(0.015625)"/>
       </defs>
       <use xlink:href="#DejaVuSerif-30"/>
       <use xlink:href="#DejaVuSerif-2e" transform="translate(63.623047 0)"/>
       <use xlink:href="#DejaVuSerif-30" transform="translate(95.410156 0)"/>
      </g>
     </g>
    </g>
    <g id="xtick_2">
     <g id="line2d_3">
      <path d="M 127.180881 284.4 
L 127.180881 7.2 
" clip-path="url(#p699ae15c4b)" style="fill: none; stroke-dasharray: 0.8,1.32; stroke-dashoffset: 0; stroke: #b0b0b0; stroke-opacity: 0.4; stroke-width: 0.8"/>
     </g>
     <g id="line2d_4">
      <g>
       <use xlink:href="#mf8f7e0cac8" x="127.180881" y="284.4" style="stroke: #000000; stroke-width: 0.8"/>
      </g>
     </g>
     <g id="text_2">
      <!-- 0.2 -->
      <g transform="translate(119.229318 298.998438) scale(0.1 -0.1)">
       <defs>
        <path id="DejaVuSerif-32" d="M 819 3553 
L 469 3553 
L 469 4384 
Q 803 4563 1142 4656 
Q 1481 4750 1806 4750 
Q 2534 4750 2956 4397 
Q 3378 4044 3378 3438 
Q 3378 2753 2422 1800 
Q 2347 1728 2309 1691 
L 1131 513 
L 3078 513 
L 3078 1088 
L 3444 1088 
L 3444 0 
L 434 0 
L 434 341 
L 1850 1753 
Q 2319 2222 2519 2614 
Q 2719 3006 2719 3438 
Q 2719 3909 2473 4175 
Q 2228 4441 1797 4441 
Q 1350 4441 1106 4219 
Q 863 3997 819 3553 
z
" transform="scale(0.015625)"/>
       </defs>
       <use xlink:href="#DejaVuSerif-30"/>
       <use xlink:href="#DejaVuSerif-2e" transform="translate(63.623047 0)"/>
       <use xlink:href="#DejaVuSerif-32" transform="translate(95.410156 0)"/>
      </g>
     </g>
    </g>
    <g id="xtick_3">
     <g id="line2d_5">
      <path d="M 193.126335 284.4 
L 193.126335 7.2 
" clip-path="url(#p699ae15c4b)" style="fill: none; stroke-dasharray: 0.8,1.32; stroke-dashoffset: 0; stroke: #b0b0b0; stroke-opacity: 0.4; stroke-width: 0.8"/>
     </g>
     <g id="line2d_6">
      <g>
       <use xlink:href="#mf8f7e0cac8" x="193.126335" y="284.4" style="stroke: #000000; stroke-width: 0.8"/>
      </g>
     </g>
     <g id="text_3">
      <!-- 0.4 -->
      <g transform="translate(185.174773 298.998438) scale(0.1 -0.1)">
       <defs>
        <path id="DejaVuSerif-34" d="M 2234 1581 
L 2234 4063 
L 641 1581 
L 2234 1581 
z
M 3609 0 
L 1484 0 
L 1484 331 
L 2234 331 
L 2234 1247 
L 197 1247 
L 197 1588 
L 2241 4750 
L 2859 4750 
L 2859 1581 
L 3750 1581 
L 3750 1247 
L 2859 1247 
L 2859 331 
L 3609 331 
L 3609 0 
z
" transform="scale(0.015625)"/>
       </defs>
       <use xlink:href="#DejaVuSerif-30"/>
       <use xlink:href="#DejaVuSerif-2e" transform="translate(63.623047 0)"/>
       <use xlink:href="#DejaVuSerif-34" transform="translate(95.410156 0)"/>
      </g>
     </g>
    </g>
    <g id="xtick_4">
     <g id="line2d_7">
      <path d="M 259.07179 284.4 
L 259.07179 7.2 
" clip-path="url(#p699ae15c4b)" style="fill: none; stroke-dasharray: 0.8,1.32; stroke-dashoffset: 0; stroke: #b0b0b0; stroke-opacity: 0.4; stroke-width: 0.8"/>
     </g>
     <g id="line2d_8">
      <g>
       <use xlink:href="#mf8f7e0cac8" x="259.07179" y="284.4" style="stroke: #000000; stroke-width: 0.8"/>
      </g>
     </g>
     <g id="text_4">
      <!-- 0.6 -->
      <g transform="translate(251.120227 298.998438) scale(0.1 -0.1)">
       <defs>
        <path id="DejaVuSerif-36" d="M 2094 219 
Q 2534 219 2771 542 
Q 3009 866 3009 1472 
Q 3009 2078 2771 2401 
Q 2534 2725 2094 2725 
Q 1647 2725 1412 2412 
Q 1178 2100 1178 1509 
Q 1178 888 1415 553 
Q 1653 219 2094 219 
z
M 1075 2569 
Q 1288 2803 1556 2918 
Q 1825 3034 2163 3034 
Q 2859 3034 3264 2615 
Q 3669 2197 3669 1472 
Q 3669 763 3233 336 
Q 2797 -91 2069 -91 
Q 1278 -91 853 498 
Q 428 1088 428 2181 
Q 428 3406 931 4078 
Q 1434 4750 2350 4750 
Q 2597 4750 2869 4703 
Q 3141 4656 3425 4563 
L 3425 3794 
L 3072 3794 
Q 3034 4109 2831 4275 
Q 2628 4441 2284 4441 
Q 1678 4441 1381 3981 
Q 1084 3522 1075 2569 
z
" transform="scale(0.015625)"/>
       </defs>
       <use xlink:href="#DejaVuSerif-30"/>
       <use xlink:href="#DejaVuSerif-2e" transform="translate(63.623047 0)"/>
       <use xlink:href="#DejaVuSerif-36" transform="translate(95.410156 0)"/>
      </g>
     </g>
    </g>
    <g id="xtick_5">
     <g id="line2d_9">
      <path d="M 325.017244 284.4 
L 325.017244 7.2 
" clip-path="url(#p699ae15c4b)" style="fill: none; stroke-dasharray: 0.8,1.32; stroke-dashoffset: 0; stroke: #b0b0b0; stroke-opacity: 0.4; stroke-width: 0.8"/>
     </g>
     <g id="line2d_10">
      <g>
       <use xlink:href="#mf8f7e0cac8" x="325.017244" y="284.4" style="stroke: #000000; stroke-width: 0.8"/>
      </g>
     </g>
     <g id="text_5">
      <!-- 0.8 -->
      <g transform="translate(317.065682 298.998438) scale(0.1 -0.1)">
       <defs>
        <path id="DejaVuSerif-38" d="M 2981 1275 
Q 2981 1775 2732 2051 
Q 2484 2328 2034 2328 
Q 1584 2328 1336 2051 
Q 1088 1775 1088 1275 
Q 1088 772 1336 495 
Q 1584 219 2034 219 
Q 2484 219 2732 495 
Q 2981 772 2981 1275 
z
M 2853 3541 
Q 2853 3966 2637 4203 
Q 2422 4441 2034 4441 
Q 1650 4441 1433 4203 
Q 1216 3966 1216 3541 
Q 1216 3113 1433 2875 
Q 1650 2638 2034 2638 
Q 2422 2638 2637 2875 
Q 2853 3113 2853 3541 
z
M 2516 2484 
Q 3047 2413 3344 2092 
Q 3641 1772 3641 1275 
Q 3641 619 3225 264 
Q 2809 -91 2034 -91 
Q 1263 -91 845 264 
Q 428 619 428 1275 
Q 428 1772 725 2092 
Q 1022 2413 1556 2484 
Q 1084 2569 832 2842 
Q 581 3116 581 3541 
Q 581 4103 968 4426 
Q 1356 4750 2034 4750 
Q 2713 4750 3100 4426 
Q 3488 4103 3488 3541 
Q 3488 3116 3236 2842 
Q 2984 2569 2516 2484 
z
" transform="scale(0.015625)"/>
       </defs>
       <use xlink:href="#DejaVuSerif-30"/>
       <use xlink:href="#DejaVuSerif-2e" transform="translate(63.623047 0)"/>
       <use xlink:href="#DejaVuSerif-38" transform="translate(95.410156 0)"/>
      </g>
     </g>
    </g>
    <g id="xtick_6">
     <g id="line2d_11">
      <path d="M 390.962699 284.4 
L 390.962699 7.2 
" clip-path="url(#p699ae15c4b)" style="fill: none; stroke-dasharray: 0.8,1.32; stroke-dashoffset: 0; stroke: #b0b0b0; stroke-opacity: 0.4; stroke-width: 0.8"/>
     </g>
     <g id="line2d_12">
      <g>
       <use xlink:href="#mf8f7e0cac8" x="390.962699" y="284.4" style="stroke: #000000; stroke-width: 0.8"/>
      </g>
     </g>
     <g id="text_6">
      <!-- 1.0 -->
      <g transform="translate(383.011136 298.998438) scale(0.1 -0.1)">
       <defs>
        <path id="DejaVuSerif-31" d="M 909 0 
L 909 331 
L 1722 331 
L 1722 4213 
L 781 3603 
L 781 4013 
L 1919 4750 
L 2350 4750 
L 2350 331 
L 3163 331 
L 3163 0 
L 909 0 
z
" transform="scale(0.015625)"/>
       </defs>
       <use xlink:href="#DejaVuSerif-31"/>
       <use xlink:href="#DejaVuSerif-2e" transform="translate(63.623047 0)"/>
       <use xlink:href="#DejaVuSerif-30" transform="translate(95.410156 0)"/>
      </g>
     </g>
    </g>
    <g id="text_7">
     <!-- False Positive Rate -->
     <g transform="translate(173.326562 313.436406) scale(0.11 -0.11)">
      <defs>
       <path id="DejaVuSerif-46" d="M 353 0 
L 353 331 
L 947 331 
L 947 4331 
L 353 4331 
L 353 4666 
L 4172 4666 
L 4172 3628 
L 3788 3628 
L 3788 4281 
L 1581 4281 
L 1581 2719 
L 3175 2719 
L 3175 3303 
L 3559 3303 
L 3559 1753 
L 3175 1753 
L 3175 2338 
L 1581 2338 
L 1581 331 
L 2328 331 
L 2328 0 
L 353 0 
z
" transform="scale(0.015625)"/>
       <path id="DejaVuSerif-61" d="M 2547 1044 
L 2547 1747 
L 1806 1747 
Q 1378 1747 1168 1562 
Q 959 1378 959 997 
Q 959 650 1171 447 
Q 1384 244 1747 244 
Q 2106 244 2326 466 
Q 2547 688 2547 1044 
z
M 3122 2075 
L 3122 331 
L 3634 331 
L 3634 0 
L 2547 0 
L 2547 359 
Q 2356 128 2106 18 
Q 1856 -91 1522 -91 
Q 969 -91 644 203 
Q 319 497 319 997 
Q 319 1513 691 1797 
Q 1063 2081 1741 2081 
L 2547 2081 
L 2547 2309 
Q 2547 2688 2317 2895 
Q 2088 3103 1672 3103 
Q 1328 3103 1125 2947 
Q 922 2791 872 2484 
L 575 2484 
L 575 3156 
Q 875 3284 1158 3348 
Q 1441 3413 1709 3413 
Q 2400 3413 2761 3070 
Q 3122 2728 3122 2075 
z
" transform="scale(0.015625)"/>
       <path id="DejaVuSerif-6c" d="M 1313 331 
L 1856 331 
L 1856 0 
L 184 0 
L 184 331 
L 738 331 
L 738 4531 
L 184 4531 
L 184 4863 
L 1313 4863 
L 1313 331 
z
" transform="scale(0.015625)"/>
       <path id="DejaVuSerif-73" d="M 359 184 
L 359 959 
L 691 959 
Q 703 588 923 403 
Q 1144 219 1575 219 
Q 1963 219 2166 364 
Q 2369 509 2369 788 
Q 2369 1006 2220 1140 
Q 2072 1275 1594 1428 
L 1178 1569 
Q 750 1706 558 1912 
Q 366 2119 366 2438 
Q 366 2894 700 3153 
Q 1034 3413 1625 3413 
Q 1888 3413 2178 3344 
Q 2469 3275 2778 3144 
L 2778 2419 
L 2447 2419 
Q 2434 2741 2221 2922 
Q 2009 3103 1644 3103 
Q 1281 3103 1095 2975 
Q 909 2847 909 2591 
Q 909 2381 1050 2254 
Q 1191 2128 1613 1997 
L 2069 1856 
Q 2541 1709 2748 1489 
Q 2956 1269 2956 922 
Q 2956 450 2595 179 
Q 2234 -91 1600 -91 
Q 1278 -91 972 -22 
Q 666 47 359 184 
z
" transform="scale(0.015625)"/>
       <path id="DejaVuSerif-65" d="M 3469 1600 
L 991 1600 
L 991 1575 
Q 991 903 1244 561 
Q 1497 219 1991 219 
Q 2369 219 2611 417 
Q 2853 616 2950 1006 
L 3413 1006 
Q 3275 459 2904 184 
Q 2534 -91 1931 -91 
Q 1203 -91 761 389 
Q 319 869 319 1663 
Q 319 2450 753 2931 
Q 1188 3413 1894 3413 
Q 2647 3413 3050 2948 
Q 3453 2484 3469 1600 
z
M 2791 1931 
Q 2772 2513 2545 2808 
Q 2319 3103 1894 3103 
Q 1497 3103 1269 2806 
Q 1041 2509 991 1931 
L 2791 1931 
z
" transform="scale(0.015625)"/>
       <path id="DejaVuSerif-20" transform="scale(0.015625)"/>
       <path id="DejaVuSerif-50" d="M 1581 2375 
L 2406 2375 
Q 2872 2375 3115 2626 
Q 3359 2878 3359 3353 
Q 3359 3831 3115 4081 
Q 2872 4331 2406 4331 
L 1581 4331 
L 1581 2375 
z
M 353 0 
L 353 331 
L 947 331 
L 947 4331 
L 353 4331 
L 353 4666 
L 2559 4666 
Q 3259 4666 3668 4311 
Q 4078 3956 4078 3353 
Q 4078 2753 3668 2397 
Q 3259 2041 2559 2041 
L 1581 2041 
L 1581 331 
L 2303 331 
L 2303 0 
L 353 0 
z
" transform="scale(0.015625)"/>
       <path id="DejaVuSerif-6f" d="M 1925 219 
Q 2388 219 2623 584 
Q 2859 950 2859 1663 
Q 2859 2375 2623 2739 
Q 2388 3103 1925 3103 
Q 1463 3103 1227 2739 
Q 991 2375 991 1663 
Q 991 950 1228 584 
Q 1466 219 1925 219 
z
M 1925 -91 
Q 1200 -91 759 389 
Q 319 869 319 1663 
Q 319 2456 758 2934 
Q 1197 3413 1925 3413 
Q 2653 3413 3092 2934 
Q 3531 2456 3531 1663 
Q 3531 869 3092 389 
Q 2653 -91 1925 -91 
z
" transform="scale(0.015625)"/>
       <path id="DejaVuSerif-69" d="M 622 4353 
Q 622 4497 726 4603 
Q 831 4709 978 4709 
Q 1122 4709 1226 4603 
Q 1331 4497 1331 4353 
Q 1331 4206 1228 4103 
Q 1125 4000 978 4000 
Q 831 4000 726 4103 
Q 622 4206 622 4353 
z
M 1356 331 
L 1900 331 
L 1900 0 
L 231 0 
L 231 331 
L 781 331 
L 781 2988 
L 231 2988 
L 231 3322 
L 1356 3322 
L 1356 331 
z
" transform="scale(0.015625)"/>
       <path id="DejaVuSerif-74" d="M 691 2988 
L 184 2988 
L 184 3322 
L 691 3322 
L 691 4353 
L 1269 4353 
L 1269 3322 
L 2350 3322 
L 2350 2988 
L 1269 2988 
L 1269 878 
Q 1269 456 1350 337 
Q 1431 219 1650 219 
Q 1875 219 1978 351 
Q 2081 484 2088 781 
L 2522 781 
Q 2497 328 2275 118 
Q 2053 -91 1600 -91 
Q 1103 -91 897 129 
Q 691 350 691 878 
L 691 2988 
z
" transform="scale(0.015625)"/>
       <path id="DejaVuSerif-76" d="M 1581 0 
L 359 2988 
L -19 2988 
L -19 3322 
L 1509 3322 
L 1509 2988 
L 978 2988 
L 1913 703 
L 2847 2988 
L 2350 2988 
L 2350 3322 
L 3597 3322 
L 3597 2988 
L 3225 2988 
L 2003 0 
L 1581 0 
z
" transform="scale(0.015625)"/>
       <path id="DejaVuSerif-52" d="M 3066 2316 
Q 3284 2256 3442 2114 
Q 3600 1972 3725 1716 
L 4403 331 
L 4972 331 
L 4972 0 
L 3872 0 
L 3144 1484 
Q 2934 1916 2759 2042 
Q 2584 2169 2278 2169 
L 1581 2169 
L 1581 331 
L 2241 331 
L 2241 0 
L 353 0 
L 353 331 
L 947 331 
L 947 4331 
L 353 4331 
L 353 4666 
L 2719 4666 
Q 3400 4666 3770 4341 
Q 4141 4016 4141 3419 
Q 4141 2938 3870 2661 
Q 3600 2384 3066 2316 
z
M 1581 2503 
L 2503 2503 
Q 2975 2503 3200 2726 
Q 3425 2950 3425 3419 
Q 3425 3888 3200 4109 
Q 2975 4331 2503 4331 
L 1581 4331 
L 1581 2503 
z
" transform="scale(0.015625)"/>
      </defs>
      <use xlink:href="#DejaVuSerif-46"/>
      <use xlink:href="#DejaVuSerif-61" transform="translate(62.634766 0)"/>
      <use xlink:href="#DejaVuSerif-6c" transform="translate(122.253906 0)"/>
      <use xlink:href="#DejaVuSerif-73" transform="translate(154.236328 0)"/>
      <use xlink:href="#DejaVuSerif-65" transform="translate(205.554688 0)"/>
      <use xlink:href="#DejaVuSerif-20" transform="translate(264.734375 0)"/>
      <use xlink:href="#DejaVuSerif-50" transform="translate(296.521484 0)"/>
      <use xlink:href="#DejaVuSerif-6f" transform="translate(359.806641 0)"/>
      <use xlink:href="#DejaVuSerif-73" transform="translate(420.011719 0)"/>
      <use xlink:href="#DejaVuSerif-69" transform="translate(471.330078 0)"/>
      <use xlink:href="#DejaVuSerif-74" transform="translate(503.3125 0)"/>
      <use xlink:href="#DejaVuSerif-69" transform="translate(543.498047 0)"/>
      <use xlink:href="#DejaVuSerif-76" transform="translate(575.480469 0)"/>
      <use xlink:href="#DejaVuSerif-65" transform="translate(631.974609 0)"/>
      <use xlink:href="#DejaVuSerif-20" transform="translate(691.154297 0)"/>
      <use xlink:href="#DejaVuSerif-52" transform="translate(722.941406 0)"/>
      <use xlink:href="#DejaVuSerif-61" transform="translate(800.484375 0)"/>
      <use xlink:href="#DejaVuSerif-74" transform="translate(860.103516 0)"/>
      <use xlink:href="#DejaVuSerif-65" transform="translate(900.289062 0)"/>
     </g>
    </g>
   </g>
   <g id="matplotlib.axis_2">
    <g id="ytick_1">
     <g id="line2d_13">
      <path d="M 44.749063 271.8 
L 407.449062 271.8 
" clip-path="url(#p699ae15c4b)" style="fill: none; stroke-dasharray: 0.8,1.32; stroke-dashoffset: 0; stroke: #b0b0b0; stroke-opacity: 0.4; stroke-width: 0.8"/>
     </g>
     <g id="line2d_14">
      <defs>
       <path id="m1664e92fa0" d="M 0 0 
L -3.5 0 
" style="stroke: #000000; stroke-width: 0.8"/>
      </defs>
      <g>
       <use xlink:href="#m1664e92fa0" x="44.749063" y="271.8" style="stroke: #000000; stroke-width: 0.8"/>
      </g>
     </g>
     <g id="text_8">
      <!-- 0.0 -->
      <g transform="translate(21.845938 275.599219) scale(0.1 -0.1)">
       <use xlink:href="#DejaVuSerif-30"/>
       <use xlink:href="#DejaVuSerif-2e" transform="translate(63.623047 0)"/>
       <use xlink:href="#DejaVuSerif-30" transform="translate(95.410156 0)"/>
      </g>
     </g>
    </g>
    <g id="ytick_2">
     <g id="line2d_15">
      <path d="M 44.749063 221.4 
L 407.449062 221.4 
" clip-path="url(#p699ae15c4b)" style="fill: none; stroke-dasharray: 0.8,1.32; stroke-dashoffset: 0; stroke: #b0b0b0; stroke-opacity: 0.4; stroke-width: 0.8"/>
     </g>
     <g id="line2d_16">
      <g>
       <use xlink:href="#m1664e92fa0" x="44.749063" y="221.4" style="stroke: #000000; stroke-width: 0.8"/>
      </g>
     </g>
     <g id="text_9">
      <!-- 0.2 -->
      <g transform="translate(21.845938 225.199219) scale(0.1 -0.1)">
       <use xlink:href="#DejaVuSerif-30"/>
       <use xlink:href="#DejaVuSerif-2e" transform="translate(63.623047 0)"/>
       <use xlink:href="#DejaVuSerif-32" transform="translate(95.410156 0)"/>
      </g>
     </g>
    </g>
    <g id="ytick_3">
     <g id="line2d_17">
      <path d="M 44.749063 171 
L 407.449062 171 
" clip-path="url(#p699ae15c4b)" style="fill: none; stroke-dasharray: 0.8,1.32; stroke-dashoffset: 0; stroke: #b0b0b0; stroke-opacity: 0.4; stroke-width: 0.8"/>
     </g>
     <g id="line2d_18">
      <g>
       <use xlink:href="#m1664e92fa0" x="44.749063" y="171" style="stroke: #000000; stroke-width: 0.8"/>
      </g>
     </g>
     <g id="text_10">
      <!-- 0.4 -->
      <g transform="translate(21.845938 174.799219) scale(0.1 -0.1)">
       <use xlink:href="#DejaVuSerif-30"/>
       <use xlink:href="#DejaVuSerif-2e" transform="translate(63.623047 0)"/>
       <use xlink:href="#DejaVuSerif-34" transform="translate(95.410156 0)"/>
      </g>
     </g>
    </g>
    <g id="ytick_4">
     <g id="line2d_19">
      <path d="M 44.749063 120.6 
L 407.449062 120.6 
" clip-path="url(#p699ae15c4b)" style="fill: none; stroke-dasharray: 0.8,1.32; stroke-dashoffset: 0; stroke: #b0b0b0; stroke-opacity: 0.4; stroke-width: 0.8"/>
     </g>
     <g id="line2d_20">
      <g>
       <use xlink:href="#m1664e92fa0" x="44.749063" y="120.6" style="stroke: #000000; stroke-width: 0.8"/>
      </g>
     </g>
     <g id="text_11">
      <!-- 0.6 -->
      <g transform="translate(21.845938 124.399219) scale(0.1 -0.1)">
       <use xlink:href="#DejaVuSerif-30"/>
       <use xlink:href="#DejaVuSerif-2e" transform="translate(63.623047 0)"/>
       <use xlink:href="#DejaVuSerif-36" transform="translate(95.410156 0)"/>
      </g>
     </g>
    </g>
    <g id="ytick_5">
     <g id="line2d_21">
      <path d="M 44.749063 70.2 
L 407.449062 70.2 
" clip-path="url(#p699ae15c4b)" style="fill: none; stroke-dasharray: 0.8,1.32; stroke-dashoffset: 0; stroke: #b0b0b0; stroke-opacity: 0.4; stroke-width: 0.8"/>
     </g>
     <g id="line2d_22">
      <g>
       <use xlink:href="#m1664e92fa0" x="44.749063" y="70.2" style="stroke: #000000; stroke-width: 0.8"/>
      </g>
     </g>
     <g id="text_12">
      <!-- 0.8 -->
      <g transform="translate(21.845938 73.999219) scale(0.1 -0.1)">
       <use xlink:href="#DejaVuSerif-30"/>
       <use xlink:href="#DejaVuSerif-2e" transform="translate(63.623047 0)"/>
       <use xlink:href="#DejaVuSerif-38" transform="translate(95.410156 0)"/>
      </g>
     </g>
    </g>
    <g id="ytick_6">
     <g id="line2d_23">
      <path d="M 44.749063 19.8 
L 407.449062 19.8 
" clip-path="url(#p699ae15c4b)" style="fill: none; stroke-dasharray: 0.8,1.32; stroke-dashoffset: 0; stroke: #b0b0b0; stroke-opacity: 0.4; stroke-width: 0.8"/>
     </g>
     <g id="line2d_24">
      <g>
       <use xlink:href="#m1664e92fa0" x="44.749063" y="19.8" style="stroke: #000000; stroke-width: 0.8"/>
      </g>
     </g>
     <g id="text_13">
      <!-- 1.0 -->
      <g transform="translate(21.845938 23.599219) scale(0.1 -0.1)">
       <use xlink:href="#DejaVuSerif-31"/>
       <use xlink:href="#DejaVuSerif-2e" transform="translate(63.623047 0)"/>
       <use xlink:href="#DejaVuSerif-30" transform="translate(95.410156 0)"/>
      </g>
     </g>
    </g>
    <g id="text_14">
     <!-- True Positive Rate -->
     <g transform="translate(15.558281 197.106406) rotate(-90) scale(0.11 -0.11)">
      <defs>
       <path id="DejaVuSerif-54" d="M 1222 0 
L 1222 331 
L 1819 331 
L 1819 4294 
L 447 4294 
L 447 3566 
L 63 3566 
L 63 4666 
L 4206 4666 
L 4206 3566 
L 3822 3566 
L 3822 4294 
L 2450 4294 
L 2450 331 
L 3047 331 
L 3047 0 
L 1222 0 
z
" transform="scale(0.015625)"/>
       <path id="DejaVuSerif-72" d="M 3059 3328 
L 3059 2497 
L 2728 2497 
Q 2713 2744 2591 2866 
Q 2469 2988 2234 2988 
Q 1809 2988 1582 2694 
Q 1356 2400 1356 1850 
L 1356 331 
L 2022 331 
L 2022 0 
L 263 0 
L 263 331 
L 781 331 
L 781 2994 
L 231 2994 
L 231 3322 
L 1356 3322 
L 1356 2731 
Q 1525 3078 1790 3245 
Q 2056 3413 2438 3413 
Q 2578 3413 2733 3391 
Q 2888 3369 3059 3328 
z
" transform="scale(0.015625)"/>
       <path id="DejaVuSerif-75" d="M 2266 3322 
L 3341 3322 
L 3341 331 
L 3884 331 
L 3884 0 
L 2766 0 
L 2766 588 
Q 2606 256 2353 82 
Q 2100 -91 1766 -91 
Q 1213 -91 952 223 
Q 691 538 691 1209 
L 691 2988 
L 172 2988 
L 172 3322 
L 1269 3322 
L 1269 1388 
Q 1269 781 1417 556 
Q 1566 331 1947 331 
Q 2347 331 2556 625 
Q 2766 919 2766 1478 
L 2766 2988 
L 2266 2988 
L 2266 3322 
z
" transform="scale(0.015625)"/>
      </defs>
      <use xlink:href="#DejaVuSerif-54"/>
      <use xlink:href="#DejaVuSerif-72" transform="translate(66.699219 0)"/>
      <use xlink:href="#DejaVuSerif-75" transform="translate(114.501953 0)"/>
      <use xlink:href="#DejaVuSerif-65" transform="translate(178.90625 0)"/>
      <use xlink:href="#DejaVuSerif-20" transform="translate(238.085938 0)"/>
      <use xlink:href="#DejaVuSerif-50" transform="translate(269.873047 0)"/>
      <use xlink:href="#DejaVuSerif-6f" transform="translate(333.158203 0)"/>
      <use xlink:href="#DejaVuSerif-73" transform="translate(393.363281 0)"/>
      <use xlink:href="#DejaVuSerif-69" transform="translate(444.681641 0)"/>
      <use xlink:href="#DejaVuSerif-74" transform="translate(476.664062 0)"/>
      <use xlink:href="#DejaVuSerif-69" transform="translate(516.849609 0)"/>
      <use xlink:href="#DejaVuSerif-76" transform="translate(548.832031 0)"/>
      <use xlink:href="#DejaVuSerif-65" transform="translate(605.326172 0)"/>
      <use xlink:href="#DejaVuSerif-20" transform="translate(664.505859 0)"/>
      <use xlink:href="#DejaVuSerif-52" transform="translate(696.292969 0)"/>
      <use xlink:href="#DejaVuSerif-61" transform="translate(773.835938 0)"/>
      <use xlink:href="#DejaVuSerif-74" transform="translate(833.455078 0)"/>
      <use xlink:href="#DejaVuSerif-65" transform="translate(873.640625 0)"/>
     </g>
    </g>
   </g>
   <g id="line2d_25">
    <path d="M 61.235426 271.8 
L 64.566005 175.625876 
L 67.896583 160.585158 
L 71.227162 150.718854 
L 74.55774 143.192214 
L 77.888319 137.033368 
L 81.218897 131.782915 
L 84.549476 127.184449 
L 87.880054 123.07918 
L 91.210633 119.361452 
L 94.541211 115.957149 
L 97.87179 112.812135 
L 101.202368 109.885575 
L 104.532947 107.145852 
L 107.863525 104.567953 
L 111.194104 102.13172 
L 114.524682 99.820659 
L 117.855261 97.621085 
L 121.185839 95.521513 
L 124.516418 93.512201 
L 127.846996 91.58481 
L 131.177575 89.732144 
L 134.508153 87.947946 
L 137.838732 86.226738 
L 141.16931 84.563699 
L 144.499889 82.954557 
L 147.830467 81.39551 
L 151.161046 79.883159 
L 154.491624 78.414451 
L 157.822203 76.986634 
L 161.152782 75.597215 
L 164.48336 74.243933 
L 167.813939 72.924726 
L 171.144517 71.637711 
L 174.475096 70.38116 
L 177.805674 69.153489 
L 181.136253 67.953235 
L 184.466831 66.77905 
L 187.79741 65.629685 
L 191.127988 64.503983 
L 194.458567 63.400869 
L 197.789145 62.31934 
L 201.119724 61.258463 
L 204.450302 60.217366 
L 207.780881 59.195233 
L 211.111459 58.191299 
L 214.442038 57.204846 
L 217.772616 56.235199 
L 221.103195 55.281723 
L 224.433773 54.343821 
L 227.764352 53.420926 
L 231.09493 52.512507 
L 234.425509 51.618059 
L 237.756087 50.737105 
L 241.086666 49.869191 
L 244.417244 49.013889 
L 247.747823 48.170792 
L 251.078401 47.33951 
L 254.40898 46.519677 
L 257.739558 45.710941 
L 261.070137 44.912967 
L 264.400715 44.125436 
L 267.731294 43.348044 
L 271.061872 42.5805 
L 274.392451 41.822526 
L 277.723029 41.073855 
L 281.053608 40.334233 
L 284.384186 39.603416 
L 287.714765 38.88117 
L 291.045343 38.167271 
L 294.375922 37.461502 
L 297.706501 36.763659 
L 301.037079 36.07354 
L 304.367658 35.390957 
L 307.698236 34.715724 
L 311.028815 34.047665 
L 314.359393 33.386609 
L 317.689972 32.732393 
L 321.02055 32.084859 
L 324.351129 31.443852 
L 327.681707 30.809227 
L 331.012286 30.180841 
L 334.342864 29.558558 
L 337.673443 28.942243 
L 341.004021 28.33177 
L 344.3346 27.727014 
L 347.665178 27.127856 
L 350.995757 26.534179 
L 354.326335 25.945871 
L 357.656914 25.362823 
L 360.987492 24.784931 
L 364.318071 24.212091 
L 367.648649 23.644206 
L 370.979228 23.081178 
L 374.309806 22.522915 
L 377.640385 21.969327 
L 380.970963 21.420325 
L 384.301542 20.875825 
L 387.63212 20.335743 
L 390.962699 19.8 
" clip-path="url(#p699ae15c4b)" style="fill: none; stroke: #6c757d; stroke-width: 1.5; stroke-linecap: square"/>
   </g>
   <g id="line2d_26">
    <path d="M 61.235426 271.8 
L 64.566005 178.190185 
L 67.896583 163.108312 
L 71.227162 153.183326 
L 74.55774 145.596535 
L 77.888319 139.379157 
L 81.218897 134.072492 
L 84.549476 129.420197 
L 87.880054 125.263361 
L 91.210633 121.496152 
L 94.541211 118.044276 
L 97.87179 114.853431 
L 101.202368 111.882631 
L 104.532947 109.100127 
L 107.863525 106.480786 
L 111.194104 104.004348 
L 114.524682 101.654224 
L 117.855261 99.416649 
L 121.185839 97.280063 
L 124.516418 95.23466 
L 127.846996 93.272041 
L 131.177575 91.384958 
L 134.508153 89.567106 
L 137.838732 87.812963 
L 141.16931 86.117668 
L 144.499889 84.476913 
L 147.830467 82.886863 
L 151.161046 81.344088 
L 154.491624 79.845508 
L 157.822203 78.388344 
L 161.152782 76.970081 
L 164.48336 75.588433 
L 167.813939 74.241319 
L 171.144517 72.926836 
L 174.475096 71.643239 
L 177.805674 70.388925 
L 181.136253 69.162419 
L 184.466831 67.962355 
L 187.79741 66.787472 
L 191.127988 65.636598 
L 194.458567 64.508647 
L 197.789145 63.402606 
L 201.119724 62.317528 
L 204.450302 61.252533 
L 207.780881 60.206794 
L 211.111459 59.179536 
L 214.442038 58.170034 
L 217.772616 57.177604 
L 221.103195 56.201603 
L 224.433773 55.241425 
L 227.764352 54.296498 
L 231.09493 53.366283 
L 234.425509 52.450269 
L 237.756087 51.547971 
L 241.086666 50.658931 
L 244.417244 49.782715 
L 247.747823 48.918909 
L 251.078401 48.06712 
L 254.40898 47.226975 
L 257.739558 46.398118 
L 261.070137 45.580209 
L 264.400715 44.772926 
L 267.731294 43.975958 
L 271.061872 43.189012 
L 274.392451 42.411805 
L 277.723029 41.644067 
L 281.053608 40.88554 
L 284.384186 40.135976 
L 287.714765 39.395137 
L 291.045343 38.662797 
L 294.375922 37.938736 
L 297.706501 37.222745 
L 301.037079 36.514622 
L 304.367658 35.814172 
L 307.698236 35.12121 
L 311.028815 34.435556 
L 314.359393 33.757037 
L 317.689972 33.085485 
L 321.02055 32.420741 
L 324.351129 31.76265 
L 327.681707 31.111061 
L 331.012286 30.465831 
L 334.342864 29.826821 
L 337.673443 29.193894 
L 341.004021 28.566922 
L 344.3346 27.945778 
L 347.665178 27.330341 
L 350.995757 26.720492 
L 354.326335 26.116118 
L 357.656914 25.517108 
L 360.987492 24.923355 
L 364.318071 24.334755 
L 367.648649 23.751207 
L 370.979228 23.172615 
L 374.309806 22.598882 
L 377.640385 22.029918 
L 380.970963 21.465634 
L 384.301542 20.905941 
L 387.63212 20.350757 
L 390.962699 19.8 
" clip-path="url(#p699ae15c4b)" style="fill: none; stroke: #2f5d8c; stroke-width: 1.5; stroke-linecap: square"/>
   </g>
   <g id="line2d_27">
    <path d="M 61.235426 271.8 
L 64.566005 157.647125 
L 67.896583 143.163493 
L 71.227162 133.853538 
L 74.55774 126.842188 
L 77.888319 121.159269 
L 81.218897 116.350994 
L 84.549476 112.166113 
L 87.880054 108.450048 
L 91.210633 105.100509 
L 94.541211 102.046085 
L 97.87179 99.234839 
L 101.202368 96.627739 
L 104.532947 94.194672 
L 107.863525 91.911884 
L 111.194104 89.760295 
L 114.524682 87.724328 
L 117.855261 85.791094 
L 121.185839 83.949801 
L 124.516418 82.191315 
L 127.846996 80.507835 
L 131.177575 78.89264 
L 134.508153 77.339899 
L 137.838732 75.844517 
L 141.16931 74.402013 
L 144.499889 73.008427 
L 147.830467 71.660239 
L 151.161046 70.354308 
L 154.491624 69.087814 
L 157.822203 67.85822 
L 161.152782 66.663232 
L 164.48336 65.500771 
L 167.813939 64.368943 
L 171.144517 63.266021 
L 174.475096 62.190422 
L 177.805674 61.140696 
L 181.136253 60.115507 
L 184.466831 59.113623 
L 187.79741 58.133906 
L 191.127988 57.1753 
L 194.458567 56.236827 
L 197.789145 55.317576 
L 201.119724 54.416698 
L 204.450302 53.533401 
L 207.780881 52.666946 
L 211.111459 51.816639 
L 214.442038 50.981831 
L 217.772616 50.16191 
L 221.103195 49.356303 
L 224.433773 48.564469 
L 227.764352 47.7859 
L 231.09493 47.020113 
L 234.425509 46.266655 
L 237.756087 45.525096 
L 241.086666 44.795028 
L 244.417244 44.076065 
L 247.747823 43.367842 
L 251.078401 42.67001 
L 254.40898 41.982238 
L 257.739558 41.304212 
L 261.070137 40.635632 
L 264.400715 39.976211 
L 267.731294 39.325678 
L 271.061872 38.683772 
L 274.392451 38.050245 
L 277.723029 37.424858 
L 281.053608 36.807384 
L 284.384186 36.197606 
L 287.714765 35.595314 
L 291.045343 35.00031 
L 294.375922 34.4124 
L 297.706501 33.831401 
L 301.037079 33.257136 
L 304.367658 32.689434 
L 307.698236 32.128134 
L 311.028815 31.573076 
L 314.359393 31.02411 
L 317.689972 30.481091 
L 321.02055 29.943877 
L 324.351129 29.412334 
L 327.681707 28.886331 
L 331.012286 28.365743 
L 334.342864 27.850446 
L 337.673443 27.340325 
L 341.004021 26.835266 
L 344.3346 26.335158 
L 347.665178 25.839897 
L 350.995757 25.34938 
L 354.326335 24.863507 
L 357.656914 24.382183 
L 360.987492 23.905314 
L 364.318071 23.43281 
L 367.648649 22.964585 
L 370.979228 22.500553 
L 374.309806 22.040633 
L 377.640385 21.584745 
L 380.970963 21.132812 
L 384.301542 20.684758 
L 387.63212 20.240511 
L 390.962699 19.8 
" clip-path="url(#p699ae15c4b)" style="fill: none; stroke-dasharray: 5.55,2.4; stroke-dashoffset: 0; stroke: #6c757d; stroke-width: 1.5"/>
   </g>
   <g id="line2d_28">
    <path d="M 61.235426 271.8 
L 64.566005 157.791251 
L 67.896583 143.30142 
L 71.227162 133.986085 
L 74.55774 126.970017 
L 77.888319 121.282876 
L 81.218897 116.47076 
L 84.549476 112.282343 
L 87.880054 108.562991 
L 91.210633 105.210372 
L 94.541211 102.153048 
L 97.87179 99.339054 
L 101.202368 96.729341 
L 104.532947 94.293778 
L 107.863525 92.008601 
L 111.194104 89.854718 
L 114.524682 87.816542 
L 117.855261 85.881177 
L 121.185839 84.037825 
L 124.516418 82.277346 
L 127.846996 80.591933 
L 131.177575 78.974862 
L 134.508153 77.420297 
L 137.838732 75.923139 
L 141.16931 74.478905 
L 144.499889 73.083632 
L 147.830467 71.733797 
L 151.161046 70.426256 
L 154.491624 69.158188 
L 157.822203 67.927054 
L 161.152782 66.730558 
L 164.48336 65.566619 
L 167.813939 64.433342 
L 171.144517 63.328999 
L 174.475096 62.252005 
L 177.805674 61.200909 
L 181.136253 60.174374 
L 184.466831 59.171167 
L 187.79741 58.190149 
L 191.127988 57.230263 
L 194.458567 56.29053 
L 197.789145 55.370038 
L 201.119724 54.467939 
L 204.450302 53.583439 
L 207.780881 52.715798 
L 211.111459 51.864321 
L 214.442038 51.028359 
L 217.772616 50.207301 
L 221.103195 49.400572 
L 224.433773 48.607631 
L 227.764352 47.827967 
L 231.09493 47.061101 
L 234.425509 46.306577 
L 237.756087 45.563964 
L 241.086666 44.832855 
L 244.417244 44.112864 
L 247.747823 43.403623 
L 251.078401 42.704786 
L 254.40898 42.01602 
L 257.739558 41.33701 
L 261.070137 40.667457 
L 264.400715 40.007074 
L 267.731294 39.355588 
L 271.061872 38.712739 
L 274.392451 38.078278 
L 277.723029 37.451967 
L 281.053608 36.833579 
L 284.384186 36.222895 
L 287.714765 35.619706 
L 291.045343 35.023812 
L 294.375922 34.435022 
L 297.706501 33.85315 
L 301.037079 33.27802 
L 304.367658 32.709462 
L 307.698236 32.147312 
L 311.028815 31.591412 
L 314.359393 31.041612 
L 317.689972 30.497765 
L 321.02055 29.95973 
L 324.351129 29.427373 
L 327.681707 28.900563 
L 331.012286 28.379173 
L 334.342864 27.863082 
L 337.673443 27.352173 
L 341.004021 26.846331 
L 344.3346 26.345448 
L 347.665178 25.849417 
L 350.995757 25.358135 
L 354.326335 24.871503 
L 357.656914 24.389426 
L 360.987492 23.91181 
L 364.318071 23.438564 
L 367.648649 22.969602 
L 370.979228 22.504839 
L 374.309806 22.044192 
L 377.640385 21.587582 
L 380.970963 21.134932 
L 384.301542 20.686167 
L 387.63212 20.241213 
L 390.962699 19.8 
" clip-path="url(#p699ae15c4b)" style="fill: none; stroke-dasharray: 5.55,2.4; stroke-dashoffset: 0; stroke: #2f5d8c; stroke-width: 1.5"/>
   </g>
   <g id="line2d_29">
    <path d="M 61.235426 271.8 
L 390.962699 19.8 
" clip-path="url(#p699ae15c4b)" style="fill: none; stroke-dasharray: 1,1.65; stroke-dashoffset: 0; stroke: #000000"/>
   </g>
   <g id="patch_3">
    <path d="M 44.749063 284.4 
L 44.749063 7.2 
" style="fill: none; stroke: #000000; stroke-width: 0.8; stroke-linejoin: miter; stroke-linecap: square"/>
   </g>
   <g id="patch_4">
    <path d="M 407.449062 284.4 
L 407.449062 7.2 
" style="fill: none; stroke: #000000; stroke-width: 0.8; stroke-linejoin: miter; stroke-linecap: square"/>
   </g>
   <g id="patch_5">
    <path d="M 44.749063 284.4 
L 407.449062 284.4 
" style="fill: none; stroke: #000000; stroke-width: 0.8; stroke-linejoin: miter; stroke-linecap: square"/>
   </g>
   <g id="patch_6">
    <path d="M 44.749063 7.2 
L 407.449062 7.2 
" style="fill: none; stroke: #000000; stroke-width: 0.8; stroke-linejoin: miter; stroke-linecap: square"/>
   </g>
   <g id="legend_1">
    <g id="patch_7">
     <path d="M 172.15375 279.4 
L 400.449062 279.4 
Q 402.449062 279.4 402.449062 277.4 
L 402.449062 219.11875 
Q 402.449062 217.11875 400.449062 217.11875 
L 172.15375 217.11875 
Q 170.15375 217.11875 170.15375 219.11875 
L 170.15375 277.4 
Q 170.15375 279.4 172.15375 279.4 
z
" style="fill: #ffffff; opacity: 0.8; stroke: #cccccc; stroke-linejoin: miter"/>
    </g>
    <g id="line2d_30">
     <path d="M 174.15375 225.217187 
L 184.15375 225.217187 
L 194.15375 225.217187 
" style="fill: none; stroke: #6c757d; stroke-width: 1.5; stroke-linecap: square"/>
    </g>
    <g id="text_15">
     <!-- Upper Secondary 2018 (AUC = 0.827) -->
     <g transform="translate(202.15375 228.717187) scale(0.1 -0.1)">
      <defs>
       <path id="DejaVuSerif-55" d="M 897 4331 
L 300 4331 
L 300 4666 
L 2125 4666 
L 2125 4331 
L 1528 4331 
L 1528 1919 
Q 1528 1025 1820 672 
Q 2113 319 2828 319 
Q 3544 319 3836 672 
Q 4128 1025 4128 1919 
L 4128 4331 
L 3531 4331 
L 3531 4666 
L 5106 4666 
L 5106 4331 
L 4513 4331 
L 4513 1856 
Q 4513 791 4103 350 
Q 3694 -91 2713 -91 
Q 1731 -91 1314 353 
Q 897 797 897 1856 
L 897 4331 
z
" transform="scale(0.015625)"/>
       <path id="DejaVuSerif-70" d="M 1313 1825 
L 1313 1497 
Q 1313 897 1542 583 
Q 1772 269 2209 269 
Q 2650 269 2876 622 
Q 3103 975 3103 1663 
Q 3103 2353 2876 2703 
Q 2650 3053 2209 3053 
Q 1772 3053 1542 2737 
Q 1313 2422 1313 1825 
z
M 738 2988 
L 184 2988 
L 184 3322 
L 1313 3322 
L 1313 2803 
Q 1481 3116 1742 3264 
Q 2003 3413 2388 3413 
Q 3000 3413 3387 2928 
Q 3775 2444 3775 1663 
Q 3775 881 3387 395 
Q 3000 -91 2388 -91 
Q 2003 -91 1742 57 
Q 1481 206 1313 519 
L 1313 -997 
L 1856 -997 
L 1856 -1331 
L 184 -1331 
L 184 -997 
L 738 -997 
L 738 2988 
z
" transform="scale(0.015625)"/>
       <path id="DejaVuSerif-53" d="M 594 225 
L 594 1288 
L 953 1284 
Q 969 753 1261 498 
Q 1553 244 2150 244 
Q 2706 244 2998 464 
Q 3291 684 3291 1106 
Q 3291 1444 3114 1625 
Q 2938 1806 2369 1978 
L 1753 2163 
Q 1084 2366 811 2669 
Q 538 2972 538 3500 
Q 538 4094 959 4422 
Q 1381 4750 2144 4750 
Q 2469 4750 2856 4679 
Q 3244 4609 3681 4475 
L 3681 3481 
L 3328 3481 
Q 3275 3975 2998 4195 
Q 2722 4416 2156 4416 
Q 1663 4416 1405 4214 
Q 1147 4013 1147 3628 
Q 1147 3294 1340 3103 
Q 1534 2913 2163 2725 
L 2741 2553 
Q 3375 2363 3645 2067 
Q 3916 1772 3916 1275 
Q 3916 597 3481 253 
Q 3047 -91 2188 -91 
Q 1803 -91 1404 -12 
Q 1006 66 594 225 
z
" transform="scale(0.015625)"/>
       <path id="DejaVuSerif-63" d="M 3291 997 
Q 3169 466 2822 187 
Q 2475 -91 1925 -91 
Q 1200 -91 759 389 
Q 319 869 319 1663 
Q 319 2459 759 2936 
Q 1200 3413 1925 3413 
Q 2241 3413 2553 3339 
Q 2866 3266 3181 3116 
L 3181 2266 
L 2847 2266 
Q 2781 2703 2561 2903 
Q 2341 3103 1931 3103 
Q 1466 3103 1228 2742 
Q 991 2381 991 1663 
Q 991 944 1227 581 
Q 1463 219 1931 219 
Q 2303 219 2525 412 
Q 2747 606 2828 997 
L 3291 997 
z
" transform="scale(0.015625)"/>
       <path id="DejaVuSerif-6e" d="M 263 0 
L 263 331 
L 781 331 
L 781 2988 
L 231 2988 
L 231 3322 
L 1356 3322 
L 1356 2731 
Q 1516 3069 1770 3241 
Q 2025 3413 2363 3413 
Q 2913 3413 3172 3097 
Q 3431 2781 3431 2113 
L 3431 331 
L 3944 331 
L 3944 0 
L 2356 0 
L 2356 331 
L 2853 331 
L 2853 1931 
Q 2853 2541 2703 2767 
Q 2553 2994 2175 2994 
Q 1775 2994 1565 2701 
Q 1356 2409 1356 1850 
L 1356 331 
L 1856 331 
L 1856 0 
L 263 0 
z
" transform="scale(0.015625)"/>
       <path id="DejaVuSerif-64" d="M 3359 331 
L 3909 331 
L 3909 0 
L 2784 0 
L 2784 519 
Q 2616 206 2355 57 
Q 2094 -91 1709 -91 
Q 1097 -91 708 395 
Q 319 881 319 1663 
Q 319 2444 706 2928 
Q 1094 3413 1709 3413 
Q 2094 3413 2355 3264 
Q 2616 3116 2784 2803 
L 2784 4531 
L 2241 4531 
L 2241 4863 
L 3359 4863 
L 3359 331 
z
M 2784 1497 
L 2784 1825 
Q 2784 2422 2554 2737 
Q 2325 3053 1888 3053 
Q 1444 3053 1217 2703 
Q 991 2353 991 1663 
Q 991 975 1217 622 
Q 1444 269 1888 269 
Q 2325 269 2554 583 
Q 2784 897 2784 1497 
z
" transform="scale(0.015625)"/>
       <path id="DejaVuSerif-79" d="M 1381 -609 
L 1600 -56 
L 359 2988 
L -19 2988 
L -19 3322 
L 1509 3322 
L 1509 2988 
L 978 2988 
L 1913 703 
L 2847 2988 
L 2350 2988 
L 2350 3322 
L 3597 3322 
L 3597 2988 
L 3225 2988 
L 1703 -750 
Q 1547 -1138 1356 -1280 
Q 1166 -1422 819 -1422 
Q 672 -1422 517 -1397 
Q 363 -1372 206 -1325 
L 206 -691 
L 500 -691 
Q 519 -903 608 -995 
Q 697 -1088 884 -1088 
Q 1056 -1088 1161 -992 
Q 1266 -897 1381 -609 
z
" transform="scale(0.015625)"/>
       <path id="DejaVuSerif-28" d="M 2041 -997 
Q 1281 -656 893 83 
Q 506 822 506 1931 
Q 506 3044 893 3783 
Q 1281 4522 2041 4863 
L 2041 4556 
Q 1559 4225 1350 3623 
Q 1141 3022 1141 1931 
Q 1141 844 1350 242 
Q 1559 -359 2041 -691 
L 2041 -997 
z
" transform="scale(0.015625)"/>
       <path id="DejaVuSerif-41" d="M 1281 1691 
L 2994 1691 
L 2138 3909 
L 1281 1691 
z
M -38 0 
L -38 331 
L 372 331 
L 2034 4666 
L 2559 4666 
L 4225 331 
L 4684 331 
L 4684 0 
L 2988 0 
L 2988 331 
L 3506 331 
L 3116 1356 
L 1153 1356 
L 763 331 
L 1275 331 
L 1275 0 
L -38 0 
z
" transform="scale(0.015625)"/>
       <path id="DejaVuSerif-43" d="M 4513 1234 
Q 4306 581 3820 245 
Q 3334 -91 2591 -91 
Q 2134 -91 1743 65 
Q 1353 222 1050 525 
Q 700 875 529 1320 
Q 359 1766 359 2328 
Q 359 3416 987 4083 
Q 1616 4750 2644 4750 
Q 3025 4750 3456 4650 
Q 3888 4550 4384 4347 
L 4384 3272 
L 4031 3272 
Q 3916 3859 3567 4137 
Q 3219 4416 2591 4416 
Q 1844 4416 1459 3886 
Q 1075 3356 1075 2328 
Q 1075 1303 1459 773 
Q 1844 244 2591 244 
Q 3113 244 3450 492 
Q 3788 741 3938 1234 
L 4513 1234 
z
" transform="scale(0.015625)"/>
       <path id="DejaVuSerif-3d" d="M 678 2894 
L 4684 2894 
L 4684 2394 
L 678 2394 
L 678 2894 
z
M 678 1619 
L 4684 1619 
L 4684 1119 
L 678 1119 
L 678 1619 
z
" transform="scale(0.015625)"/>
       <path id="DejaVuSerif-37" d="M 3609 4347 
L 1784 0 
L 1319 0 
L 3059 4153 
L 903 4153 
L 903 3578 
L 538 3578 
L 538 4666 
L 3609 4666 
L 3609 4347 
z
" transform="scale(0.015625)"/>
       <path id="DejaVuSerif-29" d="M 453 -997 
L 453 -691 
Q 934 -359 1145 242 
Q 1356 844 1356 1931 
Q 1356 3022 1145 3623 
Q 934 4225 453 4556 
L 453 4863 
Q 1216 4522 1603 3783 
Q 1991 3044 1991 1931 
Q 1991 822 1603 83 
Q 1216 -656 453 -997 
z
" transform="scale(0.015625)"/>
      </defs>
      <use xlink:href="#DejaVuSerif-55"/>
      <use xlink:href="#DejaVuSerif-70" transform="translate(84.277344 0)"/>
      <use xlink:href="#DejaVuSerif-70" transform="translate(148.291016 0)"/>
      <use xlink:href="#DejaVuSerif-65" transform="translate(212.304688 0)"/>
      <use xlink:href="#DejaVuSerif-72" transform="translate(271.484375 0)"/>
      <use xlink:href="#DejaVuSerif-20" transform="translate(319.287109 0)"/>
      <use xlink:href="#DejaVuSerif-53" transform="translate(351.074219 0)"/>
      <use xlink:href="#DejaVuSerif-65" transform="translate(419.580078 0)"/>
      <use xlink:href="#DejaVuSerif-63" transform="translate(478.759766 0)"/>
      <use xlink:href="#DejaVuSerif-6f" transform="translate(534.765625 0)"/>
      <use xlink:href="#DejaVuSerif-6e" transform="translate(594.970703 0)"/>
      <use xlink:href="#DejaVuSerif-64" transform="translate(659.375 0)"/>
      <use xlink:href="#DejaVuSerif-61" transform="translate(723.388672 0)"/>
      <use xlink:href="#DejaVuSerif-72" transform="translate(783.007812 0)"/>
      <use xlink:href="#DejaVuSerif-79" transform="translate(830.810547 0)"/>
      <use xlink:href="#DejaVuSerif-20" transform="translate(887.304688 0)"/>
      <use xlink:href="#DejaVuSerif-32" transform="translate(919.091797 0)"/>
      <use xlink:href="#DejaVuSerif-30" transform="translate(982.714844 0)"/>
      <use xlink:href="#DejaVuSerif-31" transform="translate(1046.337891 0)"/>
      <use xlink:href="#DejaVuSerif-38" transform="translate(1109.960938 0)"/>
      <use xlink:href="#DejaVuSerif-20" transform="translate(1173.583984 0)"/>
      <use xlink:href="#DejaVuSerif-28" transform="translate(1205.371094 0)"/>
      <use xlink:href="#DejaVuSerif-41" transform="translate(1244.384766 0)"/>
      <use xlink:href="#DejaVuSerif-55" transform="translate(1316.601562 0)"/>
      <use xlink:href="#DejaVuSerif-43" transform="translate(1400.878906 0)"/>
      <use xlink:href="#DejaVuSerif-20" transform="translate(1477.392578 0)"/>
      <use xlink:href="#DejaVuSerif-3d" transform="translate(1509.179688 0)"/>
      <use xlink:href="#DejaVuSerif-20" transform="translate(1592.96875 0)"/>
      <use xlink:href="#DejaVuSerif-30" transform="translate(1624.755859 0)"/>
      <use xlink:href="#DejaVuSerif-2e" transform="translate(1688.378906 0)"/>
      <use xlink:href="#DejaVuSerif-38" transform="translate(1720.166016 0)"/>
      <use xlink:href="#DejaVuSerif-32" transform="translate(1783.789062 0)"/>
      <use xlink:href="#DejaVuSerif-37" transform="translate(1847.412109 0)"/>
      <use xlink:href="#DejaVuSerif-29" transform="translate(1911.035156 0)"/>
     </g>
    </g>
    <g id="line2d_31">
     <path d="M 174.15375 240.0375 
L 184.15375 240.0375 
L 194.15375 240.0375 
" style="fill: none; stroke: #2f5d8c; stroke-width: 1.5; stroke-linecap: square"/>
    </g>
    <g id="text_16">
     <!-- Higher Education 2018 (AUC = 0.823) -->
     <g transform="translate(202.15375 243.5375) scale(0.1 -0.1)">
      <defs>
       <path id="DejaVuSerif-48" d="M 353 0 
L 353 331 
L 947 331 
L 947 4331 
L 353 4331 
L 353 4666 
L 2175 4666 
L 2175 4331 
L 1581 4331 
L 1581 2719 
L 4000 2719 
L 4000 4331 
L 3406 4331 
L 3406 4666 
L 5228 4666 
L 5228 4331 
L 4634 4331 
L 4634 331 
L 5228 331 
L 5228 0 
L 3406 0 
L 3406 331 
L 4000 331 
L 4000 2338 
L 1581 2338 
L 1581 331 
L 2175 331 
L 2175 0 
L 353 0 
z
" transform="scale(0.015625)"/>
       <path id="DejaVuSerif-67" d="M 3359 2988 
L 3359 72 
Q 3359 -644 2965 -1033 
Q 2572 -1422 1844 -1422 
Q 1516 -1422 1216 -1362 
Q 916 -1303 641 -1184 
L 641 -488 
L 941 -488 
Q 997 -813 1206 -963 
Q 1416 -1113 1806 -1113 
Q 2313 -1113 2548 -827 
Q 2784 -541 2784 72 
L 2784 519 
Q 2616 206 2355 57 
Q 2094 -91 1709 -91 
Q 1097 -91 708 395 
Q 319 881 319 1663 
Q 319 2444 706 2928 
Q 1094 3413 1709 3413 
Q 2094 3413 2355 3264 
Q 2616 3116 2784 2803 
L 2784 3322 
L 3909 3322 
L 3909 2988 
L 3359 2988 
z
M 2784 1825 
Q 2784 2422 2554 2737 
Q 2325 3053 1888 3053 
Q 1444 3053 1217 2703 
Q 991 2353 991 1663 
Q 991 975 1217 622 
Q 1444 269 1888 269 
Q 2325 269 2554 583 
Q 2784 897 2784 1497 
L 2784 1825 
z
" transform="scale(0.015625)"/>
       <path id="DejaVuSerif-68" d="M 263 0 
L 263 331 
L 781 331 
L 781 4531 
L 231 4531 
L 231 4863 
L 1356 4863 
L 1356 2731 
Q 1516 3069 1770 3241 
Q 2025 3413 2363 3413 
Q 2913 3413 3172 3097 
Q 3431 2781 3431 2113 
L 3431 331 
L 3944 331 
L 3944 0 
L 2356 0 
L 2356 331 
L 2853 331 
L 2853 1931 
Q 2853 2541 2704 2764 
Q 2556 2988 2175 2988 
Q 1775 2988 1565 2697 
Q 1356 2406 1356 1850 
L 1356 331 
L 1856 331 
L 1856 0 
L 263 0 
z
" transform="scale(0.015625)"/>
       <path id="DejaVuSerif-45" d="M 353 0 
L 353 331 
L 947 331 
L 947 4331 
L 353 4331 
L 353 4666 
L 4109 4666 
L 4109 3628 
L 3725 3628 
L 3725 4281 
L 1581 4281 
L 1581 2719 
L 3109 2719 
L 3109 3303 
L 3494 3303 
L 3494 1753 
L 3109 1753 
L 3109 2338 
L 1581 2338 
L 1581 384 
L 3775 384 
L 3775 1038 
L 4159 1038 
L 4159 0 
L 353 0 
z
" transform="scale(0.015625)"/>
       <path id="DejaVuSerif-33" d="M 622 4469 
Q 988 4606 1323 4678 
Q 1659 4750 1953 4750 
Q 2638 4750 3022 4454 
Q 3406 4159 3406 3634 
Q 3406 3213 3140 2930 
Q 2875 2647 2388 2547 
Q 2963 2466 3280 2130 
Q 3597 1794 3597 1259 
Q 3597 606 3158 257 
Q 2719 -91 1894 -91 
Q 1528 -91 1179 -12 
Q 831 66 488 225 
L 488 1131 
L 838 1131 
Q 869 681 1141 450 
Q 1413 219 1906 219 
Q 2384 219 2661 495 
Q 2938 772 2938 1253 
Q 2938 1803 2653 2086 
Q 2369 2369 1819 2369 
L 1522 2369 
L 1522 2688 
L 1678 2688 
Q 2225 2688 2498 2914 
Q 2772 3141 2772 3597 
Q 2772 4006 2547 4223 
Q 2322 4441 1900 4441 
Q 1478 4441 1245 4241 
Q 1013 4041 972 3647 
L 622 3647 
L 622 4469 
z
" transform="scale(0.015625)"/>
      </defs>
      <use xlink:href="#DejaVuSerif-48"/>
      <use xlink:href="#DejaVuSerif-69" transform="translate(87.207031 0)"/>
      <use xlink:href="#DejaVuSerif-67" transform="translate(119.189453 0)"/>
      <use xlink:href="#DejaVuSerif-68" transform="translate(183.203125 0)"/>
      <use xlink:href="#DejaVuSerif-65" transform="translate(247.607422 0)"/>
      <use xlink:href="#DejaVuSerif-72" transform="translate(306.787109 0)"/>
      <use xlink:href="#DejaVuSerif-20" transform="translate(354.589844 0)"/>
      <use xlink:href="#DejaVuSerif-45" transform="translate(386.376953 0)"/>
      <use xlink:href="#DejaVuSerif-64" transform="translate(459.375 0)"/>
      <use xlink:href="#DejaVuSerif-75" transform="translate(523.388672 0)"/>
      <use xlink:href="#DejaVuSerif-63" transform="translate(587.792969 0)"/>
      <use xlink:href="#DejaVuSerif-61" transform="translate(643.798828 0)"/>
      <use xlink:href="#DejaVuSerif-74" transform="translate(703.417969 0)"/>
      <use xlink:href="#DejaVuSerif-69" transform="translate(743.603516 0)"/>
      <use xlink:href="#DejaVuSerif-6f" transform="translate(775.585938 0)"/>
      <use xlink:href="#DejaVuSerif-6e" transform="translate(835.791016 0)"/>
      <use xlink:href="#DejaVuSerif-20" transform="translate(900.195312 0)"/>
      <use xlink:href="#DejaVuSerif-32" transform="translate(931.982422 0)"/>
      <use xlink:href="#DejaVuSerif-30" transform="translate(995.605469 0)"/>
      <use xlink:href="#DejaVuSerif-31" transform="translate(1059.228516 0)"/>
      <use xlink:href="#DejaVuSerif-38" transform="translate(1122.851562 0)"/>
      <use xlink:href="#DejaVuSerif-20" transform="translate(1186.474609 0)"/>
      <use xlink:href="#DejaVuSerif-28" transform="translate(1218.261719 0)"/>
      <use xlink:href="#DejaVuSerif-41" transform="translate(1257.275391 0)"/>
      <use xlink:href="#DejaVuSerif-55" transform="translate(1329.492188 0)"/>
      <use xlink:href="#DejaVuSerif-43" transform="translate(1413.769531 0)"/>
      <use xlink:href="#DejaVuSerif-20" transform="translate(1490.283203 0)"/>
      <use xlink:href="#DejaVuSerif-3d" transform="translate(1522.070312 0)"/>
      <use xlink:href="#DejaVuSerif-20" transform="translate(1605.859375 0)"/>
      <use xlink:href="#DejaVuSerif-30" transform="translate(1637.646484 0)"/>
      <use xlink:href="#DejaVuSerif-2e" transform="translate(1701.269531 0)"/>
      <use xlink:href="#DejaVuSerif-38" transform="translate(1733.056641 0)"/>
      <use xlink:href="#DejaVuSerif-32" transform="translate(1796.679688 0)"/>
      <use xlink:href="#DejaVuSerif-33" transform="translate(1860.302734 0)"/>
      <use xlink:href="#DejaVuSerif-29" transform="translate(1923.925781 0)"/>
     </g>
    </g>
    <g id="line2d_32">
     <path d="M 174.15375 254.857813 
L 184.15375 254.857813 
L 194.15375 254.857813 
" style="fill: none; stroke-dasharray: 5.55,2.4; stroke-dashoffset: 0; stroke: #6c757d; stroke-width: 1.5"/>
    </g>
    <g id="text_17">
     <!-- Upper Secondary 2024 (AUC = 0.853) -->
     <g transform="translate(202.15375 258.357813) scale(0.1 -0.1)">
      <defs>
       <path id="DejaVuSerif-35" d="M 3219 4666 
L 3219 4153 
L 1081 4153 
L 1081 2816 
Q 1244 2928 1461 2984 
Q 1678 3041 1947 3041 
Q 2703 3041 3140 2622 
Q 3578 2203 3578 1478 
Q 3578 738 3136 323 
Q 2694 -91 1894 -91 
Q 1572 -91 1234 -12 
Q 897 66 544 225 
L 544 1131 
L 897 1131 
Q 925 688 1179 453 
Q 1434 219 1894 219 
Q 2388 219 2653 544 
Q 2919 869 2919 1478 
Q 2919 2084 2655 2407 
Q 2391 2731 1894 2731 
Q 1613 2731 1398 2631 
Q 1184 2531 1019 2322 
L 750 2322 
L 750 4666 
L 3219 4666 
z
" transform="scale(0.015625)"/>
      </defs>
      <use xlink:href="#DejaVuSerif-55"/>
      <use xlink:href="#DejaVuSerif-70" transform="translate(84.277344 0)"/>
      <use xlink:href="#DejaVuSerif-70" transform="translate(148.291016 0)"/>
      <use xlink:href="#DejaVuSerif-65" transform="translate(212.304688 0)"/>
      <use xlink:href="#DejaVuSerif-72" transform="translate(271.484375 0)"/>
      <use xlink:href="#DejaVuSerif-20" transform="translate(319.287109 0)"/>
      <use xlink:href="#DejaVuSerif-53" transform="translate(351.074219 0)"/>
      <use xlink:href="#DejaVuSerif-65" transform="translate(419.580078 0)"/>
      <use xlink:href="#DejaVuSerif-63" transform="translate(478.759766 0)"/>
      <use xlink:href="#DejaVuSerif-6f" transform="translate(534.765625 0)"/>
      <use xlink:href="#DejaVuSerif-6e" transform="translate(594.970703 0)"/>
      <use xlink:href="#DejaVuSerif-64" transform="translate(659.375 0)"/>
      <use xlink:href="#DejaVuSerif-61" transform="translate(723.388672 0)"/>
      <use xlink:href="#DejaVuSerif-72" transform="translate(783.007812 0)"/>
      <use xlink:href="#DejaVuSerif-79" transform="translate(830.810547 0)"/>
      <use xlink:href="#DejaVuSerif-20" transform="translate(887.304688 0)"/>
      <use xlink:href="#DejaVuSerif-32" transform="translate(919.091797 0)"/>
      <use xlink:href="#DejaVuSerif-30" transform="translate(982.714844 0)"/>
      <use xlink:href="#DejaVuSerif-32" transform="translate(1046.337891 0)"/>
      <use xlink:href="#DejaVuSerif-34" transform="translate(1109.960938 0)"/>
      <use xlink:href="#DejaVuSerif-20" transform="translate(1173.583984 0)"/>
      <use xlink:href="#DejaVuSerif-28" transform="translate(1205.371094 0)"/>
      <use xlink:href="#DejaVuSerif-41" transform="translate(1244.384766 0)"/>
      <use xlink:href="#DejaVuSerif-55" transform="translate(1316.601562 0)"/>
      <use xlink:href="#DejaVuSerif-43" transform="translate(1400.878906 0)"/>
      <use xlink:href="#DejaVuSerif-20" transform="translate(1477.392578 0)"/>
      <use xlink:href="#DejaVuSerif-3d" transform="translate(1509.179688 0)"/>
      <use xlink:href="#DejaVuSerif-20" transform="translate(1592.96875 0)"/>
      <use xlink:href="#DejaVuSerif-30" transform="translate(1624.755859 0)"/>
      <use xlink:href="#DejaVuSerif-2e" transform="translate(1688.378906 0)"/>
      <use xlink:href="#DejaVuSerif-38" transform="translate(1720.166016 0)"/>
      <use xlink:href="#DejaVuSerif-35" transform="translate(1783.789062 0)"/>
      <use xlink:href="#DejaVuSerif-33" transform="translate(1847.412109 0)"/>
      <use xlink:href="#DejaVuSerif-29" transform="translate(1911.035156 0)"/>
     </g>
    </g>
    <g id="line2d_33">
     <path d="M 174.15375 269.678125 
L 184.15375 269.678125 
L 194.15375 269.678125 
" style="fill: none; stroke-dasharray: 5.55,2.4; stroke-dashoffset: 0; stroke: #2f5d8c; stroke-width: 1.5"/>
    </g>
    <g id="text_18">
     <!-- Higher Education 2024 (AUC = 0.853) -->
     <g transform="translate(202.15375 273.178125) scale(0.1 -0.1)">
      <use xlink:href="#DejaVuSerif-48"/>
      <use xlink:href="#DejaVuSerif-69" transform="translate(87.207031 0)"/>
      <use xlink:href="#DejaVuSerif-67" transform="translate(119.189453 0)"/>
      <use xlink:href="#DejaVuSerif-68" transform="translate(183.203125 0)"/>
      <use xlink:href="#DejaVuSerif-65" transform="translate(247.607422 0)"/>
      <use xlink:href="#DejaVuSerif-72" transform="translate(306.787109 0)"/>
      <use xlink:href="#DejaVuSerif-20" transform="translate(354.589844 0)"/>
      <use xlink:href="#DejaVuSerif-45" transform="translate(386.376953 0)"/>
      <use xlink:href="#DejaVuSerif-64" transform="translate(459.375 0)"/>
      <use xlink:href="#DejaVuSerif-75" transform="translate(523.388672 0)"/>
      <use xlink:href="#DejaVuSerif-63" transform="translate(587.792969 0)"/>
      <use xlink:href="#DejaVuSerif-61" transform="translate(643.798828 0)"/>
      <use xlink:href="#DejaVuSerif-74" transform="translate(703.417969 0)"/>
      <use xlink:href="#DejaVuSerif-69" transform="translate(743.603516 0)"/>
      <use xlink:href="#DejaVuSerif-6f" transform="translate(775.585938 0)"/>
      <use xlink:href="#DejaVuSerif-6e" transform="translate(835.791016 0)"/>
      <use xlink:href="#DejaVuSerif-20" transform="translate(900.195312 0)"/>
      <use xlink:href="#DejaVuSerif-32" transform="translate(931.982422 0)"/>
      <use xlink:href="#DejaVuSerif-30" transform="translate(995.605469 0)"/>
      <use xlink:href="#DejaVuSerif-32" transform="translate(1059.228516 0)"/>
      <use xlink:href="#DejaVuSerif-34" transform="translate(1122.851562 0)"/>
      <use xlink:href="#DejaVuSerif-20" transform="translate(1186.474609 0)"/>
      <use xlink:href="#DejaVuSerif-28" transform="translate(1218.261719 0)"/>
      <use xlink:href="#DejaVuSerif-41" transform="translate(1257.275391 0)"/>
      <use xlink:href="#DejaVuSerif-55" transform="translate(1329.492188 0)"/>
      <use xlink:href="#DejaVuSerif-43" transform="translate(1413.769531 0)"/>
      <use xlink:href="#DejaVuSerif-20" transform="translate(1490.283203 0)"/>
      <use xlink:href="#DejaVuSerif-3d" transform="translate(1522.070312 0)"/>
      <use xlink:href="#DejaVuSerif-20" transform="translate(1605.859375 0)"/>
      <use xlink:href="#DejaVuSerif-30" transform="translate(1637.646484 0)"/>
      <use xlink:href="#DejaVuSerif-2e" transform="translate(1701.269531 0)"/>
      <use xlink:href="#DejaVuSerif-38" transform="translate(1733.056641 0)"/>
      <use xlink:href="#DejaVuSerif-35" transform="translate(1796.679688 0)"/>
      <use xlink:href="#DejaVuSerif-33" transform="translate(1860.302734 0)"/>
      <use xlink:href="#DejaVuSerif-29" transform="translate(1923.925781 0)"/>
     </g>
    </g>
   </g>
  </g>
 </g>
 <defs>
  <clipPath id="p699ae15c4b">
   <rect x="44.749063" y="7.2" width="362.7" height="277.2"/>
  </clipPath>
 </defs>
</svg>
